<svg width="108" height="67" viewBox="0 0 108 67" fill="none" xmlns="http://www.w3.org/2000/svg">
<g clip-path="url(#clip0)">
<path d="M0.0300293 32.16C-0.0299707 32.29 0.0300266 32.59 0.160027 32.53L0.280029 32.03L0.0300293 32.16Z" fill="#FF55BC"/>
<path d="M1.07001 33.05C1.20087 32.898 1.29507 32.7179 1.34535 32.5238C1.39563 32.3296 1.40065 32.1264 1.36002 31.93C1.17002 32.41 1.13002 32.21 0.930015 32.77C0.770015 32.83 0.660018 32.61 0.690018 32.43C0.630018 32.55 0.450016 32.31 0.360016 32.63C0.560016 33.01 0.810012 33.03 1.09001 32.72C1.1187 32.8293 1.1117 32.9449 1.07001 33.05V33.05Z" fill="#FF55BC"/>
<path d="M16.34 34.05L16.24 33.99C16.267 34.019 16.3017 34.0398 16.34 34.05V34.05Z" fill="#FF55BC"/>
<path d="M25.78 34.5C25.7537 34.5034 25.729 34.5148 25.7093 34.5327C25.6897 34.5506 25.6759 34.5741 25.67 34.6C25.78 34.57 25.78 34.54 25.78 34.5Z" fill="#FF55BC"/>
<path d="M27.41 35.05L27.31 35.05C27.35 35.05 27.39 35.11 27.41 35.05Z" fill="#FF55BC"/>
<path d="M16.34 34.05L16.59 34.21C16.61 34.05 16.46 34.13 16.34 34.05Z" fill="#FF55BC"/>
<path d="M3.20001 31.93C3.14 31.9563 3.09066 32.0021 3.06001 32.06L3.19002 32.06C3.18014 32.0166 3.18362 31.9713 3.20001 31.93V31.93Z" fill="#FF55BC"/>
<path d="M12.16 34.43L12.08 34.43L12.02 34.63L12.16 34.43Z" fill="#FF55BC"/>
<path d="M8.96003 34.46C9.03003 34.46 9.06003 34.06 9.09003 33.88C9.0755 33.9935 9.01829 34.0972 8.93003 34.17C8.927 34.2676 8.93709 34.3651 8.96003 34.46Z" fill="#FF55BC"/>
<path d="M3.89001 33.65L3.80001 33.71L3.89001 33.65Z" fill="#FF55BC"/>
<path d="M14.45 34.56C14.4423 34.6097 14.4423 34.6603 14.45 34.71C14.4595 34.6604 14.4595 34.6096 14.45 34.56Z" fill="#FF55BC"/>
<path d="M104.07 32.67L104.07 32.74C104.07 32.74 104.09 32.67 104.07 32.67Z" fill="#FF55BC"/>
<path d="M107.78 34.81L107.73 34.81C107.725 34.8899 107.725 34.9701 107.73 35.05L107.78 34.81Z" fill="#FF55BC"/>
<path d="M30.36 35.65C30.27 35.69 30.31 35.68 30.36 35.65V35.65Z" fill="#FF55BC"/>
<path d="M57.52 35.73C57.22 35.35 58.02 35.25 57.52 34.83C57.61 34.99 57.14 35.48 57.52 35.73Z" fill="#FF55BC"/>
<path d="M3.28001 31.99L3.41 31.99C3.38995 31.9795 3.36765 31.974 3.34501 31.974C3.32237 31.974 3.30006 31.9795 3.28001 31.99Z" fill="#FF55BC"/>
<path d="M37.18 35.5C37.1708 35.4323 37.1469 35.3675 37.11 35.31C37.1183 35.3779 37.1422 35.443 37.18 35.5V35.5Z" fill="#FF55BC"/>
<path d="M32.11 34.82L32.23 34.88C32.1957 34.8502 32.1544 34.8296 32.11 34.82Z" fill="#FF55BC"/>
<path d="M39.78 34.94C39.85 34.94 39.87 35.03 39.97 34.94L39.97 34.89C39.94 34.98 39.9 35.05 39.78 34.94Z" fill="#FF55BC"/>
<path d="M42.57 34.97C42.5498 34.9457 42.533 34.9188 42.52 34.89L42.43 34.89L42.57 34.97Z" fill="#FF55BC"/>
<path d="M95.73 32.75C95.7849 32.8715 95.8252 32.999 95.85 33.13C95.78 32.83 96.22 32.73 95.73 32.75Z" fill="#FF55BC"/>
<path d="M3.19003 32.17C3.19003 32.06 3.19003 32.01 3.28003 31.99L3.19003 31.99C3.17094 32.0485 3.17094 32.1115 3.19003 32.17V32.17Z" fill="#FF55BC"/>
<path d="M39.98 31.61L40.42 31.68C40.2767 31.6389 40.129 31.6154 39.98 31.61V31.61Z" fill="#FF55BC"/>
<path d="M76.04 32.53L76.14 32.53C76.1252 32.5201 76.1078 32.5148 76.09 32.5148C76.0722 32.5148 76.0548 32.5201 76.04 32.53V32.53Z" fill="#FF55BC"/>
<path d="M41.71 31.64C41.7637 31.7557 41.8464 31.8556 41.95 31.93L42.01 31.83L41.71 31.64Z" fill="#FF55BC"/>
<path d="M98.78 32.18C98.36 32.18 98.57 32.72 98.48 33.03C97.98 33.18 98.26 32.62 98.09 32.34C97.78 32.48 97.54 32.98 97.31 32.96C97.31 32.87 97.25 32.83 97.31 32.72C96.98 33.16 96.31 32.72 95.95 33.28C95.9432 33.2336 95.9432 33.1864 95.95 33.14C95.9822 33.3923 95.9822 33.6477 95.95 33.9C95.76 33.9 95.6 34.24 95.53 33.9C95.65 33.9 95.66 33.77 95.71 33.66L95.52 33.81C95.35 33.29 95.78 33.63 95.79 33.25C95.41 33.41 94.96 33.84 94.67 33.69C94.61 33.18 95.35 33.52 94.97 33.07L95.42 33.27C95.09 32.46 95.69 33.33 95.42 32.46C94.83 32.31 94.75 32.71 94.16 32.56C94.02 32.84 94.16 32.97 94.06 33.26C93.21 33.75 93.42 31.97 92.79 32.64C92.62 32.97 92.55 33.64 92.12 33.27L92.27 32.69C91.7 32.63 91.93 33.52 91.34 33.12C91.45 32.9 91.79 32.94 91.71 32.87C91.32 32.41 91.43 33.19 91.13 33.19L91.07 32.68C90.46 32.75 89.78 33.11 89.07 33.19C89.07 33.04 89.23 32.88 89.07 32.72C88.1698 32.8613 87.2479 32.7217 86.43 32.32L86.11 32.75C86.03 32.75 85.97 32.55 86.05 32.47C85.73 32.3 86.05 32.75 85.88 32.92C85.71 33.09 85.64 32.66 85.76 32.53C85.18 32.9 84.13 33.31 83.54 32.83L83.66 32.7C83.19 32.52 83.12 33.6 82.66 33.18L82.75 33.11C81.75 32.9 80.62 33.29 79.86 32.61C79.7 33.24 78.86 32.32 78.78 33.2C78.21 32.75 78.38 32.6 77.57 32.29C77.36 32.29 77.24 32.84 76.97 32.93L76.97 32.46L76.6 32.94L76.42 32.39L76.16 32.5C76.2221 32.5346 76.2735 32.5855 76.3087 32.6471C76.344 32.7088 76.3617 32.779 76.36 32.85C75.96 33.05 75.36 32.51 75.36 32.27L74.42 32.65C74.42 32.47 74.6 32.4 74.73 32.29C74.22 32.75 74.64 31.8 74.18 32.22C74.24 32.33 74.18 32.5 74.13 32.59C73.9768 32.462 73.7919 32.3778 73.5948 32.3461C73.3976 32.3144 73.1956 32.3365 73.01 32.41L73.09 32.1C72.3453 32.0989 71.601 32.1356 70.86 32.21C71.14 32.36 71.07 32.91 70.86 32.96L70.77 32.47C70.62 32.77 71.01 32.66 70.7 33.03C70.41 32.97 70.52 32.47 70.7 32.31L70.35 32.48C70.35 32.33 70.42 32.26 70.44 32.07C70.29 32.37 69.84 31.57 69.62 32.07L69.62 31.93C68.78 31.91 68.46 32.05 67.78 32.05C67.78 32.47 67.52 32.38 67.32 32.71C66.8424 32.4752 66.3285 32.323 65.8 32.26C65.4 32.47 65.68 32.62 65.5 32.87C65.5 32.48 64.92 32.51 65.21 32.24C64.6231 32.2566 64.0438 32.3785 63.5 32.6C63.59 32.76 63.69 32.83 63.64 32.96C63.59 33.09 63.29 32.79 63.32 32.61C62.32 33.17 61.14 31.46 60.32 32.25L59.53 32.66C59.17 32.59 59.75 32.37 59.53 32.13C58.67 32.76 58.19 32.02 57.53 32.44C57.01 31.29 55.61 32.44 54.9 31.75L54.9 32.02C54.71 32.28 54.68 31.87 54.54 31.8C54.54 32.01 54.74 32.04 54.62 32.19C53.02 32.49 51.34 31.75 49.71 31.49C49.11 31.41 49.35 32.86 48.6 32.21L48.82 31.72C47.61 32.3 46.36 31.67 45.17 32.15C45.24 32.04 45.24 31.89 45.36 31.9C45.11 31.53 44.44 31.9 44.43 32.16C44.24 32.16 44.43 31.89 44.28 31.74C44.13 31.59 43.64 32.19 43.51 31.83C43.51 31.77 43.59 31.72 43.63 31.69C43.47 31.86 42.87 31.63 43.02 32.05C42.58 31.85 42.17 32.22 41.82 31.97C41.59 32.43 41.07 31.74 40.98 32.39C40.98 31.72 40.22 31.84 39.98 32.15C40.08 31.95 39.74 31.94 39.85 31.65C39.53 31.65 39.24 31.78 39.29 32.13C38.71 31.31 38.09 32.77 37.78 31.72C36.9051 32.0482 36.0011 32.2926 35.08 32.45C35.08 31.78 36.08 32.45 36 31.69C35.19 31.95 34.71 32.53 33.91 32.35C33.7 32.26 34.03 32.06 34.1 31.95C33.29 32.21 32.54 31.86 31.81 32.22C31.81 32.16 31.89 32.09 31.97 32.04C31.82 32.04 31.64 31.94 31.65 32.24L31.79 32.16C32.01 32.61 31.21 33.09 31.18 33.32C31.44 32.44 30.47 33.09 30.87 31.98C30.8283 32.031 30.7985 32.0907 30.7829 32.1548C30.7673 32.2188 30.7664 32.2855 30.78 32.35C30.64 32.29 30.6 32.17 30.78 31.93C30.27 32.09 30.45 32.42 29.99 32.41C29.99 32.26 30.08 32.21 30.13 32.03C29.9 32.32 29.66 32.61 29.27 32.47C29.27 32.38 29.27 32.27 29.37 32.27C28.7 32.27 28.21 33.03 27.48 32.74C27.71 32.09 27.24 32.52 27.21 31.96L26.81 32.12L26.96 32.39C26.62 32.39 26.31 32.78 25.96 32.6L26.22 32.37L25.57 32.47L25.94 32.68C25.58 32.97 25.94 33.39 25.51 33.23C25.6 33.17 25.16 33.23 24.99 32.89C24.81 33.07 24.63 33.26 24.38 33.11C24.32 32.93 24.44 32.49 24.38 32.37C24.21 32.84 23.57 32.49 23.38 32.99C23.4407 32.8413 23.4614 32.6792 23.44 32.52L23.29 32.9C23.13 32.77 23.11 32.71 23.14 32.48C22.66 32.4 23.28 33.19 22.71 32.88C22.71 32.88 22.71 32.79 22.83 32.73C22.26 32.57 21.72 32.96 21.19 32.73C21.05 32.17 21.66 32.6 21.49 32.13C20.72 32.22 19.9 32.78 19.17 32.63L19.3 32.7C19.19 33.49 18.76 32.3 18.38 32.7C18.47 32.64 18.51 32.26 18.48 32.35C17.98 32.21 17.48 32.53 16.68 32.77L16.78 32.56C16.48 32.38 16 32.45 15.68 32.35C15.58 32.55 15.4 32.52 15.5 32.82C14.5 31.64 13.61 33.41 12.74 32.43C12.85 32.43 12.99 32.25 12.91 32.25L12.16 32.43C12.16 32.78 12.25 32.64 12.41 32.91C12.3661 33.009 12.2967 33.0945 12.2088 33.1578C12.1209 33.221 12.0178 33.2598 11.91 33.27C12.25 33.05 11.91 32.71 11.77 32.52C11.77 32.63 11.77 32.74 11.77 32.85C11.38 32.23 11.69 33.55 11.16 33.12L11.16 32.94C10.96 33.03 10.78 33.27 10.56 33.22C10.48 32.81 10.78 33.03 10.79 32.7C10.49 32.7 10.19 33.45 9.92002 33.05C10.05 32.94 10.23 32.94 10.36 32.83C10.07 32.36 10.04 32.48 9.82002 32.4L9.31002 32.18L9.44002 32.31C9.04003 33.31 8.66002 32.49 8.14002 33.16C8.65002 32.52 8.23002 32.79 8.28002 32.34C8.15002 32.21 7.95002 32.06 8.01002 31.94C7.76002 32.3 7.61002 31.64 7.26002 32.17C7.26002 32.03 7.01002 32.17 7.07002 31.79C6.75002 31.9 7.14002 32.05 7.07002 32.23C6.58002 32.72 5.94002 31.61 5.24002 32.23C4.63002 32.51 4.51002 33 3.96002 33.23C3.77002 32.99 4.12002 32.69 4.12002 32.69C4.00337 32.5975 3.85888 32.5472 3.71002 32.5472C3.56116 32.5472 3.41667 32.5975 3.30002 32.69C3.36002 32.57 3.30002 32.46 3.22002 32.29C2.99002 32.29 3.06002 32.82 2.76002 32.6C2.809 32.3952 2.88999 32.1995 3.00002 32.02C2.72002 32.15 2.45002 32.42 2.17002 32.55C2.10002 32.29 2.35002 32.16 2.45002 32C2.13002 32.11 1.63002 32.22 1.53002 32.62L1.73002 32.77C1.61002 32.77 1.67002 32.42 1.73002 32.35C2.00002 32.03 2.12002 32.49 2.13002 32.64L1.93002 32.73C2.12002 33.59 2.73002 32.6 3.13002 32.66L2.95002 33.28L3.37002 32.77C3.46002 32.93 3.51002 33.28 3.31002 33.37C3.59002 33.68 3.57002 33.15 3.81002 33.5C3.82409 33.5149 3.83192 33.5345 3.83192 33.555C3.83192 33.5755 3.82409 33.5951 3.81002 33.61L4.09002 33.43C4.03002 33.56 4.09002 33.87 3.96002 33.78C4.46002 34.14 4.78002 33.32 4.96002 33.78C5.66002 33.58 5.03002 33.33 5.56002 32.78L5.94003 34.05L6.02002 33.59C6.09002 33.59 6.23002 33.65 6.20002 33.83C6.47002 33.52 6.20002 33.63 6.32002 33.34C6.66002 33.76 7.32002 33.16 7.32002 33.89C7.45002 33.54 7.00002 33.61 7.32002 33.38C7.42002 34.16 7.75002 33.25 8.06002 33.61C7.96002 34.02 7.66002 33.8 7.97002 34.16C8.17002 33.48 8.59002 34.32 8.86002 34.16C8.86002 33.61 9.44002 33.94 9.86002 33.76C9.86002 33.94 10.7 34.07 11.12 34.28L11.12 34.37C11.21 33.82 11.64 33.93 11.96 33.82C11.9708 33.9328 11.9537 34.0466 11.9101 34.1513C11.8665 34.2559 11.7978 34.3482 11.71 34.42L12.08 34.42C12.109 34.3411 12.1571 34.2706 12.2199 34.2148C12.2827 34.159 12.3583 34.1195 12.44 34.1L12.36 34.51C12.75 34.51 13.16 34.03 13.66 34.31C13.66 33.93 13.27 33.24 13.81 32.99C13.81 33.2 13.81 33.55 13.7 33.64C13.7 33.64 13.86 33.47 13.95 33.56L13.74 33.9C13.96 34.06 13.86 33.61 14.04 33.65C14.04 33.94 14.18 33.86 14.15 34.1C14.1 34.1 13.99 33.97 13.92 34.1C14.0375 34.1313 14.1463 34.1891 14.2382 34.2688C14.33 34.3485 14.4024 34.4481 14.45 34.56C14.45 34.39 14.45 34.16 14.61 34.12C15 34.12 14.74 34.48 14.96 34.64C15.06 34.43 15.31 34.64 15.32 34.21C15.44 34.21 15.45 34.42 15.5 34.54C15.7 34.34 16.5 34.54 16.22 34.02C16.89 33.59 17.59 34.29 18.22 34.11L18.22 34.26C18.62 34.09 19.1 34.17 19.39 33.86C19.5 33.86 19.66 34.13 19.6 34.31C19.91 34.2 19.94 34.03 20.38 34.31C20.07 34.57 20.48 34.54 20.06 34.5C20.45 34.63 20.54 34.87 20.96 34.5C20.81 34.88 21.25 34.98 21.44 34.87L21.17 34.6C21.3573 34.5546 21.5527 34.5546 21.74 34.6L21.64 35.09C22.43 35.71 23.1 34.09 23.69 35.09C23.91 34.74 23.26 34.84 23.45 34.43C23.82 34.5 24.2 35.22 24.31 35.23C24.81 35.51 24.79 34.5 25.31 34.7C25.2422 34.5546 25.2323 34.3889 25.2825 34.2365C25.3327 34.0841 25.4391 33.9566 25.58 33.88C25.6603 33.918 25.7311 33.9736 25.7869 34.0428C25.8427 34.1119 25.8821 34.1928 25.9023 34.2793C25.9225 34.3658 25.9229 34.4558 25.9035 34.5425C25.884 34.6292 25.8452 34.7104 25.79 34.78C25.774 34.783 25.7575 34.7823 25.7418 34.7781C25.726 34.774 25.7114 34.7663 25.699 34.7558C25.6865 34.7453 25.6766 34.7321 25.6698 34.7173C25.6631 34.7024 25.6597 34.6863 25.66 34.67C25.54 34.74 25.39 34.81 25.53 35.01L25.53 34.83C25.71 35.01 26.22 35 26.09 35.29C26.37 35.13 26.22 35 26.01 34.91C26.48 35.17 26.75 34.91 27.23 35.1C27.16 35 27.09 34.79 27.17 34.8C27.88 35.03 27.49 34.46 27.97 34.39C28.24 34.67 27.86 35.04 28.35 34.82C28.65 35.01 28.41 35.29 28.29 35.44C28.74 35.1 29.11 35.67 29.37 35.74L29.13 35.88C29.2431 35.8183 29.3716 35.7905 29.5 35.8L29.37 35.45C29.51 35.51 29.63 35.51 29.62 35.66C29.77 35.43 29.52 35.07 29.81 34.75C29.99 34.94 30.37 34.57 30.42 35.04C29.85 34.87 30.48 35.51 29.99 35.58C30.0438 35.5511 30.104 35.536 30.165 35.536C30.2261 35.536 30.2862 35.5511 30.34 35.58C30.34 35.63 30.34 35.67 30.28 35.7C30.82 36.13 30.54 35.17 31.11 35.19C31.03 35.45 31.23 35.7 31.33 35.64C31.1 35.64 31.23 35.2 31.44 34.99C31.8 35.21 31.84 34.85 32.03 34.87L31.81 34.77C31.89 34.51 32.07 34.54 32.33 34.46C32.33 34.67 32.1 34.6 32.18 34.7C32.47 34.23 32.82 35.19 33.18 34.88C33.36 35.06 33.18 35.38 33.35 35.51C33.79 35.17 33.82 35.88 34.29 35.6C34.16 35.24 34.13 35.33 34.47 34.98L33.7 35.22L34.2 34.71C33.97 34.71 33.71 34.93 33.57 34.86C33.81 34.58 33.78 34.66 33.68 34.37C33.98 34.91 34.31 34.06 34.68 34.43L34.68 35.32C35.23 35.72 35.68 34.87 36.37 35.11L36.15 34.95C36.25 34.6 36.59 34.95 36.82 34.77C36.82 35.06 36.94 35.17 37.03 35.36C37.03 35.14 37.55 35.36 37.63 34.8L37.94 35.19C38.51 35.36 38.61 34.36 39.16 34.47C38.99 34.79 39.23 35 38.86 35.22C39.05 35.22 39.21 35.29 39.22 35.08C39.32 35.27 39.73 34.69 39.9 34.97C39.98 34.84 40.01 34.53 40.22 34.56C40.2332 34.6091 40.2332 34.6609 40.22 34.71C40.22 34.56 40.55 34.51 40.37 34.18C40.93 35.11 41.96 34.18 42.45 34.94C42.8611 34.8424 43.279 34.7755 43.7 34.74C43.7 34.83 43.7 34.89 43.63 34.86C44.13 35.14 43.95 34.01 44.52 34.33C44.81 34.81 44.22 34.58 44.4 34.76C44.46 35.76 45.09 34.64 45.47 35.22L45.37 35.27C45.66 35.61 46.1 34.91 46.58 34.99C46.5692 35.0394 46.5692 35.0906 46.58 35.14C46.9473 34.7164 47.455 34.4395 48.01 34.36C47.86 34.74 47.79 34.56 47.87 34.95C48.08 34.89 47.87 34.32 48.24 34.22C48.37 34.43 48.67 34.62 48.7 35.03L48.31 35.03C48.5 35.57 48.82 35.03 49.02 35.11L49.02 35.35C49.62 35.28 49.64 34.69 50.29 34.74L50.22 34.56C50.58 33.98 50.51 34.9 50.87 34.47L50.97 35.06C51.3538 34.7859 51.7704 34.5608 52.21 34.39C51.97 34.83 51.48 35.05 51.21 35.3C51.44 35.3 51.99 35.3 52.12 34.98C52.02 35.04 51.91 35.18 51.81 35.09C51.9167 34.8837 52.0792 34.7115 52.279 34.5931C52.4788 34.4746 52.7078 34.4146 52.94 34.42C52.84 35.57 54.13 34.73 54.45 35.62C55.27 35.21 56.06 35.83 57.01 35.77C56.69 34.87 57.29 35.77 57.24 34.83C57.46 34.78 57.55 34.83 57.57 34.83L58.23 35.39C58.38 35.66 58.01 35.59 58.03 35.8C58.51 35.87 58.23 36.19 58.55 36.44C58.48 36.11 58.72 35.97 58.99 36.1L58.61 35.67C59.29 35.19 59.18 36.45 59.87 35.97L59.65 36.26C60 36.09 60.94 36.26 61.29 35.55C61.35 35.66 61.43 35.91 61.29 35.97C62.12 36.1 63.15 35.22 63.8 35.68L63.73 35.9C63.89 35.84 64.01 35.49 64.2 35.71C64.2 35.81 64.13 35.94 64.2 35.95C64.27 35.96 64.62 35.56 64.83 35.7L64.65 35.95C65.46 36.25 65.91 35.35 66.59 35.21C66.59 35.87 67.22 36.09 67.53 36.21L67.53 36.3C68.53 36.4 69.15 35.78 70.03 35.53C70.56 36.26 71.87 35.86 72.74 36.27C72.61 36.15 72.74 35.76 72.93 35.7C73.13 35.83 73.5 35.25 73.46 35.85L73.39 35.85C73.53 36.45 73.96 36.29 74.29 36.31L74.35 35.52C75.2 36.69 76.62 35.13 77.07 36.17C77.28 35.98 77.54 35.98 77.75 35.79L77.75 36.21C78.2649 36.3496 78.8037 36.3769 79.33 36.29L79.18 36.6C79.58 36.6 79.71 35.38 80.08 35.36L80.18 35.99C80.88 35.99 81.58 36.56 82.28 35.99C82.28 36.08 82.28 36.26 82.13 36.29C82.46 36.29 83.4 36.73 83.3 35.86C83.3 36.43 84.02 35.93 84.4 35.68L84.34 36.1C84.66 35.57 84.68 35.42 85.12 35.28C85.23 35.34 85.21 35.62 85.07 35.51C85.42 35.73 85.35 35.12 85.78 35.35L85.62 35.61C85.98 35.61 85.95 35.51 86.15 35.2C86.35 34.89 86.84 35.31 86.89 35.69C86.94 35.46 87.14 35.16 87.36 35.27C87.3664 35.3197 87.3607 35.3703 87.3433 35.4173C87.3259 35.4643 87.2973 35.5064 87.26 35.54C87.87 35.83 88.17 35.07 88.58 35.48C88.5815 35.5711 88.6055 35.6605 88.65 35.74C88.371 35.7514 88.0917 35.7245 87.82 35.66C87.82 36.05 88.2 36.12 87.88 36.66C88.2 36.37 88.74 35.75 89.12 35.93C89.1442 35.9736 89.1611 36.0209 89.17 36.07V36.07C89.2114 36.0852 89.2565 36.0876 89.2993 36.0769C89.3421 36.0662 89.3806 36.0429 89.41 36.01C89.5024 36.074 89.6086 36.1151 89.72 36.13C89.72 36.45 90.17 36.31 90.36 36.33C90.36 35.91 90.6 35.98 90.36 35.63C90.36 35.63 90.36 35.68 90.19 35.69L90.11 35.69L89.63 35.69C89.79 35.48 89.95 35.3 90.16 35.54C90.26 35.27 90.38 34.99 90.44 34.86C90.7 35.45 91.21 35.78 91.27 36.14C91.87 35.91 92.67 36 93.05 35.22C93.22 35.12 93.24 35.45 93.31 35.57C93.21 35.65 93.09 35.64 93.04 35.75C93.38 35.55 94.04 35.68 94.13 35.13C94.55 35.39 93.88 35.64 94.46 35.56L94.38 35.72C95.52 36.63 96.27 34.34 97.52 35.49C97.44 35.42 97.39 35.39 97.38 35.3C98.82 35.82 100.38 34.87 101.79 35.68C102.2 35.85 102.25 35.5 102.5 35.23L102.58 35.69L103.01 35.17C103.62 34.79 104.01 36.29 104.81 35.58L104.72 35.28C104.99 35.34 105.59 35.11 105.54 35.46C105.54 35.4 105.63 35.14 105.74 35.3L105.74 35.54L106.42 35.14C106.94 35.32 106.32 36.08 107.08 36.14C107.37 36.05 107.9 35.46 107.8 35.3C107.713 35.2793 107.635 35.2293 107.581 35.1583C107.526 35.0872 107.498 34.9996 107.5 34.91L107.76 34.79C107.82 34.09 108.03 33.38 107.4 32.89L106.95 33.31L106.78 33.05L107.16 33.05C106.95 32.73 106.81 33.05 106.66 33.2C106.645 33.0567 106.581 32.9228 106.48 32.82L106.03 33.48C106.03 33.21 106.24 32.95 105.95 32.79C105.74 33.1 106.13 33.41 105.79 33.6C105.59 33.28 105.65 33.03 105.4 33.29C105.381 33.2234 105.383 33.1526 105.404 33.0868C105.425 33.0209 105.466 32.9629 105.52 32.92C105.3 33.13 104.94 33 104.82 33.37C104.6 32.98 104.07 33.47 104.1 32.8C104.03 32.96 103.7 33.32 103.5 33.34C103.88 32.56 102.74 33.34 102.85 32.44C102.56 33.15 101.85 32.74 101.36 33.13C101.36 33.07 101.44 32.96 101.49 32.99C101.21 32.93 101.14 32.72 100.96 32.58C100.96 33.17 100.49 33.29 100.26 33.65C99.93 33.08 100.47 32.97 100.37 32.42C100.37 32.9 99.78 32.89 99.89 33.29C99.64 32.93 99.67 33.11 99.55 32.62C99.49 33.36 99.31 32.74 99.09 33.19C98.72 32.83 99 32.5 98.59 32.72C98.37 32.43 98.78 32.18 98.78 32.18ZM89.06 33.31L89.26 33.31L89.06 33.31ZM88.24 33.31C88.3564 33.3212 88.4736 33.3212 88.59 33.31C88.59 33.45 88.59 33.6 88.51 33.59C88.43 33.58 88.32 33.43 88.2 33.3L88.24 33.31ZM89.88 36.25C89.75 36.31 89.71 36.25 89.7 36.14L89.92 36.09C89.92 36.09 89.92 36.09 89.92 36.04C89.9152 36.1113 89.9017 36.1819 89.88 36.25V36.25Z" fill="#FF55BC"/>
<path d="M90.12 35.7L90.18 35.7C90.1586 35.6657 90.1316 35.6353 90.1 35.61C90.0861 35.6543 90.0694 35.6977 90.05 35.74L90.12 35.7Z" fill="#FF55BC"/>
<path d="M16.22 34.05C16.22 34.05 16.22 34.05 16.22 33.99C16.2269 34.0094 16.2269 34.0306 16.22 34.05Z" fill="#FF55BC"/>
<path d="M76.95 32.34L76.95 32.44L77.03 32.35L76.95 32.34Z" fill="#FF55BC"/>
<path d="M11.78 32.51C11.793 32.4745 11.793 32.4355 11.78 32.4C11.7702 32.436 11.7702 32.474 11.78 32.51Z" fill="#FF55BC"/>
<path d="M9.78003 32.39L9.50003 32.23C9.586 32.2953 9.68013 32.3491 9.78003 32.39V32.39Z" fill="#FF55BC"/>
<path d="M8.33002 32.16C8.32192 32.2197 8.32192 32.2803 8.33002 32.34L8.33002 32.16Z" fill="#FF55BC"/>
<path d="M32.05 32C32.24 31.9 32.15 31.93 32.05 32V32Z" fill="#FF55BC"/>
<path d="M24.98 32.88C25.0468 32.8055 25.1243 32.7415 25.21 32.69C25.08 32.65 24.98 32.64 24.98 32.88Z" fill="#FF55BC"/>
<path d="M25.53 32.7C25.4843 32.6643 25.428 32.6449 25.37 32.6449C25.312 32.6449 25.2557 32.6643 25.21 32.7C25.2605 32.722 25.315 32.7334 25.37 32.7334C25.4251 32.7334 25.4796 32.722 25.53 32.7Z" fill="#FF55BC"/>
<path d="M1.87003 31.87L1.79003 31.87C1.79003 31.87 1.79003 31.93 1.79003 31.94L1.87003 31.87Z" fill="#FF55BC"/>
<path d="M1.78003 31.92L1.70003 31.97C1.70003 31.97 1.78003 31.97 1.78003 31.92Z" fill="#FF55BC"/>
<path d="M1.53001 32.05L1.70001 31.95C1.70001 31.95 1.57001 31.95 1.53001 32.05Z" fill="#FF55BC"/>
<path d="M3.84003 32.05L3.84003 31.89C3.8325 31.9431 3.8325 31.9969 3.84003 32.05Z" fill="#FF55BC"/>
<path d="M4.44003 32.05C4.30003 32.05 4.08003 31.72 3.88003 31.81L3.88003 31.93C3.96003 31.72 4.30003 32.32 4.44003 32.05Z" fill="#FF55BC"/>
<path d="M6.92001 33.99L6.41001 33.86C6.50001 34.02 6.61001 34.24 6.41001 34.28C7.01001 34.77 6.26001 33.91 6.92001 33.99Z" fill="#FF55BC"/>
<path d="M8.47002 34.24C8.20002 34.32 8.47002 34.48 8.47002 34.57C8.63002 34.43 8.67002 34.39 8.47002 34.24Z" fill="#FF55BC"/>
<path d="M19.78 34.41L19.78 34.79C19.91 34.74 19.71 34.64 19.78 34.41Z" fill="#FF55BC"/>
<path d="M21.92 32.46L21.72 32.21L21.62 32.56L21.92 32.46Z" fill="#FF55BC"/>
<path d="M23.15 35.21L23.06 35.26L23.41 35.12L23.15 35.21Z" fill="#FF55BC"/>
<path d="M42.07 35.34L42.02 34.87C41.88 34.95 41.84 35.48 42.07 35.34Z" fill="#FF55BC"/>
<path d="M50.25 34.98C50.33 35.21 50.56 35.37 50.71 35.14C50.52 35.05 50.34 34.92 50.25 34.98Z" fill="#FF55BC"/>
<path d="M74.73 36.1L74.57 36.25L74.88 36.12L74.73 36.1Z" fill="#FF55BC"/>
<path d="M1.24001 32.19C1.18001 32.31 1.14001 32.6 1.24001 32.56L1.41 32.09L1.24001 32.19Z" fill="#FF55BC"/>
<path d="M1.63 33.23C1.85158 32.9381 1.99293 32.5934 2.04001 32.23C1.83001 32.67 1.85001 32.47 1.61001 32.99C1.51001 32.99 1.49 32.8 1.55 32.63C1.49 32.74 1.43001 32.49 1.32001 32.78C1.21001 33.07 1.49001 33.23 1.71001 32.96C1.69872 33.0539 1.67167 33.1451 1.63 33.23V33.23Z" fill="#FF55BC"/>
<path d="M9.84003 36.36L9.84003 36.28C9.83452 36.2926 9.83168 36.3062 9.83168 36.32C9.83168 36.3338 9.83452 36.3474 9.84003 36.36V36.36Z" fill="#FF55BC"/>
<path d="M14.78 38.47C14.7579 38.4736 14.737 38.4828 14.7195 38.4968C14.702 38.5108 14.6884 38.5292 14.68 38.55C14.68 38.55 14.78 38.52 14.78 38.47Z" fill="#FF55BC"/>
<path d="M15.45 39.32L15.45 39.27C15.42 39.32 15.43 39.35 15.45 39.32Z" fill="#FF55BC"/>
<path d="M9.84001 36.36L9.93001 36.55C9.99001 36.4 9.90001 36.41 9.84001 36.36Z" fill="#FF55BC"/>
<path d="M3.09003 32.35C3.04617 32.3787 3.00872 32.4161 2.98003 32.46L3.07003 32.46L3.09003 32.35Z" fill="#FF55BC"/>
<path d="M7.46002 36.05L7.36002 36.24L7.46002 36.05Z" fill="#FF55BC"/>
<path d="M5.69002 35.57C5.69002 35.57 5.86001 35.2 5.92001 35.02C5.85001 35.19 5.80002 35.26 5.76002 35.28C5.7262 35.3738 5.70273 35.4711 5.69002 35.57V35.57Z" fill="#FF55BC"/>
<path d="M3.09003 34.11L3.02003 34.16L3.09003 34.11Z" fill="#FF55BC"/>
<path d="M8.67003 36.48C8.67292 36.53 8.67292 36.58 8.67003 36.63C8.67949 36.5804 8.67949 36.5296 8.67003 36.48V36.48Z" fill="#FF55BC"/>
<path d="M52.71 62.51C52.71 62.51 52.72 62.52 52.71 62.51V62.51Z" fill="#FF55BC"/>
<path d="M52.47 65.49L52.44 65.48L52.25 65.62L52.47 65.49Z" fill="#FF55BC"/>
<path d="M16.78 40.49C16.71 40.5 16.73 40.5 16.78 40.49V40.49Z" fill="#FF55BC"/>
<path d="M30.34 47.5C30.4 47.09 30.85 47.26 30.86 46.76C30.78 46.91 30.3 47.18 30.34 47.5Z" fill="#FF55BC"/>
<path d="M3.12001 32.42L3.20001 32.42C3.18785 32.413 3.17405 32.4093 3.16001 32.4093C3.14597 32.4093 3.13217 32.413 3.12001 32.42Z" fill="#FF55BC"/>
<path d="M20.36 41.87C20.36 41.8 20.36 41.74 20.36 41.69C20.3546 41.7499 20.3546 41.8101 20.36 41.87Z" fill="#FF55BC"/>
<path d="M18.02 40.05L18.02 40.13C18.0278 40.1039 18.0278 40.0761 18.02 40.05Z" fill="#FF55BC"/>
<path d="M21.96 41.99C21.96 41.99 21.96 42.09 22.04 42.07C22.0439 42.0535 22.0439 42.0364 22.04 42.02C22.04 42.02 21.97 42.05 21.96 41.99Z" fill="#FF55BC"/>
<path d="M23.34 42.72L23.34 42.63L23.28 42.63L23.34 42.72Z" fill="#FF55BC"/>
<path d="M49.33 58.96C49.2657 59.0719 49.1885 59.176 49.1 59.27C49.31 59.05 49.54 59.15 49.33 58.96Z" fill="#FF55BC"/>
<path d="M3.04003 32.58C3.05281 32.5208 3.08032 32.4658 3.12003 32.42C3.07914 32.465 3.05146 32.5203 3.04003 32.58V32.58Z" fill="#FF55BC"/>
<path d="M23.53 39.05L23.78 39.23C23.7172 39.1457 23.6299 39.0828 23.53 39.05V39.05Z" fill="#FF55BC"/>
<path d="M24.43 39.53C24.4092 39.639 24.4092 39.751 24.43 39.86L24.5 39.78L24.43 39.53Z" fill="#FF55BC"/>
<path d="M50.97 59.85C50.82 59.66 50.49 60.13 50.22 60.3C49.91 60.19 50.44 59.93 50.58 59.67C50.35 59.67 49.88 59.87 49.8 59.75C49.72 59.63 49.87 59.64 49.98 59.59C49.52 59.74 49.58 59.18 48.98 59.39C49.0042 59.3516 49.0309 59.3148 49.06 59.28C48.896 59.472 48.7189 59.6524 48.53 59.82C48.45 59.74 48.14 59.91 48.37 59.63C48.37 59.69 48.52 59.63 48.63 59.54L48.43 59.54C48.75 59.11 48.67 59.54 48.95 59.27C48.68 59.27 48.19 59.33 48.18 59.1C48.53 58.72 48.58 59.28 48.75 58.8L48.75 59.13C49.2 58.43 48.82 59.28 49.32 58.56C49.19 58.2 48.87 58.44 48.74 58.09C48.48 58.23 48.45 58.4 48.19 58.54C47.48 58.54 48.85 57.38 48.1 57.59C47.79 57.76 47.3 58.18 47.37 57.76L47.84 57.42C47.64 57.14 47.11 57.86 47.14 57.34C47.35 57.23 47.47 57.4 47.48 57.34C47.64 56.86 47.13 57.46 47.01 57.34L47.35 56.96C47.04 56.76 46.5 56.74 46.16 56.52C46.28 56.43 46.44 56.37 46.48 56.19C45.96 56.01 45.77 55.39 45.62 54.84L45.18 55.03C45.18 55.03 45.26 54.84 45.35 54.81C45.35 54.56 45.16 55 44.97 55.07C44.78 55.14 45.04 54.79 45.18 54.74C44.68 54.74 43.94 54.68 44 54.1L44.14 54.1C44.06 53.78 43.31 54.55 43.4 54.1L43.49 54.1C43.19 53.56 42.44 53.42 42.49 52.63C42.01 53.05 42.23 52.04 41.63 52.63C41.63 52.08 41.83 52.03 41.63 51.49C41.56 51.38 41.13 51.79 40.95 51.76L41.25 51.4L40.77 51.64L41.04 51.14L40.85 51.14C40.85 51.19 40.85 51.38 40.72 51.47C40.41 51.47 40.5 50.86 40.65 50.67L39.99 50.62C40.11 50.49 40.22 50.5 40.35 50.45C39.83 50.63 40.62 50.04 40.14 50.2C40.14 50.31 39.96 50.4 39.89 50.47C39.9031 50.4076 39.9025 50.3432 39.8883 50.2811C39.874 50.219 39.8464 50.1607 39.8075 50.1103C39.7685 50.0599 39.719 50.0186 39.6625 49.9892C39.6059 49.9598 39.5437 49.943 39.48 49.94L39.71 49.71C39.44 49.4 38.94 49.31 38.59 49.02C38.59 49.24 38.25 49.65 38.12 49.61L38.38 49.19C38.12 49.38 38.38 49.43 38.01 49.61C37.91 49.46 38.26 49.1 38.43 49.03L38.17 49.03C38.25 48.91 38.33 48.88 38.46 48.74C38.2 48.93 38.46 48.13 38.06 48.47L38.14 48.35C37.78 48.07 37.51 48.07 37.21 47.86C36.95 48.2 36.89 48.03 36.6 48.24C36.46 47.97 36.41 47.53 36.13 47.37C35.82 47.37 35.86 47.62 35.63 47.76C35.84 47.44 35.56 47.28 35.86 47.16C35.5575 46.9806 35.2117 46.8872 34.86 46.89C34.86 47.05 34.86 47.14 34.72 47.23C34.58 47.32 34.65 46.98 34.72 46.84C33.94 46.99 34.32 45.17 33.49 45.57L32.87 45.67C32.73 45.5 33.14 45.5 33.14 45.22C32.37 45.47 32.53 44.71 31.96 44.84C32.31 43.72 30.96 44.29 30.96 43.45L30.84 43.69C30.6 43.85 30.84 43.48 30.77 43.39C30.67 43.57 30.77 43.66 30.61 43.74C29.66 43.5 29.16 42.41 28.46 41.74C28.19 41.5 27.59 42.83 27.53 42.05L27.89 41.69C26.99 41.83 26.65 40.93 25.79 41.05C25.88 40.97 25.95 40.84 26.01 40.87C26.01 40.49 25.54 40.6 25.4 40.87C25.32 40.79 25.5 40.62 25.52 40.46C25.54 40.3 24.97 40.69 25.08 40.34C25.08 40.28 25.17 40.25 25.2 40.24C25.04 40.35 24.83 39.99 24.72 40.4C24.58 40.1 24.19 40.33 24.13 40.01C23.79 40.36 23.84 39.6 23.5 40.16C23.83 39.57 23.35 39.45 23.05 39.67C23.2 39.51 23.05 39.42 23.21 39.2C23.04 39.12 22.82 39.2 22.7 39.48C22.7 38.61 21.78 39.76 22.07 38.75C21.4891 38.8253 20.9009 38.8253 20.32 38.75C20.63 38.15 20.85 38.93 21.13 38.28C20.58 38.28 20.13 38.73 19.74 38.38C19.67 38.24 19.93 38.14 20.01 38.05C19.47 38.05 19.2 37.62 18.66 37.78C18.7017 37.724 18.7567 37.6794 18.82 37.65C18.74 37.65 18.68 37.48 18.57 37.77L18.68 37.77C18.61 38.23 17.99 38.49 17.89 38.7C18.37 37.95 17.6 38.33 18.25 37.4C18.122 37.4725 18.0257 37.5902 17.98 37.73C17.98 37.64 17.98 37.52 18.13 37.34C17.79 37.34 17.75 37.72 17.51 37.6C17.57 37.46 17.64 37.43 17.74 37.28C17.5 37.5 17.26 37.71 17.1 37.5C17.1 37.42 17.17 37.31 17.23 37.34C16.85 37.22 16.32 37.78 16.04 37.34C16.4 36.8 16.04 37.09 16.18 36.56L15.9 36.63L15.9 36.91C15.71 36.83 15.39 37.14 15.3 36.91L15.53 36.75L15.14 36.75L15.26 37.03C14.96 37.22 15.01 37.69 14.82 37.45C14.89 37.45 14.64 37.37 14.66 37.03C14.5 37.16 14.34 37.3 14.25 37.11C14.16 36.92 14.51 36.55 14.53 36.43C14.27 36.83 14.04 36.38 13.75 36.8C13.8395 36.6684 13.9071 36.5232 13.95 36.37L13.73 36.7C13.73 36.55 13.73 36.49 13.8 36.28C13.56 36.11 13.62 36.97 13.42 36.57C13.42 36.57 13.42 36.49 13.54 36.45C13.29 36.18 12.85 36.45 12.64 36.16C12.75 35.6 12.93 36.16 13 35.65C12.55 35.58 11.91 35.95 11.55 35.7L11.61 35.78C11.29 36.51 11.44 35.31 11.11 35.59C11.1847 35.4976 11.2422 35.3926 11.28 35.28C11.04 35.06 10.64 35.28 10.14 35.36L10.26 35.19C10.16 34.96 9.86003 34.94 9.72003 34.79C9.60003 34.97 9.51002 34.9 9.48002 35.21C9.29002 33.92 8.26003 35.44 8.06003 34.38C8.12003 34.38 8.25002 34.25 8.20002 34.24L7.73002 34.29C7.66002 34.63 7.73002 34.51 7.73002 34.79C7.73002 35.07 7.46003 35.09 7.35003 35.06C7.61003 34.9 7.51003 34.53 7.49003 34.32C7.49003 34.43 7.41003 34.53 7.39003 34.64C7.39003 33.98 7.15003 35.29 6.97003 34.81L7.04003 34.64C6.90003 34.7 6.73003 34.9 6.63003 34.81C6.69003 34.41 6.80003 34.67 6.90003 34.35C6.73003 34.35 6.36003 34.99 6.32003 34.56C6.42003 34.47 6.52002 34.5 6.62002 34.41C6.62002 33.91 6.54003 34.02 6.44003 33.92L6.22003 33.63L6.22003 33.77C5.73003 34.77 5.74003 33.83 5.28003 34.41C5.72003 33.87 5.42003 34.06 5.56003 33.63C5.56003 33.49 5.45003 33.32 5.56003 33.21C5.33003 33.52 5.41003 32.86 5.08003 33.32C5.08003 33.18 4.94003 33.27 5.08003 32.92C4.88003 32.98 5.08003 33.18 5.00003 33.35C4.60003 33.75 4.51003 32.6 3.94003 33.17C3.54003 33.36 3.35003 33.82 2.94003 33.98C2.94003 33.73 3.16002 33.49 3.16002 33.49C3.04002 33.24 2.90002 33.24 2.70002 33.37C2.73727 33.2393 2.73727 33.1007 2.70002 32.97C2.56002 32.97 2.48002 33.46 2.37002 33.21C2.44028 33.0226 2.5273 32.8418 2.63002 32.67C2.45002 32.77 2.23002 32.99 2.05002 33.08C2.05002 32.83 2.23003 32.73 2.32003 32.58C2.12003 32.65 1.81003 32.69 1.67003 33.07L1.75003 33.24C1.68003 33.24 1.75003 32.9 1.86003 32.84C2.08003 32.57 2.04002 33.03 2.02002 33.17L1.88002 33.24C1.80002 34.1 2.36003 33.24 2.58003 33.31L2.34002 33.9L2.69003 33.45C2.69003 33.62 2.69002 33.97 2.52002 34.03C2.60002 34.37 2.71002 33.85 2.77002 34.22C2.77663 34.2358 2.78003 34.2528 2.78003 34.27C2.78003 34.2872 2.77663 34.3042 2.77002 34.32L2.97003 34.18C2.90003 34.3 2.89003 34.61 2.81003 34.5C3.00003 34.92 3.38002 34.16 3.37002 34.64C3.81002 34.54 3.52002 34.21 3.95002 33.76L3.86003 34.9L4.02002 34.47C4.02002 34.47 4.12002 34.55 4.02002 34.72C4.25002 34.45 4.02003 34.52 4.21003 34.26C4.30003 34.7 4.79003 34.21 4.64003 34.93C4.80003 34.61 4.53002 34.62 4.80002 34.44C4.65002 35.22 5.07003 34.38 5.15003 34.78C4.99003 35.15 4.88003 34.9 4.96003 35.3C5.25003 34.67 5.26003 35.54 5.44003 35.46C5.59003 34.94 5.82003 35.33 6.11003 35.23C6.05003 35.4 6.49002 35.65 6.66002 35.91L6.66002 35.99C6.86002 35.48 7.07002 35.65 7.27002 35.59C7.22952 35.7972 7.12451 35.9862 6.97003 36.13L7.13003 36.13C7.22003 35.98 7.29003 35.9 7.42003 35.87L7.26003 36.25C7.48003 36.3 7.83002 35.91 8.02002 36.25C8.16002 35.89 8.13003 35.16 8.50003 35.01C8.44003 35.22 8.35003 35.56 8.25003 35.61C8.15003 35.66 8.39002 35.48 8.41002 35.61L8.19003 35.9C8.27003 36.09 8.34003 35.65 8.43003 35.71C8.34003 35.99 8.43003 35.94 8.35003 36.16C8.35003 36.16 8.35002 36.01 8.23002 36.11C8.29291 36.1816 8.33901 36.2663 8.36496 36.358C8.39092 36.4497 8.39606 36.5461 8.38003 36.64C8.38003 36.48 8.51003 36.26 8.60003 36.25C8.69003 36.24 8.60003 36.62 8.60003 36.8C8.71003 36.62 8.78003 36.87 8.92003 36.45C8.98003 36.45 8.92003 36.68 8.92003 36.8C9.09003 36.65 9.45003 36.92 9.47003 36.43C9.97003 36.13 10.13 36.92 10.55 36.86L10.55 37C10.82 36.91 11.06 37.07 11.32 36.82C11.38 36.82 11.38 37.12 11.32 37.28C11.52 37.23 11.6 37.08 11.75 37.39C11.5 37.58 11.75 37.63 11.51 37.51C11.68 37.71 11.64 37.95 12.01 37.66C11.8 37.98 12.01 38.16 12.13 38.1L12.13 37.79C12.2444 37.7918 12.3543 37.8344 12.44 37.91L12.21 38.36C12.41 39.09 13.34 37.69 13.3 38.76C13.54 38.48 13.16 38.45 13.4 38.1C13.58 38.24 13.52 38.99 13.58 39.01C13.74 39.37 14.09 38.43 14.3 38.72C14.3 38.54 14.48 38.08 14.75 38.01C14.92 38.15 14.75 38.79 14.53 38.88C14.31 38.97 14.53 38.81 14.53 38.76C14.469 38.7744 14.4156 38.8111 14.3805 38.863C14.3453 38.9148 14.3308 38.978 14.34 39.04L14.43 38.89C14.43 39.09 14.74 39.18 14.56 39.42C14.77 39.32 14.74 39.18 14.66 39.05C14.81 39.39 15.05 39.2 15.24 39.48C15.24 39.37 15.24 39.16 15.32 39.18C15.6 39.55 15.61 38.94 15.89 38.98C15.89 39.29 15.59 39.55 15.89 39.45C15.97 39.69 15.74 39.9 15.62 40.01C15.99 39.79 15.96 40.4 16.07 40.52L15.89 40.6C15.9231 40.5797 15.9612 40.5689 16 40.5689C16.0389 40.5689 16.0769 40.5797 16.11 40.6L16.19 40.24C16.19 40.33 16.29 40.36 16.19 40.49C16.36 40.31 16.37 39.92 16.64 39.69C16.64 39.9 17.01 39.64 16.85 40.09C16.62 39.81 16.7 40.54 16.41 40.5C16.49 40.5 16.54 40.5 16.59 40.58C16.5856 40.6031 16.5761 40.6249 16.5623 40.6439C16.5485 40.6629 16.5306 40.6787 16.51 40.69C16.62 41.2 16.85 40.25 17.15 40.39C17 40.62 17.01 40.88 17.08 40.85C16.96 40.8 17.2 40.42 17.4 40.28C17.5 40.56 17.67 40.23 17.76 40.28L17.68 40.14C17.83 39.91 17.91 39.99 18.08 39.97C18 40.16 17.9 40.05 17.91 40.15C18.25 39.79 18.04 40.74 18.38 40.54C18.38 40.75 18.18 41 18.21 41.15C18.58 40.93 18.3 41.59 18.66 41.45C18.74 41.09 18.66 41.16 19 40.93L18.51 40.93L18.98 40.58C18.86 40.52 18.64 40.66 18.59 40.58C18.83 40.37 18.78 40.45 18.85 40.15C18.79 40.72 19.3 40.03 19.34 40.45L18.96 41.24C19.06 41.74 19.65 41.08 19.96 41.45L19.96 41.26C20.16 40.97 20.21 41.32 20.39 41.26C20.2967 41.443 20.2455 41.6446 20.24 41.85C20.33 41.65 20.5 41.99 20.79 41.48L20.79 41.75C21.01 42.03 21.5 41.16 21.79 41.39C21.56 41.63 21.6 41.88 21.3 41.99C21.4 41.99 21.46 42.13 21.55 41.99C21.55 42.18 21.99 41.76 21.95 42.06C22.05 41.96 22.2 41.69 22.3 41.76C22.282 41.806 22.2585 41.8497 22.23 41.89C22.3 41.76 22.49 41.8 22.55 41.46C22.41 42.46 23.38 41.83 23.26 42.67C23.5059 42.6859 23.7483 42.7364 23.98 42.82C23.98 42.89 23.91 42.95 23.89 42.9C24.01 43.28 24.45 42.24 24.6 42.67C24.51 43.17 24.32 42.81 24.32 43.02C23.9 43.9 24.73 43.09 24.65 43.69L24.58 43.69C24.58 44.06 25.12 43.56 25.32 43.75C25.2915 43.7903 25.268 43.834 25.25 43.88C25.4012 43.7545 25.578 43.6636 25.768 43.6135C25.958 43.5634 26.1566 43.5554 26.35 43.59C26.09 43.88 26.14 43.7 25.99 44.06C26.12 44.06 26.27 43.51 26.53 43.54C26.5333 43.8256 26.4753 44.1086 26.36 44.37L26.16 44.27C25.99 44.8 26.41 44.41 26.47 44.55L26.34 44.74C26.67 44.85 26.97 44.35 27.26 44.57L27.32 44.4C27.79 44 27.32 44.77 27.69 44.5L27.44 45.04C27.7585 44.909 28.0963 44.8313 28.44 44.81C28.1392 45.0327 27.8004 45.1988 27.44 45.3C27.5267 45.369 27.6342 45.4065 27.745 45.4065C27.8558 45.4065 27.9633 45.369 28.05 45.3C27.98 45.3 27.84 45.41 27.85 45.3C28.23 44.99 28.53 44.9 28.75 45.05C28.11 46.05 29.19 45.64 28.86 46.51C29.48 46.4 29.53 47.16 30.01 47.39C30.34 46.54 30.16 47.46 30.63 46.67C30.77 46.67 30.8 46.73 30.78 46.79L30.78 47.45C30.71 47.72 30.57 47.56 30.47 47.73C30.66 47.94 30.35 48.12 30.36 48.42C30.51 48.13 30.7 48.08 30.76 48.27L30.82 47.8C31.41 47.6 30.66 48.62 31.25 48.43L30.99 48.6C31.25 48.6 31.59 49 32.16 48.52C32.16 48.62 32.02 48.86 31.91 48.86C32.23 49.22 33.22 48.86 33.25 49.41L33.09 49.57C33.2 49.57 33.46 49.32 33.42 49.57C33.36 49.64 33.26 49.73 33.29 49.76C33.32 49.79 33.71 49.58 33.73 49.76L33.5 49.9C33.7 50.41 34.43 49.82 34.84 49.9C34.7234 50.0573 34.6556 50.2454 34.6449 50.441C34.6342 50.6365 34.6812 50.8309 34.78 51L34.72 51.07C35.09 51.46 35.72 51.19 36.31 51.29C36.11 52.05 36.95 52.17 37.09 52.79C37.1295 52.6962 37.1895 52.6125 37.2657 52.545C37.3419 52.4775 37.4322 52.4279 37.53 52.4C37.53 52.57 38.07 52.24 37.68 52.7C37.37 53.22 37.68 53.24 37.79 53.37L38.32 52.78C37.96 53.98 39.57 53.29 39.1 54.25C39.32 54.17 39.43 54.25 39.65 54.2L39.37 54.51C39.4947 54.7908 39.7192 55.0153 40 55.14L39.74 55.31C39.89 55.48 40.74 54.58 40.94 54.69L40.57 55.21C40.89 55.46 40.8 56.15 41.47 55.99C41.4 56.05 41.27 56.18 41.21 56.15C41.33 56.29 41.44 56.96 41.98 56.27C41.6 56.69 42.24 56.59 42.57 56.56L42.26 56.84C42.76 56.57 42.86 56.47 43.15 56.53C43.15 56.61 42.96 56.81 42.98 56.68C42.98 56.98 43.36 56.5 43.39 56.83L43.14 56.96C43.27 57.12 43.35 57.01 43.65 56.86C43.95 56.71 43.86 57.2 43.65 57.5C43.83 57.35 44.13 57.2 44.14 57.36C44.0865 57.4385 44.0095 57.498 43.92 57.53C43.97 57.97 44.62 57.53 44.5 58C44.4368 58.0574 44.3887 58.1296 44.36 58.21C44.17 58.01 44.03 57.83 44.07 57.83C43.8 58.1 43.91 58.31 43.41 58.56C43.74 58.48 44.41 58.25 44.41 58.56L44.33 58.67C44.33 58.73 44.39 58.74 44.46 58.67C44.4418 58.7388 44.4418 58.8112 44.46 58.88C44.25 59.12 44.46 59.18 44.58 59.27C44.87 58.96 44.92 59.11 45.08 58.77C45.08 58.77 45.08 58.77 44.96 58.77L44.9 58.77L44.69 58.6C44.9 58.51 45.09 58.44 45.01 58.69L45.6 58.32C45.29 58.85 45.27 59.32 45.04 59.56C45.44 59.63 45.7 60.01 46.42 59.56C46.56 59.56 46.34 59.8 46.27 59.91C46.2 60.02 46.14 59.91 46.04 59.91C46.32 59.91 46.49 60.26 46.92 59.91C46.92 60.25 46.46 60.16 46.76 60.34L46.6 60.42C46.39 61.5 48.35 60.25 48 61.55C48.011 61.4793 48.0423 61.4133 48.09 61.36C48.26 62.36 49.6 62.3 49.52 63.45C49.52 63.73 49.83 63.52 50.13 63.45L49.78 63.82L50.34 63.67C50.85 63.67 49.86 64.84 50.7 64.67L50.9 64.43C50.9 64.59 51.35 64.7 51.06 64.9C51.12 64.9 51.34 64.74 51.26 64.9L51.1 65.05L51.66 65.05C51.66 65.38 50.9 65.6 51.13 65.96C51.4534 66.0048 51.7819 65.9263 52.05 65.74C52.05 65.68 52.05 65.52 52.24 65.37L52.43 65.37C53 64.95 53.63 64.6 53.78 64.01L53.28 64.08L53.49 63.8L53.65 64.05C53.82 63.76 53.55 63.88 53.34 63.93C53.4388 63.8433 53.5145 63.7333 53.56 63.61L52.88 63.84C53.07 63.64 53.37 63.58 53.38 63.36C53.07 63.46 52.98 63.83 52.7 63.81C52.86 63.51 53.09 63.37 52.78 63.43C52.8674 63.3303 52.9884 63.2662 53.12 63.25C52.87 63.25 52.83 63.04 52.5 63.25C52.72 62.9 52.14 62.98 52.66 62.57C52.51 62.63 52.11 62.72 52.02 62.65C52.76 62.31 51.77 62.28 52.45 61.77C51.81 62.11 51.84 61.53 51.36 61.57C51.41 61.57 51.52 61.49 51.51 61.57C51.45 61.41 51.58 61.23 51.61 61.07C51.16 61.44 50.89 61.34 50.52 61.48C50.82 60.96 51.12 61.12 51.52 60.71C51.17 61.03 50.93 60.77 50.68 61.08C50.748 60.856 50.8719 60.6529 51.04 60.49C50.47 60.96 50.85 60.49 50.43 60.68C50.55 60.28 50.9 60.18 50.58 60.15C50.64 59.87 50.97 59.85 50.97 59.85ZM46.14 56.6L46.24 56.66L46.14 56.6ZM45.8 56.27C45.8372 56.3281 45.8808 56.3818 45.93 56.43C45.84 56.54 45.72 56.64 45.7 56.6C45.68 56.56 45.78 56.41 45.78 56.27L45.8 56.27ZM44.44 59.05C44.35 59.05 44.44 58.97 44.44 58.9L44.57 58.95L44.44 59.05Z" fill="#FF55BC"/>
<path d="M44.92 58.75L44.92 58.65L44.81 58.73L44.92 58.75Z" fill="#FF55BC"/>
<path d="M41.47 51.25L41.4 51.33L41.49 51.29L41.47 51.25Z" fill="#FF55BC"/>
<path d="M7.78002 34.05C7.7898 34.014 7.7898 33.976 7.78002 33.94C7.77025 33.976 7.77025 34.014 7.78002 34.05Z" fill="#FF55BC"/>
<path d="M6.73001 33.7L6.61002 33.51C6.63936 33.5795 6.6799 33.6437 6.73001 33.7V33.7Z" fill="#FF55BC"/>
<path d="M5.95001 33.25L5.88001 33.42L5.95001 33.25Z" fill="#FF55BC"/>
<path d="M19.12 37.5C19.27 37.46 19.2 37.46 19.12 37.5V37.5Z" fill="#FF55BC"/>
<path d="M14.95 36.81C15.011 36.7557 15.0781 36.7087 15.15 36.67C15.09 36.62 15.04 36.59 14.95 36.81Z" fill="#FF55BC"/>
<path d="M23.51 39.04L23.51 39.05L23.53 39.06L23.51 39.04Z" fill="#FF55BC"/>
<path d="M15.32 36.75C15.32 36.64 15.22 36.64 15.15 36.67C15.08 36.7 15.24 36.78 15.32 36.75Z" fill="#FF55BC"/>
<path d="M2.35002 32.13C2.3513 32.1533 2.3513 32.1767 2.35002 32.2L2.35002 32.13Z" fill="#FF55BC"/>
<path d="M2.29001 32.17L2.23 32.17C2.23 32.17 2.27001 32.21 2.29001 32.17Z" fill="#FF55BC"/>
<path d="M2.11002 32.29L2.23001 32.21C2.23001 32.21 2.16002 32.17 2.11002 32.29Z" fill="#FF55BC"/>
<path d="M3.42001 32.59L3.42001 32.45C3.41547 32.4966 3.41547 32.5434 3.42001 32.59Z" fill="#FF55BC"/>
<path d="M3.78003 32.63C3.71003 32.63 3.65003 32.27 3.52003 32.33L3.52003 32.45C3.58003 32.24 3.63003 32.87 3.78003 32.63Z" fill="#FF55BC"/>
<path d="M4.69003 34.81L4.45003 34.62C4.45003 34.79 4.45003 35.02 4.33003 35.02C4.55003 35.58 4.35003 34.65 4.69003 34.81Z" fill="#FF55BC"/>
<path d="M5.48002 35.29C5.32002 35.29 5.42003 35.52 5.39003 35.6C5.52003 35.49 5.56002 35.46 5.48002 35.29Z" fill="#FF55BC"/>
<path d="M11.59 37.23L11.45 37.59C11.58 37.57 11.5 37.45 11.59 37.23Z" fill="#FF55BC"/>
<path d="M13.43 35.81L13.41 35.54L13.23 35.85L13.43 35.81Z" fill="#FF55BC"/>
<path d="M13.14 38.62L13.08 38.66L13.31 38.6L13.14 38.62Z" fill="#FF55BC"/>
<path d="M22.92 42.92L23.11 42.48C23 42.52 22.78 42.98 22.92 42.92Z" fill="#FF55BC"/>
<path d="M27.19 44.77C27.12 45 27.19 45.19 27.34 45.04C27.26 44.95 27.27 44.74 27.19 44.77Z" fill="#FF55BC"/>
<path d="M38.09 53.35L37.92 53.41L38.13 53.42L38.09 53.35Z" fill="#FF55BC"/>
<path d="M0.780022 32.19C0.780022 32.32 0.860023 32.6 0.930023 32.52L0.88002 32.03L0.780022 32.19Z" fill="#FF55BC"/>
<path d="M1.59003 32.94C1.6647 32.5622 1.63356 32.1712 1.50003 31.81C1.50003 32.3 1.44003 32.11 1.50003 32.69C1.43003 32.77 1.32003 32.58 1.29003 32.39C1.29003 32.53 1.13003 32.32 1.15003 32.64C1.35003 32.98 1.50003 32.96 1.58003 32.64C1.59844 32.7389 1.60181 32.8401 1.59003 32.94Z" fill="#FF55BC"/>
<path d="M10.29 31.29L10.21 31.29C10.2226 31.2955 10.2362 31.2983 10.25 31.2983C10.2638 31.2983 10.2774 31.2955 10.29 31.29V31.29Z" fill="#FF55BC"/>
<path d="M15.54 29.65C15.54 29.65 15.54 29.73 15.54 29.77C15.54 29.81 15.56 29.68 15.54 29.65Z" fill="#FF55BC"/>
<path d="M16.62 29.8L16.55 29.8C16.55 29.8 16.62 29.84 16.62 29.8Z" fill="#FF55BC"/>
<path d="M10.29 31.29L10.47 31.39C10.43 31.23 10.36 31.3 10.29 31.29Z" fill="#FF55BC"/>
<path d="M2.49002 31.49C2.47528 31.5389 2.47528 31.5911 2.49002 31.64L2.55002 31.57L2.49002 31.49Z" fill="#FF55BC"/>
<path d="M6.33002 33.05C6.33002 33.05 6.33001 32.65 6.24001 32.47C6.24001 32.64 6.24001 32.73 6.24001 32.77C6.24001 32.81 6.29002 32.9 6.33002 33.05Z" fill="#FF55BC"/>
<path d="M9.40003 32.11L9.47003 32.25C9.45487 32.1997 9.43119 32.1523 9.40003 32.11V32.11Z" fill="#FF55BC"/>
<path d="M49.67 1.28L49.73 1.28C49.73 1.28 49.68 1.27 49.67 1.28Z" fill="#FF55BC"/>
<path d="M52.64 0.969986L52.64 1.00999L52.82 1.15999L52.64 0.969986Z" fill="#FF55BC"/>
<path d="M18.42 29.6C18.39 29.66 18.41 29.64 18.42 29.6V29.6Z" fill="#FF55BC"/>
<path d="M32.26 21.73C31.9 21.52 32.26 21.17 31.78 20.97C31.89 21.05 31.94 21.65 32.26 21.73Z" fill="#FF55BC"/>
<path d="M2.55003 31.53L2.62003 31.53C2.62003 31.53 2.56003 31.51 2.55003 31.53Z" fill="#FF55BC"/>
<path d="M21.94 27.69C21.9049 27.6363 21.8648 27.586 21.82 27.54C21.8551 27.5937 21.8953 27.644 21.94 27.69Z" fill="#FF55BC"/>
<path d="M19 28.42L19.09 28.42C19.0768 28.411 19.0611 28.4061 19.045 28.4061C19.029 28.4061 19.0133 28.411 19 28.42V28.42Z" fill="#FF55BC"/>
<path d="M23.06 26.48C23.06 26.48 23.15 26.54 23.17 26.48C23.14 26.49 23.13 26.52 23.06 26.48Z" fill="#FF55BC"/>
<path d="M24.47 25.73L24.41 25.67L24.47 25.73Z" fill="#FF55BC"/>
<path d="M46.73 4.95C46.8464 5.00553 46.9569 5.07253 47.06 5.14999C46.78 4.95999 46.89 4.72 46.73 4.95Z" fill="#FF55BC"/>
<path d="M2.54001 31.72C2.54001 31.61 2.54001 31.56 2.54001 31.53C2.52679 31.5926 2.52679 31.6574 2.54001 31.72V31.72Z" fill="#FF55BC"/>
<path d="M21.61 23.49L21.85 23.49C21.7719 23.4654 21.6881 23.4654 21.61 23.49V23.49Z" fill="#FF55BC"/>
<path d="M38.72 12.63L38.72 12.55C38.72 12.55 38.7 12.58 38.72 12.63Z" fill="#FF55BC"/>
<path d="M22.46 23.05C22.5333 23.1299 22.6216 23.1945 22.72 23.24C22.7231 23.2034 22.7231 23.1666 22.72 23.13L22.46 23.05Z" fill="#FF55BC"/>
<path d="M47.4 3.27999C47.24 3.43999 47.73 3.71999 47.94 3.96999C47.87 4.28999 47.55 3.8 47.27 3.68C47.27 3.9 47.55 4.34 47.45 4.43C47.37 4.37 47.33 4.37 47.27 4.27C47.47 4.7 46.92 4.69 47.18 5.27L47.06 5.18999C47.2673 5.33972 47.4614 5.50701 47.64 5.68999C47.57 5.76999 47.76 6.06999 47.47 5.84999C47.52 5.84999 47.47 5.71 47.36 5.61L47.36 5.79999C46.91 5.51999 47.36 5.55999 47.04 5.29999C47.04 5.57999 47.17 6.05999 46.95 6.07999C46.56 5.75999 47.09 5.67999 46.61 5.52999L46.92 5.46999C46.2 5.06999 47.07 5.39999 46.32 4.93999C45.98 5.08999 46.26 5.4 45.92 5.54C46.07 5.79 46.24 5.80999 46.39 6.05999C46.39 6.74999 45.2 5.43999 45.45 6.15999C45.63 6.45999 46.07 6.92999 45.65 6.86999L45.29 6.40999C45.03 6.59999 45.76 7.12 45.29 7.09C45.17 6.89 45.29 6.76999 45.29 6.75999C44.81 6.59999 45.41 7.09999 45.29 7.21999L44.91 6.88999C44.72 7.18999 44.71 7.71999 44.51 8.05999C44.42 7.93999 44.35 7.77999 44.18 7.72999C44.02 8.25999 43.41 8.41999 42.86 8.50999L43.03 8.95C43.03 8.95 42.84 8.85999 42.81 8.75999C42.56 8.75999 43 8.97 43.05 9.16C43.1 9.35 42.78 9.07 42.73 8.93C42.73 9.41 42.61 10.14 42.05 10.02L42.05 9.88C41.73 9.93 42.44 10.75 41.98 10.61L41.98 10.52C41.44 10.77 41.24 11.52 40.47 11.28C40.82 11.81 39.85 11.43 40.4 12.13C39.87 12.01 39.83 11.83 39.3 11.9C39.18 11.9 39.51 12.44 39.46 12.61L39.16 12.26L39.31 12.76L38.87 12.41L38.87 12.59C38.9943 12.6102 39.1056 12.6785 39.18 12.78C39.18 13.08 38.56 12.88 38.4 12.71L38.25 13.35C38.1761 13.2302 38.1412 13.0905 38.15 12.95C38.23 13.5 37.8 12.61 37.88 13.11C37.9679 13.1962 38.0391 13.2979 38.09 13.41C38.0339 13.3844 37.9731 13.3708 37.9115 13.3702C37.8498 13.3696 37.7887 13.3819 37.7321 13.4064C37.6756 13.431 37.6248 13.4671 37.5831 13.5125C37.5414 13.5579 37.5097 13.6116 37.49 13.67L37.32 13.4C36.97 13.58 36.78 14.02 36.43 14.29C36.64 14.29 36.96 14.76 36.89 14.89L36.55 14.53C36.67 14.82 36.77 14.6 36.86 14.99C36.7 15.05 36.43 14.62 36.41 14.44L36.41 14.69C36.3268 14.5798 36.2532 14.4627 36.19 14.34C36.31 14.63 35.62 14.17 35.85 14.65L35.76 14.55C35.41 14.81 35.36 15.07 35.09 15.3C35.34 15.64 35.18 15.66 35.3 15.99C35 16.04 34.57 15.99 34.3 16.15C34.24 16.45 34.46 16.48 34.52 16.74C34.28 16.44 34.05 16.65 34.02 16.33C33.7553 16.5657 33.5614 16.8704 33.46 17.21C33.6 17.31 33.68 17.33 33.74 17.45C33.8 17.57 33.48 17.45 33.38 17.28C33.27 18.07 31.73 17.09 31.84 17.99L31.84 17.94L31.7 18.53C31.49 18.59 31.64 18.23 31.38 18.11C31.38 18.91 30.7 18.45 30.61 19.02C29.73 18.24 29.75 19.68 29.01 19.29L29.18 19.51C29.18 19.79 28.99 19.45 28.89 19.44C29.01 19.61 29.11 19.58 29.14 19.74C28.55 20.51 27.34 20.37 26.44 20.64C26.12 20.75 26.98 21.92 26.29 21.64L26.14 21.15C25.86 22.02 24.94 21.84 24.6 22.59C24.6 22.47 24.5 22.34 24.6 22.31C24.3 22.06 24.14 22.54 24.28 22.8C24.17 22.8 24.13 22.58 24 22.48C23.87 22.38 23.91 23.05 23.67 22.77C23.67 22.77 23.67 22.65 23.67 22.61C23.67 22.81 23.27 22.78 23.55 23.1C23.23 23.1 23.21 23.49 22.92 23.37C23.02 23.84 22.44 23.37 22.71 23.98C22.41 23.37 22.07 23.7 22.07 24.05C22.07 23.85 21.85 23.92 21.78 23.64C21.62 23.73 21.53 23.92 21.72 24.21C21.06 23.63 21.41 25.09 20.78 24.21C20.5119 24.7078 20.1753 25.1656 19.78 25.57C19.5 24.95 20.23 25.28 19.91 24.64C19.62 25.1 19.63 25.74 19.15 25.79C19 25.79 19.08 25.49 19.07 25.37C18.78 25.83 18.24 25.68 18.07 26.18C18.0454 26.1156 18.0454 26.0444 18.07 25.98C18.01 25.98 17.86 25.98 17.99 26.24L17.78 26.05C18.08 26.41 17.87 27.05 17.95 27.25C17.72 26.39 17.49 27.25 17.24 26.11C17.2058 26.2493 17.2273 26.3964 17.3 26.52C17.21 26.52 17.14 26.4 17.12 26.15C16.92 26.42 17.12 26.68 16.9 26.78C16.8655 26.6551 16.8388 26.5282 16.82 26.4C16.82 26.72 16.82 27.04 16.56 27.01C16.56 26.92 16.47 26.83 16.56 26.8C16.23 26.99 16.26 27.8 15.77 27.68C15.64 27.04 15.56 27.54 15.33 27.03L15.18 27.27L15.37 27.49C15.18 27.55 15.18 27.99 14.95 27.89L14.95 27.62L14.64 27.85L14.92 27.97C14.84 28.31 15.2 28.62 14.92 28.57C14.92 28.5 14.73 28.64 14.51 28.37C14.51 28.57 14.51 28.78 14.28 28.7C14.05 28.62 14.08 28.11 14.01 28.01C14.09 28.48 13.63 28.3 13.7 28.81C13.6745 28.6529 13.6239 28.501 13.55 28.36L13.62 28.74C13.49 28.66 13.45 28.61 13.38 28.39C13.1 28.39 13.72 29.02 13.3 28.85C13.3 28.85 13.3 28.77 13.3 28.69C12.94 28.69 12.8 29.15 12.45 29.08C12.17 28.58 12.65 28.86 12.39 28.45C12.03 28.7 11.79 29.45 11.39 29.45L11.49 29.45C11.7 30.22 11.06 29.18 10.98 29.6C10.9811 29.4807 10.9607 29.3622 10.92 29.25C10.6 29.25 10.43 29.63 10.09 30L10.09 29.79C9.87002 29.67 9.63002 29.79 9.43002 29.79C9.43002 30 9.33002 30 9.49002 30.26C8.59002 29.33 8.66002 31.26 7.88002 30.42C7.94002 30.42 7.97002 30.21 7.88002 30.22L7.53002 30.52C7.66002 30.84 7.64002 30.71 7.81002 30.94C7.81002 31.15 7.75002 31.34 7.64002 31.37C7.76002 31.09 7.48002 30.83 7.34002 30.67C7.34002 30.77 7.34002 30.89 7.43002 30.99C7.04002 30.46 7.60002 31.67 7.18002 31.36L7.18002 31.18C7.10002 31.3 7.06002 31.56 6.93002 31.55C6.77002 31.17 6.99002 31.33 6.93002 31.01C6.77002 31.08 6.81002 31.84 6.55002 31.5C6.55002 31.37 6.69002 31.34 6.73002 31.21C6.43002 30.81 6.45002 30.93 6.31002 30.89L5.97002 30.76L6.08002 30.87C6.16002 31.93 5.71002 31.17 5.61002 31.87C5.71002 31.17 5.61002 31.5 5.46002 31.06C5.35002 30.96 5.21002 30.85 5.20002 30.72C5.20002 31.11 4.91002 30.5 4.87002 31.08C4.82002 30.94 4.72002 31.08 4.65002 30.74C4.51002 30.9 4.76002 30.97 4.79002 31.15C4.66002 31.72 4.02002 30.73 3.79002 31.49C3.53002 31.84 3.59002 32.34 3.33002 32.65C3.29132 32.5652 3.27129 32.4732 3.27129 32.38C3.27129 32.2868 3.29132 32.1948 3.33002 32.11C3.11002 31.94 2.99002 32.01 2.88002 32.21C2.86644 32.0749 2.81438 31.9464 2.73002 31.84C2.61002 31.91 2.73002 32.38 2.55002 32.21C2.535 32.0103 2.535 31.8097 2.55002 31.61C2.44002 31.77 2.35002 32.07 2.23002 32.24C2.13002 32 2.23002 31.84 2.23002 31.67C2.11086 31.7514 2.01499 31.8625 1.95186 31.9922C1.88873 32.122 1.86051 32.266 1.87002 32.41L2.01002 32.52C1.95002 32.52 1.90002 32.19 1.93002 32.11C2.01002 31.76 2.18002 32.19 2.22002 32.33L2.13002 32.45C2.44002 33.26 2.55002 32.21 2.78002 32.2L2.78002 32.83L2.89002 32.27C2.98002 32.42 3.09002 32.75 3.00002 32.87C3.24002 33.13 3.09002 32.62 3.31002 32.87C3.3188 32.8852 3.32342 32.9024 3.32342 32.92C3.32342 32.9376 3.3188 32.9548 3.31002 32.97L3.43002 32.75C3.43002 32.89 3.56002 33.17 3.43002 33.11C3.80002 33.39 3.77002 32.54 4.00002 32.98C4.34002 32.68 3.93002 32.53 4.08002 31.98L4.57002 32.98L4.49002 32.53C4.49002 32.53 4.62002 32.53 4.65002 32.73C4.72002 32.39 4.58002 32.54 4.59002 32.23C4.89002 32.59 5.07002 31.9 5.30002 32.59C5.30002 32.24 5.05003 32.39 5.19003 32.09C5.46003 32.83 5.39002 31.9 5.66002 32.19C5.72002 32.6 5.49002 32.44 5.77002 32.74C5.69002 32.05 6.15002 32.74 6.26002 32.61C6.12002 32.08 6.52002 32.3 6.72002 32.05C6.72002 32.23 7.28002 32.2 7.57002 32.32L7.57002 32.41C7.46002 31.87 7.73002 31.9 7.87002 31.74C7.95217 31.9361 7.96969 32.1533 7.92002 32.36L8.08002 32.36C8.06695 32.2948 8.06917 32.2274 8.08652 32.1632C8.10387 32.099 8.13588 32.0397 8.18002 31.99L8.26002 32.39C8.47002 32.3 8.56002 31.8 8.92002 31.98C8.82002 31.6 8.38002 30.98 8.59002 30.69C8.66002 30.88 8.78002 31.22 8.73002 31.32C8.68002 31.42 8.73002 31.13 8.84002 31.2L8.84002 31.57C9.02002 31.67 8.84002 31.27 8.93002 31.26C9.02002 31.55 9.07002 31.44 9.13002 31.67C9.13002 31.67 9.00002 31.58 9.00002 31.67C9.09201 31.6889 9.1785 31.7284 9.25299 31.7855C9.32748 31.8427 9.38802 31.916 9.43002 32C9.37002 31.84 9.31002 31.62 9.38002 31.55C9.45002 31.48 9.57002 31.87 9.74002 31.97C9.74002 31.76 9.93002 31.91 9.80002 31.49C9.86002 31.49 9.94002 31.66 10 31.77C10 31.54 10.51 31.54 10.23 31.13C10.46 30.59 11.07 31.13 11.37 30.81L11.37 30.95C11.53 30.71 11.82 30.69 11.87 30.34C11.93 30.34 12.11 30.54 12.14 30.72C12.27 30.55 12.23 30.4 12.55 30.54C12.47 30.84 12.69 30.73 12.45 30.78C12.7 30.78 12.83 31.02 12.92 30.55C12.97 30.94 13.25 30.94 13.31 30.8L13.07 30.6C13.1113 30.5613 13.1602 30.5315 13.2135 30.5125C13.2669 30.4936 13.3236 30.4859 13.38 30.49L13.49 31.05C14.15 31.44 13.91 29.78 14.61 30.6C14.61 30.23 14.28 30.46 14.24 30.04C14.46 30.04 14.93 30.61 14.99 30.59C15.37 30.74 14.99 29.81 15.34 29.87C15.23 29.72 15.02 29.29 15.17 29.06C15.4 29.06 15.7 29.65 15.63 29.84C15.63 29.84 15.54 29.84 15.52 29.77C15.4839 29.8207 15.4689 29.8835 15.4783 29.9451C15.4876 30.0067 15.5205 30.0622 15.57 30.1L15.57 29.93C15.74 30.06 16.01 29.93 16.05 30.23C16.14 30.01 16.05 29.93 15.86 29.89C16.22 30.03 16.27 29.75 16.59 29.79C16.51 29.72 16.4 29.54 16.44 29.53C16.9 29.53 16.44 29.14 16.7 28.96C16.95 29.14 16.9 29.58 17.07 29.26C17.3 29.35 17.29 29.68 17.28 29.84C17.39 29.42 17.82 29.84 17.98 29.84L17.91 30.02C17.9224 29.9811 17.9445 29.9459 17.9743 29.9179C18.004 29.8899 18.0404 29.87 18.08 29.86L17.86 29.57C17.96 29.57 18.03 29.57 18.08 29.7C18.08 29.45 17.79 29.18 17.81 28.83C17.98 28.95 18.03 28.52 18.26 28.94C17.88 28.94 18.48 29.36 18.26 29.54C18.26 29.47 18.35 29.44 18.45 29.47C18.4589 29.4887 18.4635 29.5092 18.4635 29.53C18.4635 29.5508 18.4589 29.5712 18.45 29.59C18.92 29.85 18.37 29.04 18.68 28.92C18.75 29.18 18.96 29.35 18.98 29.28C19 29.21 18.74 28.9 18.77 28.66C19.05 28.77 18.92 28.43 19.03 28.41L18.88 28.41C18.81 28.15 18.88 28.14 19.02 28C19.12 28.19 18.96 28.19 19.02 28.25C19.02 27.76 19.56 28.54 19.64 28.16C19.82 28.28 19.86 28.61 20 28.68C20.09 28.27 20.41 28.89 20.53 28.52C20.31 28.23 20.34 28.31 20.36 27.91L20.06 28.34L20.06 27.74C19.94 27.79 19.9 28.07 19.8 28.05C19.8 27.72 19.8 27.81 19.65 27.57C20.04 27.98 19.84 27.13 20.18 27.36L20.56 28.17C21.01 28.38 20.87 27.51 21.34 27.53L21.15 27.45C21.05 27.1 21.36 27.29 21.42 27.1C21.5067 27.2824 21.6331 27.443 21.79 27.57C21.69 27.38 22.08 27.46 21.85 26.91L22.19 27.18C22.56 27.18 22.19 26.26 22.49 26.18C22.55 26.5 22.77 26.63 22.68 26.93C22.78 26.88 22.89 26.93 22.8 26.71C22.94 26.84 22.89 26.22 23.1 26.43C23.1 26.29 22.96 26.01 23.1 25.98C23.1293 26.0184 23.1498 26.0628 23.16 26.11C23.1 25.98 23.24 25.84 23 25.6C23.71 26.27 23.77 25.11 24.4 25.67C24.5532 25.4683 24.7313 25.2869 24.93 25.13C24.93 25.22 25 25.26 24.93 25.25C25.32 25.36 24.69 24.42 25.13 24.53C25.51 24.87 25.13 24.84 25.28 24.95C25.78 25.79 25.56 24.64 26.04 25.04L26.04 25.11C26.35 25.32 26.23 24.59 26.51 24.52C26.5276 24.5662 26.5512 24.6099 26.58 24.65C26.5353 24.2522 26.6504 23.853 26.9 23.54C27.01 23.91 26.9 23.78 27.13 24.09C27.2 23.98 26.79 23.57 26.94 23.35C27.1887 23.4877 27.4065 23.6749 27.58 23.9L27.39 24.04C27.76 24.44 27.64 23.87 27.79 23.89L27.89 24.1C28.16 23.86 27.89 23.35 28.2 23.19L28.08 23.06C27.96 22.45 28.4 23.25 28.35 22.77L28.71 23.25C28.7452 22.9064 28.8294 22.5697 28.96 22.25C29.032 22.6131 29.032 22.9869 28.96 23.35C29.0623 23.3011 29.1454 23.2194 29.1961 23.118C29.2468 23.0166 29.2622 22.9012 29.24 22.79C29.24 22.86 29.24 23.02 29.15 22.97C29.05 22.49 29.15 22.19 29.35 22.06C29.91 23.06 30.1 21.95 30.73 22.59C30.9 21.97 31.61 22.23 32.04 21.86C31.39 21.22 32.16 21.75 31.63 21.01C31.71 20.89 31.76 20.87 31.8 20.92L32.43 21.16C32.65 21.33 32.43 21.4 32.56 21.56C32.84 21.46 32.87 21.82 33.17 21.92C32.95 21.67 32.99 21.47 33.17 21.49L32.75 21.26C32.81 20.64 33.46 21.71 33.53 21.09L33.53 21.4C33.61 21.15 34.17 20.99 33.91 20.26C34 20.33 34.18 20.5 34.15 20.61C34.61 20.42 34.58 19.34 35.15 19.49L35.25 19.69C35.25 19.58 35.13 19.26 35.36 19.37C35.41 19.45 35.46 19.58 35.5 19.56C35.54 19.54 35.5 19.1 35.64 19.14L35.78 19.45C36.34 19.45 36.01 18.53 36.24 18.17C36.3434 18.3361 36.4933 18.4682 36.671 18.55C36.8488 18.6317 37.0466 18.6596 37.24 18.63L37.24 18.71C37.73 18.43 37.66 17.71 37.9 17.17C38.59 17.54 38.9 16.74 39.59 16.74C39.5078 16.6794 39.44 16.6014 39.3916 16.5115C39.3431 16.4215 39.3153 16.322 39.31 16.22C39.49 16.22 39.31 15.66 39.65 16.14C40.09 16.54 40.19 16.27 40.35 16.14L39.87 15.51C40.99 16.07 40.6 14.33 41.47 14.94C41.47 14.71 41.55 14.61 41.47 14.38L41.78 14.75C42.0843 14.6551 42.346 14.4571 42.52 14.19L42.66 14.48C42.86 14.34 42.08 13.36 42.23 13.2L42.69 13.64C43 13.37 43.69 13.49 43.59 12.79C43.69 12.86 43.78 13.05 43.78 13.05C43.93 12.93 44.62 12.86 43.98 12.26C44.37 12.68 44.33 12.02 44.32 11.68L44.57 12.05C44.34 11.54 44.25 11.42 44.33 11.14C44.42 11.14 44.6 11.35 44.47 11.33C44.77 11.33 44.32 10.93 44.65 10.92L44.78 11.16C44.95 11.04 44.84 10.94 44.71 10.64C44.58 10.34 45.08 10.45 45.36 10.7C45.22 10.51 45.09 10.21 45.26 10.2C45.3351 10.2613 45.3878 10.3457 45.41 10.44C45.87 10.44 45.41 9.72 45.91 9.84C45.9638 9.90523 46.0323 9.95666 46.11 9.98999C45.91 10.18 45.73 10.33 45.72 10.29C45.99 10.57 46.2 10.45 46.44 10.96C46.37 10.62 46.15 9.95999 46.44 9.95999L46.56 10.04C46.62 10.04 46.63 9.97999 46.56 9.89999C46.6371 9.91259 46.716 9.89465 46.78 9.84999C47.02 10.06 47.08 9.78999 47.17 9.71999C46.87 9.42999 47.02 9.36999 46.67 9.21999C46.67 9.21999 46.67 9.22 46.67 9.34C46.67 9.46 46.67 9.33999 46.67 9.39999C46.6173 9.47901 46.557 9.55269 46.49 9.61999C46.4 9.40999 46.34 9.21 46.6 9.29L46.22 8.7C46.75 9 47.22 9.00999 47.47 9.23999C47.55 8.82999 47.94 8.54999 47.52 7.83999C47.52 7.69999 47.76 7.91999 47.88 7.97999C48 8.03999 47.88 8.11999 47.88 8.21999C47.88 7.93999 48.23 7.74999 47.88 7.32999C48.24 7.32999 48.16 7.78999 48.32 7.47999L48.42 7.63C49.52 7.73 48.11 5.85999 49.42 6.07999C49.3481 6.08653 49.2765 6.06503 49.22 6.02C50.15 5.72 50.04 4.43999 51.17 4.31999C51.44 4.23999 51.17 3.99 51.08 3.7L51.46 3.95999L51.22 3.42999C51.14 2.91999 52.46 3.67999 52.22 2.86999L51.95 2.71999C52.1 2.63999 52.13 2.21999 52.39 2.45999C52.39 2.45999 52.17 2.21999 52.34 2.27999L52.52 2.41999L52.46 1.86999C52.78 1.73999 53.16 2.48999 53.46 2.17999C53.4351 1.85805 53.2885 1.55769 53.05 1.33999C53 1.33999 52.83 1.33999 52.64 1.22999L52.64 1.05C52.11 0.599996 51.64 0.0499956 51.01 0.0499956L51.19 0.509995L50.87 0.359993L50.99 0.179993C50.66 0.0699929 50.83 0.309993 50.93 0.499993C50.8237 0.420139 50.7006 0.365439 50.57 0.339997L50.94 0.949997C50.7 0.799997 50.58 0.519998 50.36 0.559998C50.53 0.839998 50.91 0.859997 50.94 1.13C50.62 1.02 50.44 0.829998 50.56 1.13C50.4466 1.07148 50.3605 0.971024 50.32 0.849999C50.4 1.08 50.18 1.15999 50.42 1.43999C50.04 1.28999 50.23 1.82999 49.73 1.43999C49.83 1.56999 49.99 1.93999 49.94 2.04999C49.46 1.37999 49.63 2.34999 49.01 1.75999C49.46 2.33999 48.9 2.39 49.01 2.86C49.01 2.81 48.91 2.71999 48.96 2.71999C48.81 2.79999 48.62 2.71999 48.46 2.71999C48.89 3.11999 48.83 3.38999 49.01 3.71999C48.46 3.48999 48.57 3.17999 48.12 2.86999C48.48 3.17999 48.26 3.42999 48.6 3.63999C48.3689 3.59811 48.1521 3.49834 47.97 3.34999C48.5 3.85999 47.97 3.52999 48.23 3.91999C47.82 3.83999 47.68 3.50999 47.69 3.81999C47.46 3.60999 47.4 3.27999 47.4 3.27999ZM44.56 8.11999L44.62 8.02L44.56 8.11999ZM44.24 8.45999C44.2948 8.42253 44.3451 8.37891 44.39 8.32999C44.5 8.41999 44.6 8.53999 44.56 8.55999C44.52 8.57999 44.37 8.49999 44.24 8.45999ZM46.99 9.82999C46.99 9.91999 46.9 9.82999 46.83 9.82999C46.8558 9.78957 46.876 9.74584 46.89 9.7V9.7C46.9256 9.74153 46.959 9.78493 46.99 9.82999V9.82999Z" fill="#FF55BC"/>
<path d="M46.69 9.34L46.6 9.34L46.67 9.45L46.69 9.34Z" fill="#FF55BC"/>
<path d="M38.98 12.14L39.05 12.22L39.02 12.12L38.98 12.14Z" fill="#FF55BC"/>
<path d="M7.30002 30.65C7.28972 30.6146 7.26877 30.5831 7.24002 30.56L7.30002 30.65Z" fill="#FF55BC"/>
<path d="M6.22003 30.87L6.03003 30.77C6.08537 30.8167 6.1502 30.8508 6.22003 30.87V30.87Z" fill="#FF55BC"/>
<path d="M5.35001 30.91C5.34356 30.9698 5.34356 31.0302 5.35001 31.09L5.35001 30.91Z" fill="#FF55BC"/>
<path d="M17.78 25.87C17.85 25.73 17.78 25.78 17.78 25.87V25.87Z" fill="#FF55BC"/>
<path d="M14.48 28.34C14.48 28.25 14.48 28.16 14.48 28.1C14.48 28.04 14.4 28.11 14.48 28.34Z" fill="#FF55BC"/>
<path d="M21.58 23.5L21.61 23.49L21.58 23.5Z" fill="#FF55BC"/>
<path d="M14.71 28.05C14.61 28 14.56 28.05 14.53 28.11C14.5 28.17 14.68 28.12 14.71 28.05Z" fill="#FF55BC"/>
<path d="M1.78003 31.63C1.78414 31.6532 1.78414 31.6769 1.78003 31.7L1.78003 31.63Z" fill="#FF55BC"/>
<path d="M1.71003 31.69L1.71003 31.75C1.71003 31.75 1.72003 31.74 1.71003 31.69Z" fill="#FF55BC"/>
<path d="M1.61002 31.88L1.68002 31.75C1.68002 31.75 1.61002 31.75 1.61002 31.88Z" fill="#FF55BC"/>
<path d="M2.88 31.55L2.88 31.4C2.87197 31.4497 2.87197 31.5003 2.88 31.55V31.55Z" fill="#FF55BC"/>
<path d="M3.20001 31.43C3.11001 31.43 2.92001 31.16 2.84001 31.28L2.84001 31.4C2.85001 31.17 3.19001 31.7 3.20001 31.43Z" fill="#FF55BC"/>
<path d="M5.07001 32.91L4.76001 32.91C4.85001 33.05 4.97001 33.25 4.85001 33.32C5.33001 33.66 4.69001 32.95 5.07001 32.91Z" fill="#FF55BC"/>
<path d="M6.00001 32.89C5.87001 33.01 6.07 33.12 6.09 33.21C6.14 33.05 6.15001 32.99 6.00001 32.89Z" fill="#FF55BC"/>
<path d="M12.24 30.91L12.36 31.27C12.45 31.18 12.31 31.13 12.24 30.91Z" fill="#FF55BC"/>
<path d="M12.72 28.61L12.53 28.43L12.6 28.78L12.72 28.61Z" fill="#FF55BC"/>
<path d="M14.37 30.9L14.34 30.97L14.48 30.76L14.37 30.9Z" fill="#FF55BC"/>
<path d="M24.4 26.2L24.14 25.8C24.11 25.91 24.34 26.39 24.4 26.2Z" fill="#FF55BC"/>
<path d="M28.31 23.44C28.48 23.62 28.67 23.68 28.62 23.44C28.52 23.46 28.33 23.36 28.31 23.44Z" fill="#FF55BC"/>
<path d="M40.46 15.85L40.49 16.04L40.54 15.82L40.46 15.85Z" fill="#FF55BC"/>
</g>
<defs>
<clipPath id="clip0">
<rect x="107.78" y="66.05" width="107.78" height="66.05" transform="rotate(180 107.78 66.05)" fill="white"/>
</clipPath>
</defs>
</svg>
