<svg width="108" height="67" xmlns="http://www.w3.org/2000/svg" viewBox="0 0 107.78 66.05"><defs><style>.cls-1{fill:#ff55bc;}</style></defs><title>Pink Arrow</title><g id="Layer_2" data-name="Layer 2"><g id="Layer_1-2" data-name="Layer 1"><path class="cls-1" d="M107.75,33.89c.06-.13,0-.43-.13-.37l-.12.5Z"/><path class="cls-1" d="M106.71,33a1.31,1.31,0,0,0-.29,1.12c.19-.48.23-.28.43-.84.16-.06.27.16.24.34.06-.12.24.12.33-.2-.2-.38-.45-.4-.73-.09A.53.53,0,0,1,106.71,33Z"/><path class="cls-1" d="M91.44,32l.1.06A.21.21,0,0,0,91.44,32Z"/><path class="cls-1" d="M82,31.55a.13.13,0,0,0,.11-.1C82,31.48,82,31.51,82,31.55Z"/><path class="cls-1" d="M80.37,31l.1,0C80.43,31,80.39,30.94,80.37,31Z"/><path class="cls-1" d="M91.44,32l-.25-.16C91.17,32,91.32,31.92,91.44,32Z"/><path class="cls-1" d="M104.58,34.12a.29.29,0,0,0,.14-.13l-.13,0A.22.22,0,0,1,104.58,34.12Z"/><path class="cls-1" d="M95.62,31.62h.08l.06-.2Z"/><path class="cls-1" d="M98.82,31.59c-.07,0-.1.4-.13.58a.45.45,0,0,1,.16-.29A1.09,1.09,0,0,0,98.82,31.59Z"/><path class="cls-1" d="M103.89,32.4l.09-.06Z"/><path class="cls-1" d="M93.33,31.49a.49.49,0,0,0,0-.15A.4.4,0,0,0,93.33,31.49Z"/><path class="cls-1" d="M3.71,33.38v-.07S3.69,33.38,3.71,33.38Z"/><path class="cls-1" d="M0,31.24l.05,0a1.93,1.93,0,0,0,0-.24Z"/><path class="cls-1" d="M77.42,30.4h0C77.51,30.36,77.47,30.37,77.42,30.4Z"/><path class="cls-1" d="M50.26,30.32c.3.38-.5.48,0,.9C50.17,31.06,50.64,30.57,50.26,30.32Z"/><path class="cls-1" d="M104.5,34.06h-.13A.14.14,0,0,0,104.5,34.06Z"/><path class="cls-1" d="M50.21,31.22h0l0,0Z"/><path class="cls-1" d="M70.6,30.55a.47.47,0,0,0,.07.19A.44.44,0,0,0,70.6,30.55Z"/><path class="cls-1" d="M75.67,31.23l-.12-.06A.27.27,0,0,0,75.67,31.23Z"/><path class="cls-1" d="M68,31.11c-.07,0-.09-.09-.19,0l0,.05C67.84,31.07,67.88,31,68,31.11Z"/><path class="cls-1" d="M65.21,31.08a.35.35,0,0,1,.05.08l.09,0Z"/><path class="cls-1" d="M12.05,33.3a1.68,1.68,0,0,1-.12-.38C12,33.22,11.56,33.32,12.05,33.3Z"/><path class="cls-1" d="M104.59,33.88c0,.11,0,.16-.09.18l.09,0A.29.29,0,0,0,104.59,33.88Z"/><path class="cls-1" d="M67.8,34.44l-.44-.07A1.84,1.84,0,0,0,67.8,34.44Z"/><path class="cls-1" d="M31.74,33.52l-.1,0A.09.09,0,0,0,31.74,33.52Z"/><path class="cls-1" d="M66.07,34.41a.74.74,0,0,0-.24-.29l-.06.1Z"/><path class="cls-1" d="M11.93,32.91h0Z"/><path class="cls-1" d="M9,33.87c.42,0,.21-.54.3-.85.5-.15.22.41.39.69.31-.14.55-.64.78-.62,0,.09.06.13,0,.24.33-.44,1,0,1.36-.56a.48.48,0,0,1,0,.14,3,3,0,0,1,0-.76c.19,0,.35-.34.42,0-.12,0-.13.13-.18.24l.19-.15c.17.52-.26.18-.27.56.38-.16.83-.59,1.12-.44.06.51-.68.17-.3.62l-.45-.2c.33.81-.27-.06,0,.81.59.15.67-.25,1.26-.1.14-.28,0-.41.1-.7.85-.49.64,1.29,1.27.62.17-.33.24-1,.67-.63l-.15.58c.57.06.34-.83.93-.43-.11.22-.45.18-.37.25.39.46.28-.32.58-.32l.06.51c.61-.07,1.29-.43,2-.51,0,.15-.16.31,0,.47a4.43,4.43,0,0,1,2.64.4l.32-.43c.08,0,.14.2.06.28.32.17,0-.28.17-.45s.24.26.12.39c.58-.37,1.63-.78,2.22-.3l-.12.13c.47.18.54-.9,1-.48l-.09.07c1,.21,2.13-.18,2.89.5.16-.63,1,.29,1.08-.59.57.45.4.6,1.21.91.21,0,.33-.55.6-.64v.47l.37-.48.18.55.26-.11a.39.39,0,0,1-.2-.35c.4-.2,1,.34,1,.58l.94-.38c0,.18-.18.25-.31.36.51-.46.09.49.55.07-.06-.11,0-.28.05-.37a1.11,1.11,0,0,0,1.12.18l-.08.31a22,22,0,0,0,2.23-.11c-.28-.15-.21-.7,0-.75l.09.49c.15-.3-.24-.19.07-.56.29.06.18.56,0,.72l.35-.17c0,.15-.07.22-.09.41.15-.3.6.5.82,0v.14C39,34.14,39.32,34,40,34c0-.42.26-.33.46-.66a4.71,4.71,0,0,0,1.52.45c.4-.21.12-.36.3-.61,0,.39.58.36.29.63a4.9,4.9,0,0,0,1.71-.36c-.09-.16-.19-.23-.14-.36s.35.17.32.35l0,0c1-.56,2.18,1.15,3,.36l0,0,.79-.41c.36.07-.22.29,0,.53.86-.63,1.34.11,2-.31.52,1.15,1.92,0,2.63.69l0-.27c.19-.26.22.15.36.22,0-.21-.2-.24-.08-.39,1.6-.3,3.28.44,4.91.7.6.08.36-1.37,1.11-.72l-.22.49c1.21-.58,2.46.05,3.65-.43-.07.11-.07.26-.19.25.25.37.92,0,.93-.26.19,0,0,.27.15.42s.64-.45.77-.09c0,.06-.08.11-.12.14.16-.17.76.06.61-.36.44.2.85-.17,1.2.08.23-.46.75.23.84-.42,0,.67.76.55,1,.24-.1.2.24.21.13.5.32,0,.61-.13.56-.48.58.82,1.2-.64,1.51.41a14.77,14.77,0,0,1,2.7-.73c0,.67-1,0-.92.76.81-.26,1.29-.84,2.09-.66.21.09-.12.29-.19.4.81-.26,1.56.09,2.29-.27,0,.06-.08.13-.16.18.15,0,.33.1.32-.2l-.14.08c-.22-.45.58-.93.61-1.16-.26.88.71.23.31,1.34A.44.44,0,0,0,77,33.7c.14.06.18.18,0,.42.51-.16.33-.49.79-.48,0,.15-.09.2-.14.38.23-.29.47-.58.86-.44,0,.09,0,.2-.1.2.67,0,1.16-.76,1.89-.47-.23.65.24.22.27.78l.4-.16-.15-.27c.34,0,.65-.39,1-.21l-.26.23.65-.1-.37-.21c.36-.29,0-.71.43-.55-.09.06.35,0,.52.34h0c.18-.18.36-.37.61-.22.06.18-.06.62,0,.74.17-.47.81-.12,1-.62a.92.92,0,0,0-.06.47l.15-.38c.16.13.18.19.15.42.48.08-.14-.71.43-.4,0,0,0,.09-.12.15.57.16,1.11-.23,1.64,0,.14.56-.47.13-.3.6.77-.09,1.59-.65,2.32-.5l-.13-.07c.11-.79.54.4.92,0-.09.06-.13.44-.1.35.5.14,1-.18,1.8-.42l-.1.21c.3.18.78.11,1.1.21.1-.2.28-.17.18-.47,1,1.18,1.89-.59,2.76.39-.11,0-.25.18-.17.18l.75-.18c0-.35-.09-.21-.25-.48a.61.61,0,0,1,.5-.36c-.34.22,0,.56.14.75,0-.11,0-.22,0-.33.39.62.08-.7.61-.27l0,.18c.2-.09.38-.33.6-.28.08.41-.22.19-.23.52.3,0,.6-.75.87-.35-.13.11-.31.11-.44.22.29.47.32.35.54.43h0l.51.22-.13-.13c.4-1,.78-.18,1.3-.85-.51.64-.09.37-.14.82.13.13.33.28.27.4.25-.36.4.3.75-.23,0,.14.25,0,.19.38.32-.11-.07-.26,0-.44.49-.49,1.13.62,1.83,0,.61-.28.73-.77,1.28-1,.19.24-.16.54-.16.54a.66.66,0,0,0,.82,0c-.06.12,0,.23.08.4.23,0,.16-.53.46-.31a2,2,0,0,1-.24.58c.28-.13.55-.4.83-.53.07.26-.18.39-.28.55.32-.11.82-.22.92-.62l-.2-.15c.12,0,.06.35,0,.42-.27.32-.39-.14-.4-.29l.2-.09c-.19-.86-.8.13-1.2.07l.18-.62-.42.51c-.09-.16-.14-.51.06-.6-.28-.31-.26.22-.5-.13a.08.08,0,0,1,0-.11l-.28.18c.06-.13,0-.44.13-.35-.5-.36-.82.46-1,0l0,0c-.7.2-.07.45-.6,1L101.84,32l-.08.46c-.07,0-.21-.06-.18-.24-.27.31,0,.2-.12.49-.34-.42-1,.18-1-.55-.13.35.32.28,0,.51-.1-.78-.43.13-.74-.23.1-.41.4-.19.09-.55-.2.68-.62-.16-.89,0,0,.55-.58.22-1,.4,0-.18-.84-.31-1.26-.52l0-.09c-.09.55-.52.44-.84.55a.69.69,0,0,1,.25-.6H95.7a.51.51,0,0,1-.36.32l.08-.41c-.39,0-.8.48-1.3.2,0,.38.39,1.07-.15,1.32,0-.21,0-.56.11-.65,0,0-.16.17-.25.08l.21-.34c-.22-.16-.12.29-.3.25,0-.29-.14-.21-.11-.45.05,0,.16.13.23,0a.8.8,0,0,1-.53-.46c0,.17,0,.4-.16.44-.39,0-.13-.36-.35-.52-.1.21-.35,0-.36.43-.12,0-.13-.21-.18-.33-.2.2-1,0-.72.52l0,0,0,0h0c-.67.43-1.37-.27-2-.09v-.15c-.4.17-.88.09-1.17.4-.11,0-.27-.27-.21-.45-.31.11-.34.28-.78,0,.31-.26-.1-.23.32-.19-.39-.13-.48-.37-.9,0,.15-.38-.29-.48-.48-.37l.27.27a1.21,1.21,0,0,1-.57,0l.1-.49c-.79-.62-1.46,1-2.05,0-.22.35.43.25.24.66-.37-.07-.75-.79-.86-.8-.5-.28-.48.73-1,.53a.63.63,0,0,1-.27.82.59.59,0,0,1-.21-.9.11.11,0,0,1,.13.11c.12-.07.27-.14.13-.34l0,.18c-.18-.18-.69-.17-.56-.46-.28.16-.13.29.08.38-.47-.26-.74,0-1.22-.19.07.1.14.31.06.3-.71-.23-.32.34-.8.41-.27-.28.11-.65-.38-.43-.3-.19-.06-.47.06-.62-.45.34-.82-.23-1.08-.3l.24-.14a.67.67,0,0,1-.37.08l.13.35c-.14-.06-.26-.06-.25-.21-.15.23.1.59-.19.91-.18-.19-.56.18-.61-.29.57.17-.06-.47.43-.54a.37.37,0,0,1-.35,0c0-.05,0-.09.06-.12-.54-.43-.26.53-.83.51.08-.26-.12-.51-.22-.45.23,0,.1.44-.11.65-.36-.22-.4.14-.59.12l.22.1c-.08.26-.26.23-.52.31,0-.21.23-.14.15-.24-.29.47-.64-.49-1-.18-.18-.18,0-.5-.17-.63-.44.34-.47-.37-.94-.09.13.36.16.27-.18.62l.77-.24-.5.51c.23,0,.49-.22.63-.15-.24.28-.21.2-.11.49-.3-.54-.63.31-1-.06l0-.89c-.55-.4-1,.45-1.69.21l.22.16c-.1.35-.44,0-.67.18,0-.29-.12-.4-.21-.59,0,.22-.52,0-.6.56l-.31-.39c-.57-.17-.67.83-1.22.72.17-.32-.07-.53.3-.75-.19,0-.35-.07-.36.14-.1-.19-.51.39-.68.11-.08.13-.11.44-.32.41a.29.29,0,0,1,0-.15c0,.15-.33.2-.15.53-.56-.93-1.59,0-2.08-.76a8.51,8.51,0,0,1-1.25.2c0-.09,0-.15.07-.12-.5-.28-.32.85-.89.53-.29-.48.3-.25.12-.43-.06-1-.69.12-1.07-.46l.1-.05c-.29-.34-.73.36-1.21.28a.35.35,0,0,0,0-.15,2.33,2.33,0,0,1-1.43.78c.15-.38.22-.2.14-.59-.21.06,0,.63-.37.73-.13-.21-.43-.4-.46-.81l.39,0c-.19-.54-.51,0-.71-.08l0-.24c-.6.07-.62.66-1.27.61l.07.18c-.36.58-.29-.34-.65.09l-.1-.59a5.66,5.66,0,0,1-1.24.67c.24-.44.73-.66,1-.91-.23,0-.78,0-.91.32.1-.06.21-.2.31-.11a1.24,1.24,0,0,1-1.13.67c.1-1.15-1.19-.31-1.51-1.2-.82.41-1.61-.21-2.56-.15.32.9-.28,0-.23.94-.22.05-.31,0-.33,0l-.66-.56c-.15-.27.22-.2.2-.41-.48-.07-.2-.39-.52-.64.07.33-.17.47-.44.34l.38.43c-.68.48-.57-.78-1.26-.3l.22-.29c-.35.17-1.29,0-1.64.71-.06-.11-.14-.36,0-.42-.83-.13-1.86.75-2.51.29l.07-.22c-.16.06-.28.41-.47.19,0-.1.07-.23,0-.24s-.42.39-.63.25l.18-.25c-.81-.3-1.26.6-1.94.74,0-.66-.63-.88-.94-1v-.09c-1-.1-1.62.52-2.5.77-.53-.73-1.84-.33-2.71-.74.13.12,0,.51-.19.57-.2-.13-.57.45-.53-.15h.07c-.14-.6-.57-.44-.9-.46l-.06.79c-.85-1.17-2.27.39-2.72-.65-.21.19-.47.19-.68.38l0-.42a3.72,3.72,0,0,0-1.58-.08l.15-.31c-.4,0-.53,1.22-.9,1.24l-.1-.63c-.7,0-1.4-.57-2.1,0,0-.09,0-.27.15-.3-.33,0-1.27-.44-1.17.43,0-.57-.72-.07-1.1.18l.06-.42c-.32.53-.34.68-.78.82-.11-.06-.09-.34.05-.23-.35-.22-.28.39-.71.16l.16-.26c-.36,0-.33.1-.53.41s-.69-.11-.74-.49c-.05.23-.25.53-.47.42a.31.31,0,0,1,.1-.27c-.61-.29-.91.47-1.32.06a.55.55,0,0,0-.07-.26,3.05,3.05,0,0,1,.83.08c0-.39-.38-.46-.06-1-.32.29-.86.91-1.24.73a.46.46,0,0,1-.05-.14l0,0a.22.22,0,0,0-.24.06.71.71,0,0,0-.31-.12c0-.32-.45-.18-.64-.2,0,.42-.24.35,0,.7,0,0,0-.05.17-.06l.08,0s0,0,0,0l.48,0c-.16.21-.32.39-.53.15-.1.27-.22.55-.28.68-.26-.59-.77-.92-.83-1.28-.6.23-1.4.14-1.78.92-.17.1-.19-.23-.26-.35.1-.08.22-.07.27-.18-.34.2-1,.07-1.09.62-.42-.26.25-.51-.33-.43l.08-.16c-1.14-.91-1.89,1.38-3.14.23.08.07.13.1.14.19-1.44-.52-3,.43-4.41-.38-.41-.17-.46.18-.71.45l-.08-.46-.43.52c-.61.38-1-1.12-1.8-.41l.09.3c-.27-.06-.87.17-.82-.18,0,.06-.09.32-.2.16v-.24l-.68.4c-.52-.18.1-.94-.66-1-.29.09-.82.68-.72.84a.39.39,0,0,1,.3.39l-.26.12c-.06.7-.27,1.41.36,1.9l.45-.42L1,33l-.38,0c.21.32.35,0,.5-.15a.64.64,0,0,0,.18.38l.45-.66c0,.27-.21.53.08.69.21-.31-.18-.62.16-.81.2.32.14.57.39.31a.35.35,0,0,1-.12.37c.22-.21.58-.08.7-.45.22.39.75-.1.72.57.07-.16.4-.52.6-.54-.38.78.76,0,.65.9.29-.71,1-.3,1.49-.69,0,.06-.08.17-.13.14.28.06.35.27.53.41,0-.59.47-.71.7-1.07.33.57-.21.68-.11,1.23,0-.48.59-.47.48-.87.25.36.22.18.34.67.06-.74.24-.12.46-.57.37.36.09.69.5.47C9.41,33.62,9,33.87,9,33.87Zm9.72-1.13h0l-.2,0Zm.82,0a1.83,1.83,0,0,0-.35,0c0-.14,0-.29.08-.28S19.46,32.62,19.58,32.75ZM17.9,29.8c.13-.06.17,0,.18.11l-.22.05s0,0,0,.05A.89.89,0,0,1,17.9,29.8Z"/><path class="cls-1" d="M17.66,30.35l-.06,0a.36.36,0,0,0,.08.09,1.12,1.12,0,0,1,.05-.13Z"/><path class="cls-1" d="M91.56,32h0s0,0,0,.06A.09.09,0,0,1,91.56,32Z"/><polygon class="cls-1" points="30.83 33.71 30.83 33.61 30.75 33.7 30.83 33.71"/><path class="cls-1" d="M96,33.54a.16.16,0,0,0,0,.11A.21.21,0,0,0,96,33.54Z"/><path class="cls-1" d="M98,33.66l.28.16A1.24,1.24,0,0,0,98,33.66Z"/><path class="cls-1" d="M99.45,33.89a.67.67,0,0,0,0-.18h0Z"/><path class="cls-1" d="M75.73,34.05l0,0C75.54,34.15,75.63,34.12,75.73,34.05Z"/><path class="cls-1" d="M82.8,33.17a1,1,0,0,1-.23.19C82.7,33.4,82.8,33.41,82.8,33.17Z"/><path class="cls-1" d="M67.85,34.44Z"/><path class="cls-1" d="M82.25,33.35a.26.26,0,0,0,.32,0A.4.4,0,0,0,82.25,33.35Z"/><path class="cls-1" d="M105.91,34.18l.08,0s0-.06,0-.07Z"/><path class="cls-1" d="M106,34.13l.08-.05S106,34.08,106,34.13Z"/><path class="cls-1" d="M106.25,34l-.17.1S106.21,34.1,106.25,34Z"/><path class="cls-1" d="M103.94,34l0,.16A.57.57,0,0,0,103.94,34Z"/><path class="cls-1" d="M103.34,34c.14,0,.36.33.56.24l0-.12C103.82,34.33,103.48,33.73,103.34,34Z"/><path class="cls-1" d="M100.86,32.06l.51.13c-.09-.16-.2-.38,0-.42C100.77,31.28,101.52,32.14,100.86,32.06Z"/><path class="cls-1" d="M99.31,31.81c.27-.08,0-.24,0-.33C99.15,31.62,99.11,31.66,99.31,31.81Z"/><path class="cls-1" d="M88,31.64l0-.38C87.87,31.31,88.07,31.41,88,31.64Z"/><polygon class="cls-1" points="85.86 33.59 86.06 33.84 86.16 33.49 85.86 33.59"/><polygon class="cls-1" points="84.63 30.84 84.72 30.79 84.37 30.93 84.63 30.84"/><path class="cls-1" d="M65.71,30.71l.05.47C65.9,31.1,65.94,30.57,65.71,30.71Z"/><path class="cls-1" d="M57.53,31.07c-.08-.23-.31-.39-.46-.16C57.26,31,57.44,31.13,57.53,31.07Z"/><polygon class="cls-1" points="33.05 29.95 33.21 29.8 32.9 29.93 33.05 29.95"/><path class="cls-1" d="M106.54,33.86c.06-.12.1-.41,0-.37l-.17.47Z"/><path class="cls-1" d="M106.15,32.82a2.1,2.1,0,0,0-.41,1c.21-.44.19-.24.43-.76.1,0,.12.19.06.36.06-.11.12.14.23-.15s-.17-.45-.39-.18A.84.84,0,0,1,106.15,32.82Z"/><path class="cls-1" d="M97.94,29.69l0,.08A.1.1,0,0,0,97.94,29.69Z"/><path class="cls-1" d="M93,27.58a.13.13,0,0,0,.1-.08S93,27.53,93,27.58Z"/><path class="cls-1" d="M92.33,26.73l0,.05C92.36,26.73,92.35,26.7,92.33,26.73Z"/><path class="cls-1" d="M97.94,29.69l-.09-.19C97.79,29.65,97.88,29.64,97.94,29.69Z"/><path class="cls-1" d="M104.69,33.7a.38.38,0,0,0,.11-.11l-.09,0Z"/><path class="cls-1" d="M100.32,30l0,0,.1-.19Z"/><path class="cls-1" d="M102.09,30.48s-.17.37-.23.55c.07-.17.12-.24.16-.26A1.37,1.37,0,0,0,102.09,30.48Z"/><path class="cls-1" d="M104.69,31.94l.07-.05Z"/><path class="cls-1" d="M99.11,29.57a1.3,1.3,0,0,1,0-.15A.4.4,0,0,0,99.11,29.57Z"/><path class="cls-1" d="M55.07,3.54l0,0S55.06,3.53,55.07,3.54Z"/><polygon class="cls-1" points="55.31 0.56 55.34 0.57 55.53 0.43 55.31 0.56"/><path class="cls-1" d="M91,25.56h0C91.07,25.55,91.05,25.55,91,25.56Z"/><path class="cls-1" d="M77.44,18.55c-.06.41-.51.24-.52.74C77,19.14,77.48,18.87,77.44,18.55Z"/><path class="cls-1" d="M104.66,33.63h-.08A.08.08,0,0,0,104.66,33.63Z"/><path class="cls-1" d="M76.92,19.29h0v0Z"/><path class="cls-1" d="M87.42,24.18c0,.07,0,.13,0,.18A1,1,0,0,0,87.42,24.18Z"/><path class="cls-1" d="M89.76,26l0-.08A.14.14,0,0,0,89.76,26Z"/><path class="cls-1" d="M85.82,24.06s0-.1-.08-.08a.11.11,0,0,0,0,.05S85.81,24,85.82,24.06Z"/><path class="cls-1" d="M84.44,23.33l0,.09h.06Z"/><path class="cls-1" d="M58.45,7.09a1.66,1.66,0,0,1,.23-.31C58.47,7,58.24,6.9,58.45,7.09Z"/><path class="cls-1" d="M104.74,33.47a.36.36,0,0,1-.08.16h0A.33.33,0,0,0,104.74,33.47Z"/><path class="cls-1" d="M84.25,27,84,26.82A.51.51,0,0,0,84.25,27Z"/><path class="cls-1" d="M66.85,15h-.07S66.81,15,66.85,15Z"/><path class="cls-1" d="M83.35,26.52a.88.88,0,0,0,0-.33l-.07.08Z"/><path class="cls-1" d="M58.68,6.77h0Z"/><path class="cls-1" d="M56.81,6.2c.15.19.48-.28.75-.45.31.11-.22.37-.36.63.23,0,.7-.2.78-.08s-.07.11-.18.16c.46-.15.4.41,1,.2a1,1,0,0,1-.08.11,5.48,5.48,0,0,1,.53-.54c.08.08.39-.09.16.19,0-.06-.15,0-.26.09l.2,0c-.32.43-.24,0-.52.27.27,0,.76-.06.77.17-.35.38-.4-.18-.57.3l0-.33c-.45.7-.07-.15-.57.57.13.36.45.12.58.47.26-.14.29-.31.55-.45.71,0-.66,1.16.09.95.31-.17.8-.59.73-.17l-.47.34c.2.28.73-.44.7.08-.21.11-.33-.06-.34,0-.16.48.35-.12.47,0l-.34.38c.31.2.85.22,1.19.44-.12.09-.28.15-.32.33.52.18.71.8.86,1.35l.44-.19s-.08.19-.17.22c0,.25.19-.19.38-.26s-.07.28-.21.33c.5,0,1.24.06,1.18.64l-.14,0c.08.32.83-.45.74,0l-.09,0c.3.54,1.05.68,1,1.47.48-.42.26.59.86,0,0,.55-.2.6,0,1.14.07.11.5-.3.68-.27l-.3.36.48-.24-.27.5h.19c0-.05,0-.24.13-.33.31,0,.22.61.07.8l.66.05c-.12.13-.23.12-.36.17.52-.18-.27.41.21.25,0-.11.18-.2.25-.27a.44.44,0,0,0,.41.53l-.23.23c.27.31.77.4,1.12.69,0-.22.34-.63.47-.59l-.26.42c.26-.19,0-.24.37-.42.1.15-.25.51-.42.58h.26c-.08.12-.16.15-.29.29.26-.19,0,.61.4.27l-.08.12c.36.28.63.28.93.49.26-.34.32-.17.61-.38.14.27.19.71.47.87.31,0,.27-.25.5-.39-.21.32.07.48-.23.6a1.93,1.93,0,0,0,1,.27c0-.16,0-.25.14-.34s.07.25,0,.39l0,0c.78-.15.4,1.67,1.23,1.27l0,0,.62-.1c.14.17-.27.17-.27.45.77-.25.61.51,1.18.38-.35,1.12,1,.55,1,1.39l.12-.24c.24-.16,0,.21.07.3.1-.18,0-.27.16-.35.95.24,1.45,1.33,2.15,2,.27.24.87-1.09.93-.31l-.36.36c.9-.14,1.24.76,2.1.64-.09.08-.16.21-.22.18,0,.38.47.27.61,0,.08.08-.1.25-.12.41s.55-.23.44.12c0,.06-.09.09-.12.1.16-.11.37.25.48-.16.14.3.53.07.59.39.34-.35.29.41.63-.15-.33.59.15.71.45.49-.15.16,0,.25-.16.47.17.08.39,0,.51-.28,0,.87.92-.28.63.73a6.81,6.81,0,0,1,1.75,0c-.31.6-.53-.18-.81.47.55,0,1-.45,1.39-.1.07.14-.19.24-.27.33.54,0,.81.43,1.35.27a.42.42,0,0,1-.16.13c.08,0,.14.17.25-.12l-.11,0c.07-.46.69-.72.79-.93-.48.75.29.37-.36,1.3a.59.59,0,0,0,.27-.33c0,.09,0,.21-.15.39.34,0,.38-.38.62-.26-.06.14-.13.17-.23.32.24-.22.48-.43.64-.22,0,.08-.07.19-.13.16.38.12.91-.44,1.19,0-.36.54,0,.25-.14.78l.28-.07v-.28c.19.08.51-.23.6,0l-.23.16.39,0-.12-.28c.3-.19.25-.66.44-.42-.07,0,.18.08.16.42h0c.16-.13.32-.27.41-.08s-.26.56-.28.68c.26-.4.49.05.78-.37a1.47,1.47,0,0,0-.2.43l.22-.33c0,.15,0,.21-.07.42.24.17.18-.69.38-.29,0,0,0,.08-.12.12.25.27.69,0,.9.29-.11.56-.29,0-.36.51.45.07,1.09-.3,1.45-.05l-.06-.08c.32-.73.17.47.5.19a1,1,0,0,0-.17.31c.24.22.64,0,1.14-.08l-.12.17c.1.23.4.25.54.4.12-.18.21-.11.24-.42.19,1.29,1.22-.23,1.42.83-.06,0-.19.13-.14.14l.47-.05c.07-.34,0-.22,0-.5s.27-.3.38-.27c-.26.16-.16.53-.14.74,0-.11.08-.21.1-.32,0,.66.24-.65.42-.17l-.07.17c.14-.06.31-.26.41-.17-.06.4-.17.14-.27.46.17,0,.54-.64.58-.21-.1.09-.2.06-.3.15,0,.5.08.39.18.49h0l.22.29,0-.14c.49-1,.48-.06.94-.64-.44.54-.14.35-.28.78,0,.14.11.31,0,.42.23-.31.15.35.48-.11,0,.14.14.05,0,.4.2-.06,0-.26.08-.43.4-.4.49.75,1.06.18.4-.19.59-.65,1-.81,0,.25-.22.49-.22.49.12.25.26.25.46.12a.73.73,0,0,0,0,.4c.14,0,.22-.49.33-.24a3.33,3.33,0,0,1-.26.54c.18-.1.4-.32.58-.41,0,.25-.18.35-.27.5.2-.07.51-.11.65-.49l-.08-.17c.07,0,0,.34-.11.4-.22.27-.18-.19-.16-.33l.14-.07c.08-.86-.48,0-.7-.07l.24-.59-.35.45c0-.17,0-.52.17-.58-.08-.34-.19.18-.25-.19a.13.13,0,0,1,0-.1l-.2.14c.07-.12.08-.43.16-.32-.19-.42-.57.34-.56-.14l0,0c-.44.1-.15.43-.58.88l.09-1.14-.16.43s-.1-.08,0-.25c-.23.27,0,.2-.19.46-.09-.44-.58.05-.43-.67-.16.32.11.31-.16.49.15-.78-.27.06-.35-.34.16-.37.27-.12.19-.52-.29.63-.3-.24-.48-.16-.15.52-.38.13-.67.23.06-.17-.38-.42-.55-.68l0-.08c-.2.51-.41.34-.61.4a1,1,0,0,1,.3-.54l-.16,0c-.09.15-.16.23-.29.26l.16-.38c-.22-.05-.57.34-.76,0-.14.36-.11,1.09-.48,1.24.06-.21.15-.55.25-.6s-.14.13-.16,0l.22-.29c-.08-.19-.15.25-.24.19.09-.28,0-.23.08-.45,0,0,0,.15.12.05a.64.64,0,0,1-.15-.53c0,.16-.13.38-.22.39s0-.37,0-.55c-.11.18-.18-.07-.32.35-.06,0,0-.23,0-.35-.17.15-.53-.12-.55.37l0,0h0c-.5.3-.66-.49-1.08-.43l0-.14c-.27.09-.51-.07-.77.18-.06,0-.06-.3,0-.46-.2.05-.28.2-.43-.11.25-.19,0-.24.24-.12-.17-.2-.13-.44-.5-.15.21-.32,0-.5-.12-.44l0,.31a.48.48,0,0,1-.31-.12l.23-.45c-.2-.73-1.13.67-1.09-.4-.24.28.14.31-.1.66-.18-.14-.12-.89-.18-.91-.16-.36-.51.58-.72.29,0,.18-.18.64-.45.71-.17-.14,0-.78.22-.87s0,.07,0,.12a.25.25,0,0,0,.19-.28l-.09.15c0-.2-.31-.29-.13-.53-.21.1-.18.24-.1.37-.15-.34-.39-.15-.58-.43,0,.11,0,.32-.08.3-.28-.37-.29.24-.57.2,0-.31.3-.57,0-.47-.08-.24.15-.45.27-.56-.37.22-.34-.39-.45-.51l.18-.08a.21.21,0,0,1-.22,0l-.08.36c0-.09-.1-.12,0-.25-.17.18-.18.57-.45.8,0-.21-.37.05-.21-.4.23.28.15-.45.44-.41-.08,0-.13,0-.18-.08a.16.16,0,0,1,.08-.11c-.11-.51-.34.44-.64.3.15-.23.14-.49.07-.46.12.05-.12.43-.32.57-.1-.28-.27.05-.36,0l.08.14c-.15.23-.23.15-.4.17.08-.19.18-.08.17-.18-.34.36-.13-.59-.47-.39,0-.21.2-.46.17-.61-.37.22-.09-.44-.45-.3-.08.36,0,.29-.34.52l.49,0-.47.35c.12.06.34-.08.39,0-.24.21-.19.13-.26.43.06-.57-.45.12-.49-.3l.38-.79c-.1-.5-.69.16-1-.21l0,.19c-.2.29-.25-.06-.43,0a1.38,1.38,0,0,0,.15-.59c-.09.2-.26-.14-.55.37V24.3c-.22-.28-.71.59-1,.36.23-.24.19-.49.49-.6-.1,0-.16-.14-.25,0,0-.19-.44.23-.4-.07-.1.1-.25.37-.35.3a.61.61,0,0,1,.07-.13c-.07.13-.26.09-.32.43.14-1-.83-.37-.71-1.21a2.62,2.62,0,0,1-.72-.15c0-.07.07-.13.09-.08-.12-.38-.56.66-.71.23.09-.5.28-.14.28-.35.42-.88-.41-.07-.33-.67l.07,0c0-.37-.54.13-.74-.06a.61.61,0,0,0,.07-.13,1.35,1.35,0,0,1-1.1.29c.26-.29.21-.11.36-.47-.13,0-.28.55-.54.52a2,2,0,0,1,.17-.83l.2.1c.17-.53-.25-.14-.31-.28l.13-.19c-.33-.11-.63.39-.92.17l-.06.17c-.47.4,0-.37-.37-.1l.25-.54a3.14,3.14,0,0,1-1,.23,3.08,3.08,0,0,1,1-.49.49.49,0,0,0-.61,0c.07,0,.21-.11.2,0-.38.31-.68.4-.9.25.64-1-.44-.59-.11-1.46-.62.11-.67-.65-1.15-.88-.33.85-.15-.07-.62.72-.14,0-.17-.06-.15-.12v-.66c.07-.27.21-.11.31-.28-.19-.21.12-.39.11-.69-.15.29-.34.34-.4.15l-.06.47c-.59.2.16-.82-.43-.63l.26-.17c-.26,0-.6-.4-1.17.08,0-.1.14-.34.25-.34-.32-.36-1.31,0-1.34-.55l.16-.16c-.11,0-.37.25-.33,0,.06-.07.16-.16.13-.19s-.42.18-.44,0l.23-.14c-.2-.51-.93.08-1.34,0A1,1,0,0,0,73,15.05l.06-.07c-.37-.39-1-.12-1.59-.22.2-.76-.64-.88-.78-1.5a.68.68,0,0,1-.44.39c0-.17-.54.16-.15-.3l0,0c.31-.52,0-.54-.11-.67l-.53.59c.36-1.2-1.25-.51-.78-1.47-.22.08-.33,0-.55.05l.28-.31a1.24,1.24,0,0,0-.63-.63l.26-.17c-.15-.17-1,.73-1.2.62l.37-.52c-.32-.25-.23-.94-.9-.78.07-.06.2-.19.26-.16-.12-.14-.23-.81-.77-.12.38-.42-.26-.32-.59-.29l.31-.28c-.5.27-.6.37-.89.31,0-.08.19-.28.17-.15,0-.3-.38.18-.41-.15l.25-.13c-.13-.16-.21-.05-.51.1s-.21-.34,0-.64c-.18.15-.48.3-.49.14a.45.45,0,0,1,.22-.17c-.05-.44-.7,0-.58-.47a.52.52,0,0,0,.14-.21c.19.2.33.38.29.38.27-.27.16-.48.66-.73-.33.08-1,.31-1,0l.08-.11,0,0c0-.06-.06-.07-.13,0a.41.41,0,0,0,0-.21c.21-.24,0-.3-.12-.39-.29.31-.34.16-.5.5,0,0,0,0,.12,0h.06l0,0,.21.17c-.21.09-.4.16-.32-.09l-.59.37c.31-.53.33-1,.56-1.24-.4-.07-.66-.45-1.38,0-.14,0,.08-.24.15-.35s.13,0,.23,0c-.28,0-.45-.35-.88,0,0-.34.46-.25.16-.43l.16-.08c.21-1.08-1.75.17-1.4-1.13a.37.37,0,0,1-.09.19c-.17-1-1.51-.94-1.43-2.09,0-.28-.31-.07-.61,0L58,2.23l-.56.15c-.51,0,.48-1.17-.36-1l-.2.24c0-.16-.45-.27-.16-.47-.06,0-.28.16-.2,0L56.68,1l-.56,0c0-.33.76-.55.53-.91a1.3,1.3,0,0,0-.92.22c0,.06,0,.22-.19.37l-.19,0c-.57.42-1.2.77-1.35,1.36l.5-.07-.21.28L54.13,2c-.17.29.1.17.31.12a.79.79,0,0,0-.22.32l.68-.23c-.19.2-.49.26-.5.48.31-.1.4-.47.68-.45-.16.3-.39.44-.08.38a.54.54,0,0,1-.34.18c.25,0,.29.21.62,0-.22.35.36.27-.16.68.15-.06.55-.15.64-.08-.74.34.25.37-.43.88.64-.34.61.24,1.09.2-.05,0-.16.08-.15,0,.06.16-.07.34-.1.5.45-.37.72-.27,1.09-.41-.3.52-.6.36-1,.77.35-.32.59-.06.84-.37a1.38,1.38,0,0,1-.36.59c.57-.47.19,0,.61-.19-.12.4-.47.5-.15.53C57.14,6.18,56.81,6.2,56.81,6.2Zm4.83,3.25h0l-.1-.06Zm.34.33a.91.91,0,0,0-.13-.16c.09-.11.21-.21.23-.17S62,9.64,62,9.78ZM63.34,7c.09,0,0,.08,0,.15l-.13-.05,0,0Z"/><path class="cls-1" d="M62.86,7.3h0l0,.1.11-.08Z"/><path class="cls-1" d="M98,29.78h0s0,0,0,.06Z"/><polygon class="cls-1" points="66.31 14.8 66.38 14.72 66.29 14.76 66.31 14.8"/><path class="cls-1" d="M100,32a.21.21,0,0,0,0,.11A.21.21,0,0,0,100,32Z"/><path class="cls-1" d="M101.05,32.35l.12.19A.69.69,0,0,0,101.05,32.35Z"/><path class="cls-1" d="M101.83,32.8l.07-.17h0Z"/><path class="cls-1" d="M88.66,28.55a0,0,0,0,0,0,0C88.51,28.59,88.58,28.59,88.66,28.55Z"/><path class="cls-1" d="M92.83,29.24a1.05,1.05,0,0,1-.2.14C92.69,29.43,92.74,29.46,92.83,29.24Z"/><polygon class="cls-1" points="84.27 27.01 84.27 27 84.25 26.99 84.27 27.01"/><path class="cls-1" d="M92.46,29.3c0,.11.1.11.17.08S92.54,29.27,92.46,29.3Z"/><path class="cls-1" d="M105.43,33.92l0,0a.64.64,0,0,1,0-.07Z"/><path class="cls-1" d="M105.49,33.88l.06,0S105.51,33.84,105.49,33.88Z"/><path class="cls-1" d="M105.67,33.76l-.12.08S105.62,33.88,105.67,33.76Z"/><path class="cls-1" d="M104.36,33.46l0,.14A.72.72,0,0,0,104.36,33.46Z"/><path class="cls-1" d="M104,33.42c.07,0,.13.36.26.3l0-.12C104.2,33.81,104.15,33.18,104,33.42Z"/><path class="cls-1" d="M103.09,31.24l.24.19c0-.17,0-.4.12-.4C103.23,30.47,103.43,31.4,103.09,31.24Z"/><path class="cls-1" d="M102.3,30.76c.16,0,.06-.23.09-.31C102.26,30.56,102.22,30.59,102.3,30.76Z"/><path class="cls-1" d="M96.19,28.82l.14-.36C96.2,28.48,96.28,28.6,96.19,28.82Z"/><polygon class="cls-1" points="94.35 30.24 94.37 30.51 94.55 30.2 94.35 30.24"/><polygon class="cls-1" points="94.64 27.43 94.7 27.39 94.47 27.45 94.64 27.43"/><path class="cls-1" d="M84.86,23.13l-.19.44C84.78,23.53,85,23.07,84.86,23.13Z"/><path class="cls-1" d="M80.59,21.28c.07-.23,0-.42-.15-.27C80.52,21.1,80.51,21.31,80.59,21.28Z"/><polygon class="cls-1" points="69.69 12.7 69.86 12.64 69.65 12.63 69.69 12.7"/><path class="cls-1" d="M107,33.86c0-.13-.08-.41-.15-.33l.05.49Z"/><path class="cls-1" d="M106.19,33.11a2.09,2.09,0,0,0,.09,1.13c0-.49.06-.3,0-.88.07-.08.18.11.21.3,0-.14.16.07.14-.25-.2-.34-.35-.32-.43,0A1,1,0,0,1,106.19,33.11Z"/><path class="cls-1" d="M97.49,34.76l.08,0A.1.1,0,0,0,97.49,34.76Z"/><path class="cls-1" d="M92.24,36.4s0-.08,0-.12S92.22,36.37,92.24,36.4Z"/><path class="cls-1" d="M91.16,36.25h.07S91.16,36.21,91.16,36.25Z"/><path class="cls-1" d="M97.49,34.76l-.18-.1C97.35,34.82,97.42,34.75,97.49,34.76Z"/><path class="cls-1" d="M105.29,34.56a.26.26,0,0,0,0-.15l-.06.07Z"/><path class="cls-1" d="M99.68,33.63h0l0-.2Z"/><path class="cls-1" d="M101.45,33s0,.4.09.58c0-.17,0-.26,0-.3S101.49,33.15,101.45,33Z"/><path class="cls-1" d="M104.49,33l0-.07Z"/><path class="cls-1" d="M98.38,33.94l-.07-.14A.46.46,0,0,0,98.38,33.94Z"/><path class="cls-1" d="M58.11,64.77l-.06,0S58.1,64.78,58.11,64.77Z"/><polygon class="cls-1" points="55.14 65.08 55.14 65.04 54.96 64.89 55.14 65.08"/><path class="cls-1" d="M89.36,36.45h0C89.39,36.39,89.37,36.41,89.36,36.45Z"/><path class="cls-1" d="M75.52,44.32c.36.21,0,.56.48.76C75.89,45,75.84,44.4,75.52,44.32Z"/><path class="cls-1" d="M105.23,34.52l-.07,0S105.22,34.54,105.23,34.52Z"/><path class="cls-1" d="M76,45.08h0l0,0Z"/><path class="cls-1" d="M85.84,38.36a1,1,0,0,0,.12.15A1,1,0,0,0,85.84,38.36Z"/><path class="cls-1" d="M88.78,37.63l-.09,0A.08.08,0,0,0,88.78,37.63Z"/><path class="cls-1" d="M84.72,39.57s-.09-.06-.11,0l0,0C84.64,39.56,84.65,39.53,84.72,39.57Z"/><path class="cls-1" d="M83.31,40.32l.06.06,0,0Z"/><path class="cls-1" d="M61.05,61.1a1.94,1.94,0,0,1-.33-.2C61,61.09,60.89,61.33,61.05,61.1Z"/><path class="cls-1" d="M105.24,34.33c0,.11,0,.16,0,.19l0,0A.46.46,0,0,0,105.24,34.33Z"/><path class="cls-1" d="M86.17,42.56l-.24,0A.4.4,0,0,0,86.17,42.56Z"/><path class="cls-1" d="M69.06,53.42v.08S69.08,53.47,69.06,53.42Z"/><path class="cls-1" d="M85.32,43a.82.82,0,0,0-.26-.19.65.65,0,0,0,0,.11Z"/><path class="cls-1" d="M60.72,60.9Z"/><path class="cls-1" d="M60.38,62.77c.16-.16-.33-.44-.54-.69.07-.32.39.17.67.29,0-.22-.28-.66-.18-.75.08.06.12.06.18.16-.2-.43.35-.42.09-1l.12.08a4.46,4.46,0,0,1-.58-.5c.07-.08-.12-.38.17-.16-.05,0,0,.14.11.24l0-.19c.45.28,0,.24.32.5,0-.28-.13-.76.09-.78.39.32-.14.4.34.55l-.31.06c.72.4-.15.07.6.53.34-.15.06-.46.4-.6-.15-.25-.32-.27-.47-.52,0-.69,1.19.62.94-.1-.18-.3-.62-.77-.2-.71l.36.46c.26-.19-.47-.71,0-.68.12.2,0,.32,0,.33.48.16-.12-.34,0-.46l.38.33c.19-.3.2-.83.4-1.17.09.12.16.28.33.33.16-.53.77-.69,1.32-.78l-.17-.44s.19.09.22.19c.25,0-.19-.21-.24-.4s.27.09.32.23c0-.48.12-1.21.68-1.09l0,.14c.32-.05-.39-.87.07-.73l0,.09c.54-.25.74-1,1.51-.76-.35-.53.62-.15.07-.85.53.12.57.3,1.1.23.12,0-.21-.54-.16-.71l.3.35-.15-.5.44.35,0-.18a.48.48,0,0,1-.31-.19c0-.3.62-.1.78.07l.15-.64a.68.68,0,0,1,.1.4c-.08-.55.35.34.27-.16a1,1,0,0,1-.21-.3.44.44,0,0,0,.6-.26l.17.27c.35-.18.54-.62.89-.89-.21,0-.53-.47-.46-.6l.34.36c-.12-.29-.22-.07-.31-.46.16-.06.43.37.45.55l0-.25a2.41,2.41,0,0,1,.22.35c-.12-.29.57.17.34-.31l.09.1c.35-.26.4-.52.67-.75-.25-.34-.09-.36-.21-.69.3-.05.73,0,1-.16.06-.3-.16-.33-.22-.59.24.3.47.09.5.41a1.91,1.91,0,0,0,.56-.88c-.14-.1-.22-.12-.28-.24s.26,0,.36.17v0c.11-.79,1.65.19,1.54-.71v.05l.14-.59c.21-.06.06.3.32.42,0-.8.68-.34.77-.91.88.78.86-.66,1.6-.27l-.17-.22c0-.28.19.06.29.07-.12-.17-.22-.14-.25-.3.59-.77,1.8-.63,2.7-.9.32-.11-.54-1.28.15-1l.15.49c.28-.87,1.2-.69,1.54-1.44,0,.12.1.25,0,.28.3.25.46-.23.32-.49.11,0,.15.22.28.32s.09-.57.33-.29c0,0,0,.12,0,.16,0-.2.4-.17.12-.49.32,0,.34-.39.63-.27-.1-.47.48,0,.21-.61.3.61.64.28.64-.07,0,.2.22.13.29.41.16-.09.25-.28.06-.57.66.58.31-.88.94,0a6.05,6.05,0,0,1,1-1.36c.28.62-.45.29-.13.93.29-.46.28-1.1.76-1.15.15,0,.07.3.08.42.29-.46.83-.31,1-.81a.28.28,0,0,1,0,.2c.06,0,.21,0,.08-.26L90,40c-.3-.36-.09-1-.17-1.2.23.86.46,0,.71,1.14a.55.55,0,0,0-.06-.41c.09,0,.16.12.18.37.2-.27,0-.53.22-.63a3.14,3.14,0,0,1,.08.38c0-.32,0-.64.26-.61,0,.09.09.18,0,.21.33-.19.3-1,.79-.88.13.64.21.14.44.65l.15-.24-.19-.22c.19-.06.19-.5.42-.4l0,.27.31-.23-.28-.12c.08-.34-.28-.65,0-.6,0,.07.19-.07.41.2h0c0-.2,0-.41.23-.33s.2.59.27.69c-.08-.47.38-.29.31-.8a1.48,1.48,0,0,0,.15.45l-.07-.38c.13.08.17.13.24.35.28,0-.34-.63.08-.46,0,0,0,.08,0,.16.36,0,.5-.46.85-.39.28.5-.2.22.06.63.36-.25.6-1,1-1l-.1,0c-.21-.77.43.27.51-.15a1,1,0,0,0,.06.35c.32,0,.49-.38.83-.75v.21c.22.12.46,0,.66,0,0-.21.1-.21-.06-.47.9.93.83-1,1.61-.16-.06,0-.09.21,0,.2l.35-.3c-.13-.32-.11-.19-.28-.42,0-.21.06-.4.17-.43-.12.28.16.54.3.7,0-.1,0-.22-.09-.32.39.53-.17-.68.25-.37l0,.18c.08-.12.12-.38.25-.37.16.38-.06.22,0,.54.16-.07.12-.83.38-.49,0,.13-.14.16-.18.29.3.4.28.28.42.32h0l.34.13-.11-.11c-.08-1.06.37-.3.47-1-.1.7,0,.37.15.81.11.1.25.21.26.34,0-.39.29.22.33-.36.05.14.15,0,.22.34.14-.16-.11-.23-.14-.41.13-.57.77.42,1-.34.26-.35.2-.85.46-1.16a.65.65,0,0,1,0,.54c.22.17.34.1.45-.1a.71.71,0,0,0,.15.37c.12-.07,0-.54.18-.37a4,4,0,0,1,0,.6c.11-.16.2-.46.32-.63.1.24,0,.4,0,.57a.83.83,0,0,0,.36-.74l-.14-.11c.06,0,.11.33.08.41-.08.35-.25-.08-.29-.22l.09-.12c-.31-.81-.42.24-.65.25l0-.63-.11.56c-.09-.15-.2-.48-.11-.6-.24-.26-.09.25-.31,0a.1.1,0,0,1,0-.1l-.12.22c0-.14-.13-.42,0-.36-.37-.28-.34.57-.57.13l0,0c-.34.3.07.45-.08,1l-.49-1,.08.45s-.13,0-.16-.2c-.07.34.07.19.06.5-.3-.36-.48.33-.71-.36,0,.35.25.2.11.5-.27-.74-.2.19-.47-.1-.06-.41.17-.25-.11-.55.08.69-.38,0-.49.13.14.53-.26.31-.46.56,0-.18-.56-.15-.85-.27v-.09c.11.54-.16.51-.3.67a1,1,0,0,1-.05-.62l-.16,0a.43.43,0,0,1-.1.37l-.08-.4c-.21.09-.3.59-.66.41.1.38.54,1,.33,1.29-.07-.19-.19-.53-.14-.63s0,.19-.11.12v-.37c-.18-.1,0,.3-.09.31-.09-.29-.14-.18-.2-.41,0,0,.13.09.13,0a.62.62,0,0,1-.43-.33c.06.16.12.38.05.45s-.19-.32-.36-.42c0,.21-.19.06-.06.48-.06,0-.14-.17-.2-.28,0,.23-.51.23-.23.64l0,0s0,0,0,0h0c-.23.54-.84,0-1.14.32l0-.14c-.16.24-.45.26-.5.61-.06,0-.24-.2-.27-.38-.13.17-.09.32-.41.18.08-.3-.14-.19.1-.24-.25,0-.38-.24-.47.23-.05-.39-.33-.39-.39-.25l.24.2a.41.41,0,0,1-.31.11L94.29,35c-.66-.39-.42,1.27-1.12.45,0,.37.33.14.37.56-.22,0-.69-.57-.75-.55-.38-.15,0,.78-.35.72.11.15.32.58.17.81-.23,0-.53-.59-.46-.78,0,0,.09,0,.11.07a.24.24,0,0,0-.05-.33l0,.17c-.17-.13-.44,0-.48-.3-.09.22,0,.3.19.34-.36-.14-.41.14-.73.1.08.07.19.25.15.26-.46,0,0,.39-.26.57-.25-.18-.2-.62-.37-.3-.23-.09-.22-.42-.21-.58-.11.42-.54,0-.7,0l.07-.18a.24.24,0,0,1-.17.16l.22.29c-.1,0-.17,0-.22-.13,0,.25.29.52.27.87-.17-.12-.22.31-.45-.11.38,0-.22-.42,0-.6,0,.07-.09.1-.19.07a.14.14,0,0,1,0-.12c-.47-.26.08.55-.23.67-.07-.26-.28-.43-.3-.36s.24.38.21.62c-.28-.11-.15.23-.26.25l.15,0c.07.26,0,.27-.14.41-.1-.19.06-.19,0-.25,0,.49-.54-.29-.62.09-.18-.12-.22-.45-.36-.52-.09.41-.41-.21-.53.16.22.29.19.21.17.61l.3-.43,0,.6c.12-.05.16-.33.26-.31,0,.33,0,.24.15.48-.39-.41-.19.44-.53.21l-.38-.81c-.45-.21-.31.66-.78.64l.19.08c.1.35-.21.16-.27.35a1.35,1.35,0,0,0-.37-.47c.1.19-.29.11-.06.66l-.34-.27c-.37,0,0,.92-.3,1-.06-.32-.28-.45-.19-.75-.1.05-.21,0-.12.22-.14-.13-.09.49-.3.28,0,.14.14.42,0,.45a.33.33,0,0,1-.06-.13c.06.13-.08.27.16.51-.71-.67-.77.49-1.4-.07a3,3,0,0,1-.53.54c0-.09-.07-.13,0-.12-.39-.11.24.83-.2.72-.38-.34,0-.31-.15-.42-.5-.84-.28.31-.76-.09l0-.07c-.31-.21-.19.52-.47.59a.57.57,0,0,0-.07-.13,1.51,1.51,0,0,1-.32,1.11c-.11-.37,0-.24-.23-.55-.07.11.34.52.19.74a2.08,2.08,0,0,1-.64-.55l.19-.14c-.37-.4-.25.17-.4.15l-.1-.21c-.27.24,0,.75-.31.91l.12.13c.12.61-.32-.19-.27.29l-.36-.48a3.62,3.62,0,0,1-.25,1,2.83,2.83,0,0,1,0-1.1.51.51,0,0,0-.28.56c0-.07,0-.23.09-.18.1.48,0,.78-.2.91-.56-1-.75.11-1.38-.53-.17.62-.88.36-1.31.73.65.64-.12.11.41.85-.08.12-.13.14-.17.09l-.63-.24c-.22-.17,0-.24-.13-.4-.28.1-.31-.26-.61-.36.22.25.18.45,0,.43l.42.23c-.06.62-.71-.45-.78.17l0-.31c-.08.25-.64.41-.38,1.14-.09-.07-.27-.24-.24-.35-.46.19-.43,1.27-1,1.12l-.1-.2c0,.11.12.43-.11.32-.05-.08-.1-.21-.14-.19s0,.46-.14.42L72,46.6c-.56,0-.23.92-.46,1.28a1,1,0,0,0-1-.46l0-.08c-.49.28-.42,1-.66,1.54-.69-.37-1,.43-1.69.43a.69.69,0,0,1,.28.52c-.18,0,0,.56-.34.08l0,0c-.44-.4-.54-.13-.7,0l.48.63c-1.12-.56-.73,1.18-1.6.57,0,.23-.08.33,0,.56L66,51.3a1.37,1.37,0,0,0-.74.56l-.14-.29c-.2.14.58,1.12.43,1.28l-.46-.44c-.31.27-1,.15-.9.85C64.09,53.19,64,53,64,53c-.15.12-.84.19-.2.79-.39-.42-.35.24-.34.58L63.21,54c.23.51.32.63.24.91-.09,0-.27-.21-.14-.19-.3,0,.15.4-.18.41L63,54.89c-.17.12-.06.22.07.52s-.37.19-.65-.06c.14.19.27.49.1.5a.44.44,0,0,1-.15-.24c-.46,0,0,.72-.5.6a.53.53,0,0,0-.2-.15c.2-.19.38-.34.39-.3-.27-.28-.48-.16-.72-.67.07.34.29,1,0,1l-.12-.08v0c-.06,0-.07.06,0,.14a.3.3,0,0,0-.22.05c-.24-.21-.3.06-.39.13.3.29.15.35.5.5,0,0,0,0,0-.12s0,0,0-.06l0,0a1.46,1.46,0,0,1,.18-.22c.09.21.15.41-.11.33l.38.59c-.53-.3-1-.31-1.25-.54-.08.41-.47.69-.05,1.4,0,.14-.24-.08-.36-.14s0-.14,0-.24c0,.28-.35.47,0,.89-.36,0-.28-.46-.44-.15l-.1-.15c-1.1-.1.31,1.77-1,1.55a.28.28,0,0,1,.2.06c-.93.3-.82,1.58-1.95,1.7-.27.08,0,.33.09.62l-.38-.26.24.53c.08.51-1.24-.25-1,.56l.27.15c-.15.08-.18.5-.44.26,0,0,.22.24.05.18l-.18-.14.06.55c-.32.13-.7-.62-1-.31a1.27,1.27,0,0,0,.41.84c.05,0,.22,0,.41.11V65c.53.45,1,1,1.63,1l-.18-.46.32.15-.12.18c.33.11.16-.13.06-.32a.88.88,0,0,0,.36.16l-.37-.61c.24.15.36.43.58.39-.17-.28-.55-.3-.58-.57.32.11.5.3.38,0a.49.49,0,0,1,.24.28c-.08-.23.14-.31-.1-.59.38.15.19-.39.69,0-.1-.13-.26-.5-.21-.61.48.67.31-.3.93.29-.45-.58.11-.63,0-1.1,0,.05.1.14.05.14.15-.08.34,0,.5,0-.43-.4-.37-.67-.55-1,.55.23.44.54.89.85-.36-.31-.14-.56-.48-.77a1.39,1.39,0,0,1,.63.29c-.53-.51,0-.18-.26-.57.41.08.55.41.54.1C60.32,62.44,60.38,62.77,60.38,62.77Zm2.84-4.84h0l-.06.1Zm.32-.34a.87.87,0,0,0-.15.13c-.11-.09-.21-.21-.17-.23S63.41,57.55,63.54,57.59Zm-2.75-1.37c0-.09.09,0,.16,0a.53.53,0,0,0-.06.13l0,0A1.55,1.55,0,0,1,60.79,56.22Z"/><path class="cls-1" d="M61.09,56.71s0,0,0,0l.09,0-.07-.11Z"/><path class="cls-1" d="M97.58,34.81h0l0,.05Z"/><polygon class="cls-1" points="68.8 53.91 68.73 53.83 68.76 53.93 68.8 53.91"/><path class="cls-1" d="M100.48,35.4a.18.18,0,0,0,.06.09Z"/><path class="cls-1" d="M101.56,35.18l.19.1A.5.5,0,0,0,101.56,35.18Z"/><path class="cls-1" d="M102.43,35.14a.84.84,0,0,0,0-.18h0Z"/><path class="cls-1" d="M90,40.18l0,0C89.93,40.32,90,40.27,90,40.18Z"/><path class="cls-1" d="M93.3,37.71c0,.09,0,.18,0,.24S93.38,37.94,93.3,37.71Z"/><polygon class="cls-1" points="86.2 42.55 86.2 42.55 86.17 42.56 86.2 42.55"/><path class="cls-1" d="M93.07,38c.1.05.15,0,.18-.06S93.1,37.93,93.07,38Z"/><path class="cls-1" d="M106,34.42h0a.2.2,0,0,1,0-.07Z"/><path class="cls-1" d="M106.07,34.36l0-.06S106.06,34.31,106.07,34.36Z"/><path class="cls-1" d="M106.17,34.17l-.07.13S106.17,34.3,106.17,34.17Z"/><path class="cls-1" d="M104.9,34.5l0,.15A.47.47,0,0,0,104.9,34.5Z"/><path class="cls-1" d="M104.58,34.62c.09,0,.28.27.36.15l0-.12C104.93,34.88,104.59,34.35,104.58,34.62Z"/><path class="cls-1" d="M102.71,33.14l.31,0c-.09-.14-.21-.34-.09-.41C102.45,32.39,103.09,33.1,102.71,33.14Z"/><path class="cls-1" d="M101.78,33.16c.13-.12-.07-.23-.09-.32C101.64,33,101.63,33.06,101.78,33.16Z"/><path class="cls-1" d="M95.54,35.14l-.12-.36C95.33,34.87,95.47,34.92,95.54,35.14Z"/><polygon class="cls-1" points="95.06 37.44 95.25 37.62 95.18 37.27 95.06 37.44"/><polygon class="cls-1" points="93.41 35.15 93.44 35.08 93.3 35.29 93.41 35.15"/><path class="cls-1" d="M83.38,39.85l.26.4C83.67,40.14,83.44,39.66,83.38,39.85Z"/><path class="cls-1" d="M79.47,42.61c-.17-.18-.36-.24-.31,0C79.26,42.59,79.45,42.69,79.47,42.61Z"/><polygon class="cls-1" points="67.32 50.2 67.29 50.01 67.24 50.23 67.32 50.2"/></g></g></svg>