<svg xmlns="http://www.w3.org/2000/svg" viewBox="0 0 97.04 4.86"><defs><style>.cls-1{fill:#1d1d1d;}</style></defs><g id="Layer_2" data-name="Layer 2"><g 
data-name="Layer 1"><path class="cls-1" d="M97,3.42c0-.12,0-.42-.11-.36l-.1.5Z"/><path class="cls-1" d="M96.07,2.51a1.4,1.4,0,0,0-.25,1.11c.16-.47.2-.27.38-.84.14-.06.24.16.22.34,0-.13.22.11.29-.2-.18-.39-.41-.4-.65-.08A.47.47,0,0,1,96.07,2.51Z"/><path class="cls-1" d="M82.31,1.73l.09.06A.15.15,0,0,0,82.31,1.73Z"/><path class="cls-1" d="M73.79,1.46a.11.11,0,0,0,.09-.11C73.82,1.38,73.77,1.42,73.79,1.46Z"/><path class="cls-1" d="M72.33.91l.09,0S72.35.87,72.33.91Z"/><path class="cls-1" d="M82.31,1.73l-.23-.16C82.07,1.74,82.2,1.7,82.31,1.73Z"/><path class="cls-1" d="M94.17,3.7a.26.26,0,0,0,.12-.13l-.11.05S94.17,3.67,94.17,3.7Z"/><path class="cls-1" d="M86.07,1.33h.07a1.17,1.17,0,0,0,0-.2Z"/><path class="cls-1" d="M89,1.25c-.06,0-.09.41-.11.59,0-.17.08-.26.14-.29A1.89,1.89,0,0,0,89,1.25Z"/><path class="cls-1" d="M93.52,2l.08-.05Z"/><path class="cls-1" d="M84,1.24a.49.49,0,0,0,0-.15A.77.77,0,0,0,84,1.24Z"/><path class="cls-1" d="M3.36,4.41a.22.22,0,0,1,0-.08S3.33,4.4,3.36,4.41Z"/><path class="cls-1" d="M0,2.32l0,0c0-.08,0-.16,0-.24Z"/><path class="cls-1" d="M69.67.37h0C69.75.33,69.71.34,69.67.37Z"/><path class="cls-1" d="M45.22.68c.28.38-.45.49,0,.9C45.15,1.42,45.57.93,45.22.68Z"/><path class="cls-1" d="M94.1,3.65a.48.48,0,0,1-.12,0A.16.16,0,0,0,94.1,3.65Z"/><path class="cls-1" d="M45.19,1.58h0l0,0Z"/><path class="cls-1" d="M63.53.62a.69.69,0,0,0,.07.19A.64.64,0,0,0,63.53.62Z"/><path class="cls-1" d="M68.1,1.22,68,1.17A.17.17,0,0,0,68.1,1.22Z"/><path class="cls-1" d="M61.16,1.22c-.06,0-.08-.09-.17,0l0,.05C61.05,1.18,61.09,1.15,61.16,1.22Z"/><path class="cls-1" d="M58.69,1.22a.41.41,0,0,0,.05.09l.07,0Z"/><path class="cls-1" d="M10.86,4.2a2.38,2.38,0,0,1-.11-.38C10.79,4.12,10.42,4.23,10.86,4.2Z"/><path class="cls-1" d="M94.17,3.47a.35.35,0,0,1-.07.18l.08,0C94.18,3.56,94.19,3.5,94.17,3.47Z"/><path class="cls-1" d="M61.06,4.55l-.39-.07A1.18,1.18,0,0,0,61.06,4.55Z"/><path class="cls-1" d="M28.59,4.14l-.09.05S28.56,4.19,28.59,4.14Z"/><path class="cls-1" d="M59.5,4.55a.75.75,0,0,0-.22-.3s0,.06,0,.11Z"/><path class="cls-1" d="M10.75,3.82Z"/><path class="cls-1" d="M8.16,4.82c.38,0,.18-.54.26-.86.44-.16.21.41.36.69.28-.14.49-.65.7-.63,0,.09,0,.12,0,.24.29-.44.87,0,1.21-.58a.48.48,0,0,1,.05.14,2.59,2.59,0,0,1-.05-.76c.16,0,.31-.35.37,0-.1,0-.11.14-.16.25l.18-.16c.15.52-.24.18-.24.57.34-.17.74-.6,1-.46.06.51-.61.18-.26.63l-.41-.2c.31.81-.25-.05,0,.81.53.15.6-.26,1.13-.11.12-.29,0-.42.08-.7.76-.51.6,1.28,1.15.6.15-.34.21-1,.6-.65l-.13.58c.51.06.29-.83.83-.44-.09.23-.4.19-.32.26.35.45.24-.33.51-.33l.06.51c.55-.08,1.16-.45,1.77-.54,0,.15-.14.31,0,.47a3.6,3.6,0,0,1,2.39.36l.28-.44c.07,0,.12.2.05.29.29.16,0-.28.16-.45s.21.25.11.38c.51-.37,1.45-.8,2-.33l-.1.13c.42.18.47-.9.86-.49l-.08.07c.91.2,1.92-.21,2.61.46.13-.64.9.28,1-.6.52.43.37.59,1.1.89.2,0,.29-.56.53-.65v.46l.33-.48.17.55.23-.12c-.09,0-.19-.2-.18-.34.35-.21.86.32.87.56L30,4c0,.19-.16.25-.27.37.44-.47.08.49.49.05-.06-.1,0-.27,0-.37a.91.91,0,0,0,1,.17l-.07.32c.62.08,1.31-.16,2-.15-.25-.15-.2-.7,0-.75l.08.49c.13-.31-.21-.19.06-.56.26.06.17.56,0,.72l.32-.17c0,.14-.06.22-.08.4.13-.3.55.5.74,0l0,.14c.69,0,1-.16,1.58-.18,0-.43.23-.33.4-.67a3.91,3.91,0,0,0,1.38.43c.35-.21.1-.36.26-.61,0,.38.53.35.27.62a3.91,3.91,0,0,0,1.53-.39c-.08-.15-.18-.22-.13-.35s.32.16.3.34l0,0c.86-.57,2,1.12,2.66.32l0,0,.71-.42c.32.07-.2.29,0,.53.76-.64,1.21.09,1.83-.33.49,1.13,1.73-.08,2.38.64l0-.27c.16-.26.2.16.32.22,0-.21-.18-.24-.07-.39,1.43-.32,3,.39,4.43.63.54.07.31-1.38,1-.74L53,4.6c1.09-.59,2.23,0,3.29-.48-.06.12-.07.26-.17.26.22.36.83,0,.83-.27.17,0,0,.26.14.41s.57-.46.69-.1c0,.06-.06.12-.1.14.14-.17.68.05.54-.37.4.2.76-.18,1.08.06.21-.46.68.23.75-.43,0,.68.7.55.95.23-.08.2.22.21.12.5.29,0,.56-.14.51-.49.53.81,1.06-.65,1.36.39a12.45,12.45,0,0,1,2.42-.77c0,.68-.85.07-.82.78.73-.28,1.15-.86,1.88-.7.18.09-.11.29-.17.41.73-.28,1.41.06,2.06-.31,0,.07-.08.13-.14.19.13,0,.29.1.28-.21l-.12.08c-.21-.45.5-.93.53-1.17-.22.88.64.22.29,1.34a.44.44,0,0,0,.17-.41c.13.06.17.18,0,.41.46-.16.3-.49.71-.48,0,.14-.08.2-.13.38.21-.29.43-.58.78-.46,0,.09,0,.21-.09.21.6-.05,1-.78,1.69-.5-.2.65.22.22.26.78L73,3.85l-.14-.27c.31,0,.59-.4.86-.22l-.24.23.59-.1-.33-.22c.31-.28,0-.7.38-.55-.09.06.31,0,.47.34h0c.16-.18.31-.37.54-.23a5.91,5.91,0,0,1,0,.74c.16-.47.73-.13.93-.63a.9.9,0,0,0-.05.47L76.09,3c.14.13.16.18.14.42.43.07-.14-.71.38-.4,0,0,0,.08-.11.14.52.16,1-.24,1.48,0,.14.56-.42.13-.26.61.69-.1,1.42-.68,2.08-.54l-.12-.07c.09-.79.49.4.83,0a.67.67,0,0,0-.09.36c.46.12.93-.2,1.62-.45l-.09.2c.27.19.71.11,1,.2.08-.2.25-.17.15-.47.89,1.17,1.7-.62,2.49.35-.1,0-.23.18-.15.18l.67-.19c0-.35-.09-.21-.23-.48a.57.57,0,0,1,.44-.36c-.3.23,0,.55.14.75,0-.11,0-.23,0-.33.35.61.06-.7.54-.29l0,.19c.18-.1.35-.34.54-.29.08.4-.19.19-.2.52.27,0,.54-.76.78-.36-.11.11-.28.11-.39.23.26.47.3.35.49.42h0l.46.21-.12-.12c.34-1,.69-.19,1.15-.88-.44.65-.07.38-.11.83.12.13.3.27.25.39.22-.36.36.29.67-.24,0,.14.23,0,.18.38.28-.12-.07-.26,0-.44.43-.5,1,.61,1.64-.08.54-.28.64-.77,1.14-1,.17.23-.13.53-.13.53a.53.53,0,0,0,.73,0c-.05.13,0,.24.08.4.21,0,.14-.53.41-.32a2.6,2.6,0,0,1-.21.59c.25-.13.49-.41.74-.54.06.26-.15.39-.24.56.28-.12.73-.24.82-.64l-.18-.14c.1,0,0,.34,0,.42-.24.31-.35-.14-.36-.29l.18-.09C95,2,94.5,3,94.14,2.93l.15-.62-.37.52c-.08-.16-.13-.51,0-.61-.26-.3-.23.23-.46-.12a.1.1,0,0,1,0-.11l-.25.19c0-.13,0-.44.11-.35-.45-.36-.73.47-.9,0l0,0c-.63.21-.06.45-.53,1l-.32-1.13-.06.46a.19.19,0,0,1-.17-.23c-.24.31,0,.2-.1.49-.31-.42-.86.2-.93-.53-.11.34.3.27,0,.51-.1-.79-.39.13-.68-.23.09-.4.36-.19.08-.55-.18.68-.56-.15-.8,0,0,.55-.52.23-.93.41,0-.18-.76-.3-1.13-.5V1.37c-.07.55-.46.45-.74.56a.71.71,0,0,1,.21-.6h-.26a.5.5,0,0,1-.32.33l.07-.41c-.36,0-.71.48-1.17.21,0,.38.36,1.07-.12,1.32,0-.2,0-.56.09-.64,0,0-.14.17-.23.08l.2-.35c-.21-.15-.11.29-.28.26,0-.3-.12-.21-.1-.45,0,0,.15.13.21,0A.78.78,0,0,1,84,1.24c0,.17,0,.4-.13.43-.36,0-.12-.35-.33-.5-.08.2-.31,0-.32.43-.1,0-.12-.21-.16-.33-.18.2-.85.06-.64.53l0,0,0,0h0c-.6.44-1.24-.25-1.84-.06V1.64c-.36.17-.79.1-1,.42-.1,0-.24-.27-.2-.45-.27.11-.3.28-.69,0,.27-.26-.1-.23.28-.19-.36-.13-.44-.37-.81,0a.3.3,0,0,0-.44-.37l.25.27a1,1,0,0,1-.52,0l.09-.5c-.72-.6-1.3,1-1.85,0-.19.35.39.25.22.65-.33-.06-.67-.78-.78-.78-.45-.28-.42.73-.9.54.06.18.12.65-.23.82-.33-.07-.41-.75-.2-.89s.12,0,.11.1.25-.14.12-.33l0,.18C73.79,1,73.34,1,73.44.74c-.25.17-.1.29.08.39-.42-.26-.66,0-1.1-.18.07.09.13.3.06.3-.64-.22-.28.34-.72.42-.24-.28.09-.65-.34-.42-.27-.19-.06-.48,0-.62-.4.34-.75-.23-1-.29L70.7.2a.54.54,0,0,1-.33.08l.12.35c-.13-.06-.23-.06-.23-.21-.13.24.1.59-.15.91-.17-.18-.5.2-.56-.27.52.16-.06-.48.38-.56a.29.29,0,0,1-.31,0,.12.12,0,0,1,0-.13c-.5-.42-.23.54-.74.52.06-.26-.12-.5-.2-.44.2,0,.09.44-.09.64-.33-.2-.36.16-.54.13l.2.1c-.07.27-.23.23-.46.32,0-.21.21-.15.13-.24-.26.47-.58-.48-.93-.17-.17-.18,0-.5-.16-.62-.4.35-.44-.36-.85-.08.12.36.14.27-.16.62L66.56.9l-.44.52c.21,0,.44-.23.56-.16-.21.29-.19.2-.09.5-.28-.54-.56.31-.89-.05V.82c-.49-.4-.88.45-1.52.23l.21.16c-.09.35-.4,0-.6.19a1.06,1.06,0,0,0-.2-.59c0,.22-.47,0-.53.57L62.78,1c-.52-.16-.59.84-1.09.74.15-.32-.07-.53.26-.76-.17,0-.31-.06-.32.15-.09-.19-.46.4-.61.12-.07.13-.09.44-.28.41a.3.3,0,0,1,0-.14c0,.14-.29.2-.13.52-.51-.92-1.43.07-1.87-.72a6.18,6.18,0,0,1-1.13.21c0-.09,0-.14.06-.11-.45-.28-.28.85-.8.54-.26-.48.28-.26.11-.44-.07-1-.62.13-1-.44L56.1,1c-.27-.34-.65.36-1.09.3a.5.5,0,0,0,0-.15,2.12,2.12,0,0,1-1.28.8c.13-.38.19-.2.11-.59-.19.05,0,.62-.32.73-.12-.21-.39-.39-.43-.81l.36,0c-.18-.53-.46,0-.65-.07l0-.24c-.54.08-.55.67-1.13.63l.06.17c-.32.59-.27-.32-.58.11l-.1-.59A4.93,4.93,0,0,1,50,2c.21-.44.65-.66.93-.92-.21,0-.71,0-.82.33.09,0,.19-.2.27-.11a1.1,1.1,0,0,1-1,.69C49.43.81,48.28,1.67,48,.77c-.73.43-1.45-.18-2.3-.11.3.89-.25,0-.2.94-.2.06-.27,0-.29,0L44.59,1c-.15-.27.19-.2.17-.41-.44-.07-.18-.39-.47-.63.06.33-.15.47-.4.34l.35.43c-.61.49-.53-.77-1.14-.29l.19-.29c-.31.17-1.16,0-1.46.73-.06-.1-.13-.35,0-.42-.76-.11-1.68.78-2.26.33l.06-.22c-.14.06-.25.42-.42.19,0-.09.05-.22,0-.23s-.37.39-.56.26l.16-.25c-.73-.3-1.12.61-1.74.76a1.07,1.07,0,0,0-.86-1V.27c-.85-.08-1.45.55-2.24.8-.49-.71-1.66-.3-2.45-.7.12.12,0,.52-.16.58-.19-.13-.51.46-.48-.14H31c-.14-.6-.52-.44-.81-.45l-.05.79c-.78-1.15-2,.42-2.46-.61-.19.2-.42.19-.6.39V.52A3.16,3.16,0,0,0,25.62.46l.13-.31c-.37,0-.46,1.23-.79,1.25l-.1-.63c-.64,0-1.27-.55-1.9,0,0-.1,0-.28.13-.3-.29,0-1.15-.43-1,.44,0-.57-.65-.06-1,.19l.05-.42c-.29.54-.3.68-.7.83-.09-.05-.08-.33.05-.23-.32-.22-.25.4-.64.18L20,1.22c-.33,0-.3.11-.48.42s-.62-.1-.67-.48c-.05.23-.22.54-.42.43a.39.39,0,0,1,.08-.28c-.54-.28-.81.49-1.18.08a.46.46,0,0,0-.07-.25A2.53,2.53,0,0,1,18,1.2c0-.38-.35-.45-.07-1-.28.29-.76.92-1.1.74a.46.46,0,0,1,0-.14l0,0c-.08,0-.15,0-.22.06A.58.58,0,0,0,16.3.73c0-.32-.4-.17-.58-.19,0,.42-.21.35,0,.7,0,0,0-.05.15-.07s.06,0,.08,0,0,0,0,0l.44,0c-.14.21-.28.39-.48.16-.09.27-.19.55-.24.68-.24-.59-.7-.91-.77-1.27-.53.24-1.25.16-1.59,1-.15.1-.17-.23-.23-.35s.19-.07.24-.18c-.3.2-.9.08-1,.63-.38-.25.21-.51-.31-.42l.07-.17c-1-.88-1.68,1.41-2.83.28.08.07.12.1.14.19-1.31-.5-2.69.47-4-.32-.37-.16-.41.19-.63.46l-.08-.45-.38.52c-.54.38-.94-1.11-1.63-.39l.09.31C2.55,1.71,2,2,2.05,1.6c0,0-.08.31-.17.16V1.52l-.61.4c-.47-.17.08-.94-.61-1C.4,1-.07,1.63,0,1.79a.37.37,0,0,1,.27.38L.06,2.3C0,3-.16,3.71.41,4.2l.4-.43.13.34-.34,0c.19.32.31,0,.45-.16a.71.71,0,0,0,.16.38l.4-.67c0,.27-.18.54.08.69.19-.31-.17-.61.13-.81.19.31.13.57.36.3a.37.37,0,0,1-.11.37c.2-.21.53-.09.63-.46.2.39.68-.1.66.56.06-.16.35-.52.53-.55-.33.8.68.05.6.9C4.73,4,5.38,4.36,5.82,4c0,0-.08.17-.12.13.25.06.32.28.48.41,0-.59.42-.72.62-1.08.31.56-.18.69-.08,1.23,0-.48.52-.47.42-.87.23.35.2.17.32.66,0-.74.21-.13.4-.58.34.36.09.69.46.47C8.49,4.56,8.16,4.82,8.16,4.82ZM16.9,3.55h0l-.18,0Zm.73,0a1.63,1.63,0,0,0-.32,0c0-.15,0-.3.08-.29S17.52,3.42,17.63,3.54ZM16.08.62c.12-.06.16,0,.17.11a1.15,1.15,0,0,0-.2.05s0,0,0,0S16.06.68,16.08.62Z"/><path class="cls-1" d="M15.87,1.17s0,0,0,0l.07.09a.65.65,0,0,0,0-.13Z"/><path class="cls-1" d="M82.42,1.8h0l0,.06A.09.09,0,0,1,82.42,1.8Z"/><polygon class="cls-1" points="27.77 4.35 27.77 4.24 27.7 4.34 27.77 4.35"/><path class="cls-1" d="M86.46,3.25a.24.24,0,0,0,.05.1A.23.23,0,0,0,86.46,3.25Z"/><path class="cls-1" d="M88.2,3.34l.25.15A1.24,1.24,0,0,0,88.2,3.34Z"/><path class="cls-1" d="M89.55,3.55a1.41,1.41,0,0,0,0-.18h0Z"/><path class="cls-1" d="M68.2,4.05h0C68,4.15,68.11,4.11,68.2,4.05Z"/><path class="cls-1" d="M74.55,3.06a1.26,1.26,0,0,1-.2.2C74.46,3.29,74.55,3.3,74.55,3.06Z"/><path class="cls-1" d="M61.1,4.55Z"/><path class="cls-1" d="M74.05,3.25a.23.23,0,0,0,.3,0A.35.35,0,0,0,74.05,3.25Z"/><path class="cls-1" d="M95.37,3.74l.06,0a.15.15,0,0,1,0-.07Z"/><path class="cls-1" d="M95.44,3.69l.07,0S95.45,3.64,95.44,3.69Z"/><path class="cls-1" d="M95.66,3.54l-.15.1S95.63,3.66,95.66,3.54Z"/><path class="cls-1" d="M93.59,3.55l0,.15A.49.49,0,0,0,93.59,3.55Z"/><path class="cls-1" d="M93.05,3.59c.13,0,.32.33.5.23l0-.12C93.48,3.93,93.17,3.33,93.05,3.59Z"/><path class="cls-1" d="M90.79,1.7l.46.12c-.08-.16-.19-.38,0-.42C90.7.92,91.39,1.77,90.79,1.7Z"/><path class="cls-1" d="M89.39,1.46c.24-.07,0-.23,0-.32C89.25,1.28,89.21,1.32,89.39,1.46Z"/><path class="cls-1" d="M79.25,1.46l0-.38C79.09,1.13,79.27,1.23,79.25,1.46Z"/><polygon class="cls-1" points="77.31 3.45 77.49 3.69 77.58 3.33 77.31 3.45"/><polygon class="cls-1" points="76.16 0.71 76.25 0.66 75.93 0.8 76.16 0.71"/><path class="cls-1" d="M59.13.85l.06.47C59.31,1.24,59.34.71,59.13.85Z"/><path class="cls-1" d="M51.78,1.33c-.09-.24-.29-.39-.42-.16C51.53,1.21,51.69,1.39,51.78,1.33Z"/><polygon class="cls-1" points="29.72 0.56 29.87 0.4 29.59 0.54 29.72 0.56"/></g></g></svg>