<svg xmlns="http://www.w3.org/2000/svg" viewBox="0 0 73.76 52.2"><defs><style>.cls-1{fill:#ff55bc;}</style></defs><g id="Layer_2" data-name="Layer 2"><g id="Layer_1-2" data-name="Layer 1"><path class="cls-1" d="M73.75,1.25c-.07-.11-.29-.31-.3-.22l.31.39Z" transform="translate(0 -0.69)"/><path class="cls-1" d="M72.78.91a2.75,2.75,0,0,0,.69.89c-.27-.4-.12-.27-.46-.73,0-.09.2,0,.32.17-.07-.11.15,0,0-.25s-.42-.15-.29.16A1.23,1.23,0,0,1,72.78.91Z" transform="translate(0 -0.69)"/><path class="cls-1" d="M67.46,5h.08S67.48,5,67.46,5Z" transform="translate(0 -0.69)"/><path class="cls-1" d="M64.32,7.68a.11.11,0,0,0,0-.11S64.28,7.65,64.32,7.68Z" transform="translate(0 -0.69)"/><path class="cls-1" d="M63.43,7.78h0S63.41,7.74,63.43,7.78Z" transform="translate(0 -0.69)"/><path class="cls-1" d="M67.46,5l-.18,0C67.38,5.08,67.4,5,67.46,5Z" transform="translate(0 -0.69)"/><path class="cls-1" d="M73,2.41a.27.27,0,0,0,0-.13.15.15,0,0,1,0,.07Z" transform="translate(0 -0.69)"/><path class="cls-1" d="M68.49,3.44l0,0-.12-.17Z" transform="translate(0 -0.69)"/><path class="cls-1" d="M69.44,2.42s.25.31.37.45a.74.74,0,0,1-.16-.25A2.12,2.12,0,0,0,69.44,2.42Z" transform="translate(0 -0.69)"/><path class="cls-1" d="M71.54,1.4V1.34A.13.13,0,0,0,71.54,1.4Z" transform="translate(0 -0.69)"/><path class="cls-1" d="M67.71,4.07,67.59,4Z" transform="translate(0 -0.69)"/><path class="cls-1" d="M41.92,33.55l-.05,0S41.91,33.56,41.92,33.55Z" transform="translate(0 -0.69)"/><path class="cls-1" d="M39.31,33.18v0L39.15,33Z" transform="translate(0 -0.69)"/><path class="cls-1" d="M62.13,8.29h0C62.13,8.23,62.12,8.25,62.13,8.29Z" transform="translate(0 -0.69)"/><path class="cls-1" d="M53.86,16.76c.36.17.18.5.62.66C54.35,17.31,54.15,16.82,53.86,16.76Z" transform="translate(0 -0.69)"/><path class="cls-1" d="M72.89,2.4s0,0,0,0S72.89,2.42,72.89,2.4Z" transform="translate(0 -0.69)"/><path class="cls-1" d="M54.48,17.42Z" transform="translate(0 -0.69)"/><path class="cls-1" d="M60.18,10.54a.72.72,0,0,0,.15.11Z" transform="translate(0 -0.69)"/><path class="cls-1" d="M62.18,9.43h0Z" transform="translate(0 -0.69)"/><path class="cls-1" d="M59.77,11.77c-.05,0-.1,0-.09,0l0,0C59.7,11.77,59.7,11.74,59.77,11.77Z" transform="translate(0 -0.69)"/><path class="cls-1" d="M58.91,12.6l.08.05a.09.09,0,0,1,0-.05Z" transform="translate(0 -0.69)"/><path class="cls-1" d="M44.39,30.87a3.09,3.09,0,0,1-.31-.23C44.31,30.84,44.25,31,44.39,30.87Z" transform="translate(0 -0.69)"/><path class="cls-1" d="M72.79,2.24c.07.08.1.13.1.16a.09.09,0,0,0,0,0Z" transform="translate(0 -0.69)"/><path class="cls-1" d="M62.05,14.19l-.18.08A.3.3,0,0,0,62.05,14.19Z" transform="translate(0 -0.69)"/><path class="cls-1" d="M50.5,24.85v.07S50.52,24.89,50.5,24.85Z" transform="translate(0 -0.69)"/><path class="cls-1" d="M61.51,14.71a.8.8,0,0,0-.28-.13l.06.09Z" transform="translate(0 -0.69)"/><path class="cls-1" d="M44.08,30.64Z" transform="translate(0 -0.69)"/><path class="cls-1" d="M43.88,32.23c.14-.12-.32-.45-.51-.71,0-.26.36.23.61.38,0-.2-.29-.64-.2-.69a.68.68,0,0,1,.17.17c-.21-.42.29-.31,0-.83l.11.09a7.18,7.18,0,0,1-.55-.53c0-.07-.13-.36.14-.12,0,0,.06.14.12.23l0-.17c.42.32,0,.21.31.49,0-.24-.16-.68,0-.67.38.35-.09.33.35.54h-.28c.67.47-.12,0,.57.56.29-.07,0-.39.32-.46-.16-.24-.31-.29-.46-.53-.09-.62,1.1.72.82,0-.19-.29-.62-.77-.24-.66l.35.46c.22-.14-.47-.7,0-.6.13.19,0,.27.07.3.44.2-.14-.32-.05-.41l.38.34c.13-.24.09-.71.24-1,.09.12.16.27.32.33.09-.44.62-.51,1.08-.54l-.2-.41s.18.1.21.19c.22,0-.19-.21-.26-.38s.25.11.31.24c-.09-.44-.06-1.07.46-.91l.05.13c.27,0-.46-.81,0-.65l0,.08c.45-.17.51-.79,1.22-.55-.4-.5.51-.1-.09-.76.49.14.54.31,1,.27.1,0-.28-.49-.26-.64l.32.33-.22-.46.45.34v-.16a.58.58,0,0,1-.3-.19c0-.27.53-.06.69.11l0-.56a.77.77,0,0,1,.16.35c-.17-.49.37.32.21-.12a1.55,1.55,0,0,1-.24-.28.3.3,0,0,0,.47-.23l.19.26c.28-.16.35-.56.6-.79-.19,0-.56-.43-.52-.54l.37.32c-.17-.26-.21-.06-.37-.41.13-.05.45.33.51.5v-.23c.11.1.13.18.26.32-.17-.26.53.17.23-.27l.1.09c.25-.23.24-.46.42-.66-.29-.31-.15-.32-.33-.62.24,0,.63,0,.78-.16,0-.27-.21-.29-.33-.52.28.27.43.07.53.36a1.34,1.34,0,0,0,.26-.8c-.14-.08-.22-.1-.29-.21s.22,0,.34.15v0c-.1-.7,1.47.13,1.15-.67v0l0-.54c.16-.06.13.28.38.37-.18-.72.48-.34.4-.86,1,.65.55-.64,1.28-.34l-.2-.18c-.13-.25.18,0,.26,0-.15-.14-.23-.11-.29-.25.27-.71,1.3-.72,2-1,.23-.13-.86-1.1-.18-.87l.28.42c0-.79.78-.73.8-1.45.06.1.16.21.12.24.33.18.3-.27.1-.48.08,0,.2.18.34.25s-.12-.52.17-.3a.2.2,0,0,1,.06.14c-.07-.18.27-.2-.07-.45.28,0,.14-.39.42-.32-.25-.41.39-.07,0-.57.46.5.62.16.49-.15.11.17.22.07.38.31.1-.1.1-.28-.16-.52.75.41-.08-.82.75-.18A4.27,4.27,0,0,1,63,12.1c.46.5-.25.34.26.84,0-.45-.2-1,.16-1.13.13,0,.17.24.23.35.06-.45.53-.44.5-.92a.42.42,0,0,1,.08.18c0-.06.17,0-.05-.25l0,.11c-.39-.25-.48-.84-.63-1,.54.7.37-.06,1,.86a.72.72,0,0,0-.23-.35c.09,0,.19.07.31.28,0-.27-.25-.45-.1-.59a2,2,0,0,1,.22.32c-.13-.28-.25-.56,0-.59.05.07.15.14.11.18.18-.24-.18-.9.24-.93.38.53.23.08.63.47V9.67l-.24-.15c.11-.09-.08-.48.14-.44l.08.25.13-.28-.26,0c-.09-.31-.51-.5-.25-.52,0,.07.11-.1.4.08h0c-.07-.18-.15-.37,0-.35s.41.46.51.54c-.27-.39.16-.34-.12-.77a2,2,0,0,0,.31.36L66.21,8c.14,0,.19.08.34.25.2-.09-.54-.46-.15-.41a.4.4,0,0,1,.06.13c.3-.06.18-.51.48-.53.44.36,0,.24.34.52.16-.3,0-1,.34-1.09h-.08c-.53-.6.44.12.3-.27a1.51,1.51,0,0,0,.21.29c.25-.07.19-.46.25-.87l.12.18c.22,0,.31-.17.48-.2-.11-.17,0-.2-.28-.38,1.13.53.16-1,1.11-.6,0,0,0,.21.07.18l.11-.36c-.26-.23-.18-.12-.42-.27s-.16-.35-.1-.41c.06.27.39.4.57.5-.08-.07-.15-.17-.23-.25.56.33-.46-.52,0-.38l.12.14c0-.13-.11-.36,0-.38.31.26.07.19.29.44.08-.11-.34-.73,0-.53,0,.12,0,.18,0,.3.42.25.35.15.47.14h.3l-.13,0c-.61-.87.1-.37-.21-1,.29.62.23.3.54.63a.79.79,0,0,1,.36.2c-.18-.33.32.09.06-.4.1.1.09-.07.33.21,0-.17-.2-.16-.32-.3-.2-.5.77.09.51-.61,0-.38-.32-.77-.31-1.12a.84.84,0,0,1,.32.43c.24.07.29,0,.26-.24a.91.91,0,0,0,.31.26c0-.1-.33-.43-.08-.36a4.26,4.26,0,0,1,.34.49c0-.18-.12-.46-.12-.64.2.16.21.33.3.48a.81.81,0,0,0-.16-.73l-.16,0c0-.05.26.23.28.31.14.3-.22,0-.32-.09V1.44c-.66-.55-.15.35-.31.43L72,1.37l.23.5c-.14-.09-.4-.32-.41-.45-.3-.13.08.24-.24.07a.18.18,0,0,1-.07-.09l0,.22c-.07-.11-.32-.3-.2-.29-.41-.1.07.59-.32.3v0c-.07.37.29.35.51.9l-.9-.71.3.35s-.11,0-.23-.11c.14.31.16.13.31.39-.39-.19-.16.43-.69-.07.2.29.29.09.34.38-.58-.53,0,.23-.39.06s0-.25-.36-.42c.42.55-.29.08-.29.26.38.39,0,.34,0,.61-.12-.14-.48,0-.74,0l-.06-.07c.36.42.15.48.13.66a1.34,1.34,0,0,1-.35-.51l-.09.09c.1.15.14.24.12.34l-.26-.31c-.11.13.09.58-.26.54.26.28.87.64.88,1a1.89,1.89,0,0,1-.42-.49s.07.17,0,.13l-.17-.31c-.18,0,.16.24.08.28-.2-.22-.19-.11-.34-.29s.13,0,.07-.07a.63.63,0,0,1-.48-.16c.12.12.28.29.26.36s-.3-.21-.47-.25c.11.17-.12.1.19.42,0,0-.19-.11-.28-.18.07.2-.26.32.14.59h0V5h0c.1.52-.61.24-.68.58l-.1-.11c0,.24-.21.34-.07.65,0,0-.28-.11-.39-.25,0,.17.09.3-.21.26-.09-.28-.2-.13,0-.23-.21,0-.4-.12-.25.3-.22-.31-.43-.25-.41-.11l.28.11c0,.1-.11.13-.19.17L65.21,6c-.67-.2.27,1.18-.63.63.18.32.31,0,.54.4-.17.06-.78-.34-.82-.3-.35,0,.36.66.06.69.15.1.5.43.49.67-.16.06-.66-.4-.69-.57s.07,0,.11,0,0-.18-.19-.28l.11.14c-.18-.07-.33.1-.49-.15a.26.26,0,0,0,.29.25c-.33,0-.23.22-.51.24.1.05.26.18.24.2-.38.06.14.34,0,.54-.28-.11-.42-.5-.42-.18-.22-.05-.34-.32-.41-.46.1.38-.42.09-.54.12l0-.18a.18.18,0,0,1,0,.18l.29.21c-.09,0-.13,0-.23-.08.12.21.45.4.58.71-.18-.07,0,.31-.39,0,.29-.06-.35-.32-.25-.52,0,.06,0,.1-.11.09a.15.15,0,0,1-.07-.1c-.47-.14.29.46.11.62-.17-.21-.4-.32-.39-.25s.35.28.42.5c-.26,0,0,.23-.09.27h.14c.16.21.08.24.06.38-.16-.14,0-.17-.12-.21.23.42-.54-.15-.44.19-.19-.07-.36-.35-.49-.39.1.38-.41-.11-.35.23.29.22.23.15.37.5l.07-.42.21.53c.07-.07,0-.31.08-.31.13.28.07.21.32.39-.48-.29,0,.41-.35.26l-.61-.64c-.45-.11,0,.63-.37.68l.18,0c.22.29-.1.17-.08.35a1.63,1.63,0,0,0-.47-.36c.15.15-.18.14.21.59l-.37-.19c-.29.07.38.81.14.9-.17-.28-.4-.35-.44-.63-.06.06-.15.07,0,.22-.16-.1.12.44-.13.29.07.11.27.34.19.39a.66.66,0,0,1-.1-.11c.1.11,0,.25.32.43-.82-.49-.45.53-1.15.11a1.74,1.74,0,0,1-.25.53c-.05-.07-.1-.1-.06-.1-.34-.05.5.7.11.66-.43-.26-.09-.28-.27-.36-.71-.67-.13.31-.64,0v-.07c-.33-.15,0,.48-.17.58a.66.66,0,0,0-.1-.11,1.31,1.31,0,0,1,.11,1c-.22-.32-.07-.21-.37-.46,0,.1.45.42.4.63a2.4,2.4,0,0,1-.71-.44l.11-.13c-.44-.32-.15.17-.28.16l-.15-.17c-.14.23.27.66,0,.82l.14.11c.3.53-.32-.14-.13.27l-.44-.39a3.47,3.47,0,0,1,.09.87,3.25,3.25,0,0,1-.32-1,.38.38,0,0,0-.05.52c0-.07-.08-.21,0-.17.24.42.28.69.13.82-.77-.84-.57.16-1.3-.38,0,.55-.63.36-.88.7.73.54-.07.1.59.74,0,.11-.06.12-.11.09l-.59-.19c-.24-.15-.08-.21-.23-.35-.2.09-.33-.22-.6-.3.25.22.27.39.1.38l.42.19c.13.56-.72-.37-.6.18l-.13-.27c0,.22-.41.38,0,1-.09-.06-.29-.22-.29-.31-.34.17,0,1.13-.56,1l-.13-.18c0,.09.21.38,0,.28-.06-.07-.14-.18-.17-.17s.15.41,0,.38l-.12-.24c-.46,0,0,.82-.07,1.14a1.07,1.07,0,0,0-1-.41l-.06-.07c-.36.23-.13.88-.22,1.33-.67-.35-.79.35-1.34.32a.91.91,0,0,1,.35.47c-.16,0,.14.51-.27.06h0c-.46-.38-.48-.14-.6-.05l.54.58c-1.07-.56-.41,1-1.28.4.07.2,0,.28.06.48l-.29-.31a.79.79,0,0,0-.53.44L46.73,23c-.14.1.7,1,.6,1.16l-.48-.42c-.21.22-.82,0-.64.66-.06-.07-.18-.21-.16-.26s-.7.08-.06.67c-.39-.41-.26.18-.21.47l-.27-.32c.27.48.37.59.34.83-.07,0-.27-.21-.15-.18-.26,0,.19.37-.1.34l-.13-.24c-.14.09,0,.18.13.47s-.29.13-.57-.12c.14.18.29.46.15.44a.54.54,0,0,1-.16-.22c-.39,0,.06.62-.36.45a1,1,0,0,0-.2-.15c.16-.14.3-.24.31-.21-.27-.28-.44-.21-.71-.68.1.3.37.92.13.9l-.11-.08,0,0c-.05,0-.05,0,0,.11s-.14,0-.18,0c-.23-.22-.26,0-.33.06.3.29.17.32.49.5,0,0,0-.05,0-.1A.06.06,0,0,0,44,27l0,0a1.55,1.55,0,0,1,.13-.17c.1.2.18.38,0,.27l.39.57c-.49-.34-.87-.41-1.15-.65,0,.35-.33.54.11,1.22,0,.12-.22-.1-.33-.17s0-.12,0-.22c0,.25-.26.36.1.79-.3-.05-.28-.44-.4-.2l-.09-.15c-1-.28.4,1.58-.79,1.16a.37.37,0,0,1,.19.09c-.81.08-.61,1.24-1.61,1.11-.24,0,0,.28.1.54l-.34-.29.23.5c.08.46-1.1-.48-.83.27l.24.19c-.13,0-.15.39-.38.13,0,0,.2.25.05.17L39.39,32l.08.5c-.29,0-.63-.7-.9-.5a1.54,1.54,0,0,0,.37.82s.19,0,.36.18v.17c.47.51.91,1.09,1.44,1.24L40.59,34l.29.2-.11.13c.29.17.14-.08,0-.26a.93.93,0,0,0,.32.21l-.33-.61c.21.18.32.45.51.47-.15-.29-.49-.38-.52-.63.28.16.45.37.33.1a.63.63,0,0,1,.23.3c-.08-.22.12-.24-.11-.54.35.21.17-.3.62.18-.09-.14-.24-.49-.2-.58.44.68.27-.19.84.45-.41-.6.08-.53,0-1,0,.05.1.14.06.13.12,0,.3.09.45.13a2.9,2.9,0,0,1-.54-1c.5.31.41.56.83.92-.34-.34-.15-.52-.46-.77a2,2,0,0,1,.56.37c-.49-.54,0-.17-.26-.55.37.14.51.46.49.18A.65.65,0,0,1,43.88,32.23ZM46,28.37h0l0,.08Zm.25-.25a.22.22,0,0,0-.12.09C46,28.12,46,28,46,28S46.15,28.06,46.28,28.12ZM43.7,26.54c0-.08.07,0,.14,0a.28.28,0,0,0,0,.11l0,0A1.55,1.55,0,0,1,43.7,26.54Z" transform="translate(0 -0.69)"/><path class="cls-1" d="M44,27a.06.06,0,0,1,0,0l.09,0L44,27Z" transform="translate(0 -0.69)"/><path class="cls-1" d="M67.55,5h0l0,0Z" transform="translate(0 -0.69)"/><polygon class="cls-1" points="50.36 24.58 50.28 24.51 50.33 24.6 50.36 24.58"/><path class="cls-1" d="M70,4.69l.09.06Z" transform="translate(0 -0.69)"/><path class="cls-1" d="M70.63,4.17l.19,0A.34.34,0,0,0,70.63,4.17Z" transform="translate(0 -0.69)"/><path class="cls-1" d="M71.24,3.86l-.11-.14h0Z" transform="translate(0 -0.69)"/><path class="cls-1" d="M64.18,11.42a0,0,0,0,0,0,0C64.19,11.55,64.19,11.5,64.18,11.42Z" transform="translate(0 -0.69)"/><path class="cls-1" d="M65.7,8.57a1.28,1.28,0,0,1,.07.21C65.83,8.77,65.86,8.74,65.7,8.57Z" transform="translate(0 -0.69)"/><path class="cls-1" d="M62.07,14.18h0v0Z" transform="translate(0 -0.69)"/><path class="cls-1" d="M65.66,8.88c.1,0,.12,0,.11-.1S65.65,8.8,65.66,8.88Z" transform="translate(0 -0.69)"/><path class="cls-1" d="M73.4,2h0l0,0Z" transform="translate(0 -0.69)"/><path class="cls-1" d="M73.39,2V1.92S73.36,1.94,73.39,2Z" transform="translate(0 -0.69)"/><path class="cls-1" d="M73.36,1.79l0,.13S73.43,1.89,73.36,1.79Z" transform="translate(0 -0.69)"/><path class="cls-1" d="M72.64,2.5l.1.11Z" transform="translate(0 -0.69)"/><path class="cls-1" d="M72.49,2.71c.07,0,.34.12.33,0l-.08-.1C72.87,2.8,72.35,2.48,72.49,2.71Z" transform="translate(0 -0.69)"/><path class="cls-1" d="M70.39,2.12l.24-.07c-.14-.09-.33-.21-.29-.31C69.81,1.58,70.64,2,70.39,2.12Z" transform="translate(0 -0.69)"/><path class="cls-1" d="M69.74,2.42c0-.14-.17-.17-.23-.24C69.56,2.34,69.57,2.38,69.74,2.42Z" transform="translate(0 -0.69)"/><path class="cls-1" d="M66.21,5.84,66,5.56C65.93,5.66,66.06,5.66,66.21,5.84Z" transform="translate(0 -0.69)"/><polygon class="cls-1" points="66.92 7.22 67.15 7.33 66.94 7.05 66.92 7.22"/><polygon class="cls-1" points="64.62 5.65 64.61 5.58 64.6 5.79 64.62 5.65"/><path class="cls-1" d="M58.8,12.19l.35.32C59.14,12.4,58.78,12,58.8,12.19Z" transform="translate(0 -0.69)"/><path class="cls-1" d="M56.59,15c-.2-.14-.37-.18-.26,0C56.41,15,56.6,15.08,56.59,15Z" transform="translate(0 -0.69)"/><polygon class="cls-1" points="48.39 21.21 48.34 21.05 48.33 21.23 48.39 21.21"/><path class="cls-1" d="M73.28,1.69c-.06-.12-.22-.36-.23-.29l.25.43Z" transform="translate(0 -0.69)"/><path class="cls-1" d="M72.56,1.05a4.47,4.47,0,0,0,.53,1c-.21-.43-.09-.27-.35-.78,0-.07.14.1.23.26,0-.11.11.06,0-.21s-.31-.28-.2,0A1.4,1.4,0,0,1,72.56,1.05Z" transform="translate(0 -0.69)"/><path class="cls-1" d="M68.87,2.23l0,0Z" transform="translate(0 -0.69)"/><path class="cls-1" d="M66.65,3s0-.07,0-.11A.12.12,0,0,0,66.65,3Z" transform="translate(0 -0.69)"/><path class="cls-1" d="M66.07,2.61l0,0S66.06,2.57,66.07,2.61Z" transform="translate(0 -0.69)"/><path class="cls-1" d="M68.87,2.23l-.13-.11C68.81,2.26,68.82,2.21,68.87,2.23Z" transform="translate(0 -0.69)"/><path class="cls-1" d="M72.73,2.35a.58.58,0,0,0,0-.13v.06Z" transform="translate(0 -0.69)"/><path class="cls-1" d="M69.59,1.41h0l-.08-.19Z" transform="translate(0 -0.69)"/><path class="cls-1" d="M70.24,1a3.35,3.35,0,0,0,.26.52.78.78,0,0,1-.11-.27Z" transform="translate(0 -0.69)"/><path class="cls-1" d="M71.69,1V1Z" transform="translate(0 -0.69)"/><path class="cls-1" d="M69.06,1.59,69,1.45Z" transform="translate(0 -0.69)"/><path class="cls-1" d="M47.67,8.84V8.77A.32.32,0,0,0,47.67,8.84Z" transform="translate(0 -0.69)"/><polygon class="cls-1" points="46.94 5.99 46.95 5.97 46.98 5.73 46.94 5.99"/><path class="cls-1" d="M65.21,2.36h0C65.22,2.32,65.21,2.33,65.21,2.36Z" transform="translate(0 -0.69)"/><path class="cls-1" d="M59.09,4.5c.15.35,0,.5.17.88A3.09,3.09,0,0,0,59.09,4.5Z" transform="translate(0 -0.69)"/><path class="cls-1" d="M72.68,2.31l0,0S72.68,2.33,72.68,2.31Z" transform="translate(0 -0.69)"/><path class="cls-1" d="M59.26,5.38h0v0Z" transform="translate(0 -0.69)"/><path class="cls-1" d="M63.77,3.16l.08.17Z" transform="translate(0 -0.69)"/><path class="cls-1" d="M65.13,3.31l0,0Z" transform="translate(0 -0.69)"/><path class="cls-1" d="M63.36,3.93s0-.08,0,0l0,0C63.32,3.9,63.32,3.87,63.36,3.93Z" transform="translate(0 -0.69)"/><path class="cls-1" d="M62.72,4.13l0,.08v0Z" transform="translate(0 -0.69)"/><path class="cls-1" d="M49.87,8.78c0-.11,0-.25,0-.38C49.85,8.7,49.74,8.81,49.87,8.78Z" transform="translate(0 -0.69)"/><path class="cls-1" d="M72.61,2.15a.5.5,0,0,1,.07.16,0,0,0,0,0,0,0Z" transform="translate(0 -0.69)"/><path class="cls-1" d="M64.36,7.1l-.13,0A.13.13,0,0,0,64.36,7.1Z" transform="translate(0 -0.69)"/><path class="cls-1" d="M55,8.59l0,.05S55,8.64,55,8.59Z" transform="translate(0 -0.69)"/><path class="cls-1" d="M63.92,7.24A1,1,0,0,0,63.77,7l0,.11Z" transform="translate(0 -0.69)"/><path class="cls-1" d="M49.85,8.4Z" transform="translate(0 -0.69)"/><path class="cls-1" d="M49.05,9.36c.11,0,.08-.54.12-.85.14-.15,0,.41.07.69.09-.14.18-.64.24-.62a1,1,0,0,1,0,.24c.1-.44.26,0,.38-.56V8.4c0-.28,0-.56,0-.76,0,0,.1-.35.1,0,0,0,0,.13,0,.24l0-.15c0,.52-.07.18-.09.56.11-.16.24-.59.31-.44,0,.51-.18.16-.1.62L50,8.29c.06.81-.07-.06,0,.81.15.15.18-.25.33-.1,0-.28,0-.42,0-.7.23-.51.15,1.28.32.6.05-.34.08-1,.18-.64l0,.57c.15.06.09-.82.25-.43,0,.22-.12.19-.1.25.1.46.07-.32.15-.32v.51c.16-.08.34-.45.51-.54a1.86,1.86,0,0,0,0,.47c.22-.25.47.06.7.35l.07-.44a.56.56,0,0,1,0,.28c.09.17,0-.28,0-.45s.07.25,0,.38c.14-.38.39-.82.57-.35l0,.13c.13.18.1-.9.23-.5l0,.08c.27.18.54-.23.78.41,0-.63.28.26.23-.62.18.43.15.59.39.86.06,0,0-.55.1-.65l0,.46.05-.49.1.55L55,8.64a.78.78,0,0,1-.09-.33c.09-.22.28.3.31.53l.2-.4a1.26,1.26,0,0,1,0,.37c.08-.48.07.48.15,0a2.31,2.31,0,0,1,0-.37c.09.27.22.26.31.13l0,.32c.19.06.36-.2.56-.22A1.47,1.47,0,0,1,56.3,8l.09.49c0-.31-.09-.18,0-.56a1.52,1.52,0,0,1,.09.71l.07-.18c0,.15,0,.23,0,.41,0-.3.22.47.21-.06l0,.14c.21,0,.27-.2.44-.24-.06-.42,0-.33,0-.68.13.12.32.42.46.36.06-.22,0-.35,0-.61.06.38.2.32.17.61.16-.09.21-.12.37-.46a1.64,1.64,0,0,1-.09-.35c0-.06.12.15.14.33v0c.14-.61.76,1,.81.19v0l.12-.45c.1,0,0,.29.11.51.1-.67.36,0,.46-.43.37,1.08.47-.18.81.48L60.49,8c0-.27.1.13.14.19-.05-.21-.1-.23-.1-.38.33-.39.92.18,1.41.31.17,0-.26-1.36.09-.79l.07.49c.16-.64.64-.14.8-.72,0,.12.05.26,0,.27.16.32.24-.06.16-.34.05,0,.08.25.15.39s0-.49.17-.16a.41.41,0,0,1,0,.15c0-.18.2,0,0-.4.17.16.16-.24.32,0-.08-.46.26.16.08-.48.2.65.36.47.33.14,0,.2.13.18.19.46.08,0,.11-.18,0-.51.4.72.08-.72.5.24a3,3,0,0,1,.41-1c.22.64-.21.14,0,.81.11-.34,0-.92.28-.84.08.07.07.29.09.4.11-.33.41-.09.45-.5a.42.42,0,0,1,0,.19s.12.06,0-.22v.09a5.5,5.5,0,0,1-.28-1.15c.26.85.25.14.56,1.22a.92.92,0,0,0-.1-.4c.06,0,.11.15.16.38.06-.21-.1-.49,0-.53a2.74,2.74,0,0,1,.11.37c0-.29-.1-.59,0-.51s.08.19,0,.2c.15-.1,0-.82.27-.63.19.62.14.17.36.69l0-.2L67.22,5c.09,0,0-.44.14-.3l0,.24.11-.16-.17-.16c0-.3-.28-.65-.12-.55,0,.06.09,0,.26.25h0c0-.18-.07-.37,0-.27s.23.58.29.68c-.15-.44.14-.2,0-.68a3.29,3.29,0,0,0,.18.44l-.12-.37a1.18,1.18,0,0,1,.2.37c.14,0-.32-.64-.07-.41a.84.84,0,0,1,0,.14c.2.09.16-.33.36-.22.27.5,0,.17.19.59.14-.17.08-.78.31-.74l-.06,0c-.32-.73.29.29.22-.09a1.64,1.64,0,0,0,.13.33c.17,0,.15-.3.21-.61l.07.2c.15.13.23,0,.35,0a1.16,1.16,0,0,0-.18-.44c.76.92.15-.76.79,0,0,0,0,.19,0,.18l.08-.26a2.5,2.5,0,0,0-.28-.39c-.08-.2-.11-.36-.07-.39a1.61,1.61,0,0,0,.39.65,2.8,2.8,0,0,1-.15-.3c.37.5-.32-.62,0-.32l.08.17c0-.11-.08-.34,0-.32.22.34,0,.19.2.48.06-.06-.23-.74,0-.42,0,.11,0,.13,0,.25.29.37.24.26.33.3h0l.22.12-.09-.1c-.43-1,.08-.26-.14-.92.2.63.16.34.38.74a1.07,1.07,0,0,1,.25.31c-.12-.35.24.2,0-.31.07.13.06,0,.23.31,0-.14-.14-.21-.22-.38-.15-.49.55.38.36-.31,0-.32-.24-.76-.25-1a1.39,1.39,0,0,1,.24.48c.18.14.21.08.18-.1A2.51,2.51,0,0,0,72.5,2c0-.07-.24-.48-.06-.33s.19.37.25.53c0-.15-.09-.42-.1-.57a2,2,0,0,1,.23.51.9.9,0,0,0-.14-.66l-.11-.1a1.36,1.36,0,0,1,.21.36c.11.31-.16-.07-.24-.19V1.46c-.5-.7-.1.23-.22.24L72,1.14l.18.5a1.9,1.9,0,0,1-.3-.52c-.22-.23.06.22-.17,0a.45.45,0,0,1,0-.1l0,.2c0-.12-.23-.38-.15-.32-.29-.24.07.51-.21.12V1c0,.27.22.4.38.93L71.08,1l.22.4s-.07,0-.16-.17c.1.3.11.16.22.44-.28-.32-.11.29-.49-.34.15.32.21.2.25.45-.41-.67,0,.17-.27-.11s0-.21-.26-.49c.3.62-.21,0-.2.09.26.48,0,.27,0,.48-.08-.16-.33-.16-.51-.29l0-.08c.24.5.1.46.08.59a2,2,0,0,1-.23-.56l-.06,0a.63.63,0,0,1,.08.33l-.18-.37c-.07.06.06.52-.18.34.17.34.59.9.58,1.19a3.11,3.11,0,0,1-.27-.59s0,.17,0,.1l-.11-.33c-.13-.11.1.27,0,.26-.14-.26-.13-.17-.23-.38,0,0,.09.09,0,0a.87.87,0,0,1-.32-.34,1,1,0,0,1,.16.4c-.07.06-.19-.3-.31-.41.07.19-.08,0,.12.42,0,0-.12-.17-.19-.27,0,.2-.18.15.08.55l0,0v0h0c0,.47-.42-.07-.48.17l-.06-.13c0,.19-.15.18-.08.5a.89.89,0,0,1-.24-.38c0,.13,0,.29-.16.11,0-.26-.12-.19,0-.2-.14-.08-.26-.28-.18.12-.13-.35-.27-.4-.26-.28l.17.22c0,.07-.08.06-.13,0L67.34,2c-.43-.47.1,1.09-.45.22.09.34.2.18.32.57-.11,0-.48-.64-.51-.63-.22-.21.19.71,0,.59a2,2,0,0,1,.27.78,1.69,1.69,0,0,1-.4-.79s0,0,.07.08a.49.49,0,0,0-.11-.32l.06.17c-.11-.15-.21-.09-.3-.37a.45.45,0,0,0,.17.35c-.21-.19-.17.07-.34-.05a1,1,0,0,1,.13.27c-.25-.14.06.34,0,.46C66.05,3.13,66,2.75,66,3a1.31,1.31,0,0,1-.22-.58c0,.36-.27-.14-.35-.18V2.1c0,.09,0,.1-.05.11l.16.32a.3.3,0,0,1-.13-.18,8.82,8.82,0,0,1,.29.87c-.1-.16,0,.23-.24-.21.19.1-.19-.44-.11-.55,0,.06,0,.07-.08,0a.3.3,0,0,1,0-.12c-.27-.34.14.52,0,.56-.08-.25-.21-.46-.21-.4s.18.41.21.62c-.16-.16,0,.18-.09.17l.08.07c.08.26,0,.24,0,.34-.08-.19,0-.15,0-.23.1.47-.32-.39-.3-.06-.1-.16-.17-.47-.25-.57,0,.36-.23-.31-.24,0a1.12,1.12,0,0,1,.17.59l.09-.29.06.52c.06,0,0-.25.09-.2a1,1,0,0,0,.15.48c-.26-.48,0,.34-.25,0l-.29-.83c-.26-.33-.07.5-.31.35l.1.12c.1.34-.08.08-.09.24a3.22,3.22,0,0,0-.24-.54c.07.21-.13,0,0,.59l-.2-.35c-.18-.11.12.85,0,.8a3.27,3.27,0,0,1-.18-.74s-.09,0,0,.16c-.08-.16,0,.42-.12.17,0,.13.11.43.06.42a.59.59,0,0,1,0-.14,1.82,1.82,0,0,0,.13.51c-.42-.84-.36.18-.71-.54a.89.89,0,0,1-.23.29c0-.09,0-.14,0-.12-.19-.23.17.84,0,.59-.21-.44,0-.27-.1-.43-.29-.93-.12.17-.37-.35V4.13c-.16-.3-.07.4-.2.37s0-.08,0-.14a1.34,1.34,0,0,1-.13.86,1.94,1.94,0,0,0-.12-.58c0,.07.18.6.1.73a4.69,4.69,0,0,1-.32-.75l.09,0c-.18-.51-.11,0-.19,0l0-.23C61,4.43,61.16,5,61,5l.06.17c.06.58-.15-.31-.13.14l-.17-.57a3.1,3.1,0,0,1-.13.74,5.65,5.65,0,0,1,0-1s-.17.09-.13.38c0-.06,0-.21,0-.13,0,.47,0,.72-.11.73-.24-1.12-.35-.2-.63-1.06-.1.45-.42-.1-.62,0,.26.86-.06,0,.14.94,0,.06-.07.05-.08,0L59,4.88c-.09-.25,0-.2,0-.41-.13,0-.12-.37-.25-.59.08.32.06.47,0,.36l.17.4c-.06.51-.28-.73-.35-.22v-.3c0,.19-.3.06-.25.79a1.1,1.1,0,0,1-.08-.41c-.21-.08-.3.84-.53.42l0-.22c0,.07,0,.42-.08.21a.81.81,0,0,0,0-.24c0,.08,0,.41-.11.29V4.7c-.24-.26-.2.66-.35.84a1.46,1.46,0,0,0-.37-.94V4.51c-.23-.06-.3.59-.48.87-.22-.7-.48-.25-.73-.62a1.65,1.65,0,0,1,0,.58c-.06-.12-.09.47-.14-.13h0c-.1-.59-.18-.41-.26-.42l.07.78c-.32-1.13-.51.47-.71-.55,0,.2-.1.2-.13.41l0-.43c-.15-.1-.22-.14-.38,0v-.3c-.09,0,0,1.23-.13,1.26l-.06-.63c-.17,0-.37-.53-.51.05a1.24,1.24,0,0,1,0-.3c-.08,0-.32-.42-.25.45,0-.57-.18,0-.26.2V5.3c-.06.53-.06.68-.16.83,0,0,0-.33,0-.23-.09-.21,0,.4-.16.18l0-.27c-.09,0-.08.12-.12.43s-.17-.1-.19-.48c0,.23-.05.54-.11.44a.91.91,0,0,1,0-.28c-.15-.28-.22.49-.32.08a2.4,2.4,0,0,0,0-.25c.12,0,.21,0,.2.06a4.26,4.26,0,0,1,0-1c-.07.29-.19.92-.29.74V5.39s0,0-.06.06-.05-.11-.07-.11c0-.32-.11-.18-.16-.19a4.07,4.07,0,0,0,0,.7s0,0,0-.07a.05.05,0,0,0,0,0v0a.21.21,0,0,1,.12,0c0,.21-.08.39-.13.16l-.07.68c-.06-.59-.19-.91-.2-1.27-.14.23-.34.15-.44.94-.05.1,0-.22-.06-.35s.06-.07.07-.18c-.09.2-.24.08-.28.63-.09-.25.07-.51-.07-.42l0-.17c-.24-.9-.5,1.39-.77.24a.56.56,0,0,1,0,.2c-.33-.52-.77.44-1.06-.39-.09-.17-.13.19-.21.45l0-.46-.15.52c-.18.36-.16-1.14-.41-.43v.3c-.06-.06-.23.16-.19-.19,0,.06,0,.32-.06.16l0-.24-.2.39c-.11-.18.12-.93-.06-1a2.39,2.39,0,0,0-.27.83s.06.15,0,.39L47,6.66a6.39,6.39,0,0,0-.11,1.9L47,8.14v.34h-.1c0,.33.09,0,.15-.14a1.4,1.4,0,0,0,0,.38l.18-.66a2.28,2.28,0,0,0-.05.7c.09-.31,0-.62.12-.81,0,.32,0,.57.07.31a1,1,0,0,1-.06.37c.08-.21.16-.08.22-.44,0,.39.21-.09.14.57a1.54,1.54,0,0,1,.2-.53c-.16.78.2.06.1.91.13-.7.29-.29.44-.67,0,0,0,.16,0,.13s.07.28.11.41A5,5,0,0,1,48.74,8a9.72,9.72,0,0,1-.1,1.23c0-.47.18-.46.18-.86a3.53,3.53,0,0,1,0,.66c.05-.73.07-.12.15-.57.07.37,0,.69.1.47A1,1,0,0,1,49.05,9.36Zm2.57-1.2h0l0,0Zm.21,0a.13.13,0,0,0-.09,0c0-.15,0-.3,0-.29A.92.92,0,0,0,51.83,8.15Zm-.44-2.92c0-.06,0,0,0,.11a.23.23,0,0,0,0,0V5.23Z" transform="translate(0 -0.69)"/><path class="cls-1" d="M51.33,5.78s0,0,0,0l0,.1V5.78Z" transform="translate(0 -0.69)"/><path class="cls-1" d="M68.92,2.28h0l0,0Z" transform="translate(0 -0.69)"/><polygon class="cls-1" points="54.8 8.13 54.79 8.02 54.78 8.11 54.8 8.13"/><path class="cls-1" d="M70.59,3.05l.06.09A.24.24,0,0,0,70.59,3.05Z" transform="translate(0 -0.69)"/><path class="cls-1" d="M71.07,2.89l.13.1A.4.4,0,0,0,71.07,2.89Z" transform="translate(0 -0.69)"/><path class="cls-1" d="M71.51,2.89l-.08-.16h0Z" transform="translate(0 -0.69)"/><path class="cls-1" d="M66.15,5.94V6C66.14,6.05,66.15,6,66.15,5.94Z" transform="translate(0 -0.69)"/><path class="cls-1" d="M67.47,4.34a2.06,2.06,0,0,1,0,.21C67.54,4.57,67.56,4.56,67.47,4.34Z" transform="translate(0 -0.69)"/><polygon class="cls-1" points="64.37 6.42 64.37 6.41 64.36 6.41 64.37 6.42"/><path class="cls-1" d="M67.41,4.58c.07.06.08,0,.08,0S67.41,4.51,67.41,4.58Z" transform="translate(0 -0.69)"/><path class="cls-1" d="M73,2.2h0l0-.06Z" transform="translate(0 -0.69)"/><path class="cls-1" d="M73,2.15v0S73,2.11,73,2.15Z" transform="translate(0 -0.69)"/><path class="cls-1" d="M73,2l0,.12S73.06,2.09,73,2Z" transform="translate(0 -0.69)"/><path class="cls-1" d="M72.51,2.3l.07.14Z" transform="translate(0 -0.69)"/><path class="cls-1" d="M72.4,2.42s.24.23.24.12l-.06-.1C72.68,2.64,72.29,2.18,72.4,2.42Z" transform="translate(0 -0.69)"/><path class="cls-1" d="M70.9,1.12l.17,0C71,1,70.83.85,70.86.79,70.49.45,71.07,1.09,70.9,1.12Z" transform="translate(0 -0.69)"/><path class="cls-1" d="M70.45,1.09c0-.09-.12-.2-.16-.28A.36.36,0,0,0,70.45,1.09Z" transform="translate(0 -0.69)"/><path class="cls-1" d="M68,2.36,67.84,2C67.82,2.08,67.91,2.14,68,2.36Z" transform="translate(0 -0.69)"/><polygon class="cls-1" points="68.34 3.69 68.49 3.88 68.36 3.56 68.34 3.69"/><polygon class="cls-1" points="66.93 1.32 66.93 1.26 66.91 1.43 66.93 1.32"/><path class="cls-1" d="M62.73,3.74l.15.45C62.89,4.1,62.74,3.59,62.73,3.74Z" transform="translate(0 -0.69)"/><path class="cls-1" d="M61,4.74c-.08-.23-.17-.36-.15-.13C60.86,4.63,60.94,4.8,61,4.74Z" transform="translate(0 -0.69)"/><polygon class="cls-1" points="55 4.31 55.02 4.15 54.96 4.28 55 4.31"/><path class="cls-1" d="M73.58,1.38c-.1-.08-.35-.23-.32-.16l.41.29Z" transform="translate(0 -0.69)"/><path class="cls-1" d="M72.67,1.11a4.5,4.5,0,0,0,.92.66c-.39-.29-.21-.2-.67-.54,0-.06.17,0,.32.13-.1-.08.13,0-.13-.18s-.39-.11-.16.11A1.34,1.34,0,0,1,72.67,1.11Z" transform="translate(0 -0.69)"/><path class="cls-1" d="M70.12,4.1h0Z" transform="translate(0 -0.69)"/><path class="cls-1" d="M68.85,6.19s0-.05-.09-.07S68.81,6.18,68.85,6.19Z" transform="translate(0 -0.69)"/><path class="cls-1" d="M68.18,6.36h0S68.15,6.34,68.18,6.36Z" transform="translate(0 -0.69)"/><path class="cls-1" d="M70.12,4.1H70C70.09,4.17,70.07,4.12,70.12,4.1Z" transform="translate(0 -0.69)"/><path class="cls-1" d="M73.42,2.19s0-.06-.09-.1l0,.06Z" transform="translate(0 -0.69)"/><path class="cls-1" d="M70.24,3V3l-.17-.11Z" transform="translate(0 -0.69)"/><path class="cls-1" d="M70.57,2.21s.34.21.5.31a.76.76,0,0,1-.23-.18Z" transform="translate(0 -0.69)"/><path class="cls-1" d="M71.87,1.46l0-.05Z" transform="translate(0 -0.69)"/><path class="cls-1" d="M69.89,3.45l-.14-.06Z" transform="translate(0 -0.69)"/><path class="cls-1" d="M68.69,25.56h-.08A.17.17,0,0,0,68.69,25.56Z" transform="translate(0 -0.69)"/><polygon class="cls-1" points="66.69 25.98 66.67 25.98 66.44 26 66.69 25.98"/><path class="cls-1" d="M67.4,6.88h0S67.37,6.86,67.4,6.88Z" transform="translate(0 -0.69)"/><path class="cls-1" d="M65.68,13.79c.38,0,.44.23.88.2A3.08,3.08,0,0,0,65.68,13.79Z" transform="translate(0 -0.69)"/><path class="cls-1" d="M73.36,2.18a0,0,0,0,1,0,0S73.37,2.19,73.36,2.18Z" transform="translate(0 -0.69)"/><path class="cls-1" d="M66.56,14Z" transform="translate(0 -0.69)"/><path class="cls-1" d="M67,8.65l.18,0Z" transform="translate(0 -0.69)"/><path class="cls-1" d="M68,7.61h0Z" transform="translate(0 -0.69)"/><path class="cls-1" d="M67.36,9.49s-.09,0,0,0h.05C67.31,9.5,67.29,9.48,67.36,9.49Z" transform="translate(0 -0.69)"/><path class="cls-1" d="M67.16,10.16l.08,0v0Z" transform="translate(0 -0.69)"/><path class="cls-1" d="M68.36,23.59l-.38,0C68.28,23.61,68.39,23.7,68.36,23.59Z" transform="translate(0 -0.69)"/><path class="cls-1" d="M73.22,2.07a.37.37,0,0,1,.14.11v0Z" transform="translate(0 -0.69)"/><path class="cls-1" d="M70.52,10.54l-.09.08A.18.18,0,0,0,70.52,10.54Z" transform="translate(0 -0.69)"/><path class="cls-1" d="M68.42,18.88l0,0Z" transform="translate(0 -0.69)"/><path class="cls-1" d="M70.4,10.93a1.38,1.38,0,0,0-.3,0l.1,0Z" transform="translate(0 -0.69)"/><path class="cls-1" d="M68,23.63h0Z" transform="translate(0 -0.69)"/><path class="cls-1" d="M69,24.27c0-.1-.55,0-.86,0s.4-.08.68-.13c-.15-.07-.66-.1-.64-.16a.9.9,0,0,1,.24,0c-.45-.06,0-.23-.59-.3l.13,0a7.18,7.18,0,0,1-.76,0s-.35-.07,0-.1c0,0,.14,0,.25,0l-.16-.05c.52-.06.19.06.57.05-.17-.09-.61-.18-.47-.26.51,0,.18.16.63,0l-.19.12c.8-.11,0,.07.81,0,.14-.14-.27-.15-.13-.29-.28,0-.42,0-.7,0-.51-.19,1.28-.18.6-.32-.34,0-1,0-.64-.15l.57,0c.06-.14-.82-.07-.44-.22.23,0,.19.11.26.09.46-.1-.33-.07-.33-.14l.51,0c-.08-.14-.45-.3-.54-.47a1.48,1.48,0,0,0,.47,0c-.26-.2.06-.44.37-.62l-.44-.09a.64.64,0,0,1,.29,0c.17-.07-.28,0-.45-.05s.25-.05.38,0c-.37-.14-.79-.41-.31-.54l.13,0c.18-.1-.9-.16-.48-.25l.07,0c.2-.23-.19-.52.49-.67-.63-.07.3-.22-.58-.29a3.16,3.16,0,0,0,.91-.23c0-.05-.54-.12-.63-.2l.46,0L68,19h.55l-.11-.07a.7.7,0,0,1-.35,0c-.2-.11.34-.2.58-.18l-.37-.26a1.28,1.28,0,0,1,.36.11c-.46-.17.48,0,.06-.13a2.09,2.09,0,0,1-.36,0c.28,0,.3-.15.19-.25l.32,0c.1-.16-.11-.36-.08-.54a1.66,1.66,0,0,1-.75-.1l.49,0c-.3-.07-.2,0-.55-.08.06-.07.55,0,.71.08l-.16-.11.4.07c-.29-.07.51-.08,0-.19h.14c0-.18-.13-.29-.13-.44a2.79,2.79,0,0,1-.65-.2c.15-.09.5-.16.48-.3-.19-.12-.35-.08-.59-.16.38.05.37-.09.63,0,0-.16,0-.21-.31-.46a1.34,1.34,0,0,1-.36,0c-.06-.05.17-.06.35,0l0,0c-.53-.33,1.19-.33.43-.65l0,0-.37-.26c.08-.07.27.1.52.09-.59-.33.15-.3-.23-.55,1.13.11,0-.46.76-.48L69.43,14c-.24-.1.16,0,.23,0-.2,0-.24,0-.38-.06-.24-.45.57-.68.89-1,.1-.12-1.32-.42-.66-.44l.47.18c-.51-.44.17-.56-.23-1,.1,0,.24.09.23.11.37,0,.08-.2-.2-.29,0,0,.26.07.41.09s-.4-.28,0-.21a.4.4,0,0,1,.13.07c-.16-.09.09-.16-.32-.24.22-.05-.12-.25.14-.26-.43-.19.27-.11-.35-.32.64.21.57,0,.29-.18.19.09.22,0,.48.13,0-.08-.08-.18-.41-.28.81.12-.53-.48.48-.22a2.76,2.76,0,0,1-.52-.86c.64.23,0,.23.66.46-.2-.27-.71-.58-.49-.71s.27.13.37.19c-.2-.28.19-.33-.09-.62a.44.44,0,0,1,.16.1s.12,0-.17-.15l.07.06a5.34,5.34,0,0,1-1-.55c.8.37.27-.08,1.27.41a1,1,0,0,0-.36-.2.86.86,0,0,1,.39.15c-.11-.18-.43-.26-.39-.36l.35.17c-.25-.16-.5-.32-.35-.36s.19.07.18.1c0-.17-.61-.55-.29-.61.58.29.22,0,.74.23L71,7.32l-.26-.06c0-.08-.31-.3-.11-.3l.19.15,0-.19h-.24c-.23-.19-.65-.27-.46-.31s0-.08.36,0h0c-.15-.11-.3-.22-.15-.22s.56.26.68.29c-.41-.22,0-.23-.48-.48a3.84,3.84,0,0,0,.43.2l-.33-.18a1,1,0,0,1,.39.13c.11-.08-.66-.25-.33-.26a.41.41,0,0,1,.12.09c.21-.07-.11-.35.12-.39.53.2.08.16.53.32,0-.22-.46-.64-.26-.75h-.07c-.7-.37.42,0,.12-.2a1.74,1.74,0,0,0,.31.18c.17-.06-.07-.31-.21-.59l.17.11c.2,0,.18-.13.3-.16a1.26,1.26,0,0,0-.4-.24C72.5,4.79,71,3.77,72,4c0,0,.12.14.14.12L72,3.9a2.23,2.23,0,0,0-.46-.17c-.17-.12-.28-.24-.26-.28a1.57,1.57,0,0,0,.68.32l-.29-.16c.59.21-.61-.34-.18-.26l.16.09c-.06-.08-.25-.24-.18-.26.36.17.14.13.43.29,0-.07-.6-.49-.21-.36.08.08.06.13.14.21.45.16.35.09.44.08h.23l-.12,0c-.87-.59-.08-.26-.61-.7.5.42.31.2.7.43a1,1,0,0,1,.38.14c-.29-.24.3,0-.13-.28.13.07,0-.05.36.14C73,3,72.88,3,72.72,2.88c-.38-.35.67.07.16-.42-.17-.27-.58-.54-.71-.79A1.33,1.33,0,0,1,72.6,2c.23,0,.22,0,.11-.17a2,2,0,0,0,.36.19c0-.07-.44-.31-.21-.26s.34.24.47.35c-.08-.12-.28-.32-.36-.45a2.25,2.25,0,0,1,.44.34A1,1,0,0,0,73,1.46l-.14,0s.3.17.35.22c.23.23-.17,0-.3-.06l0-.09c-.76-.41,0,.24-.08.3l-.51-.36.39.35a1.54,1.54,0,0,1-.51-.32c-.3-.1.16.17-.17,0l-.09-.05.12.15c-.1-.08-.38-.21-.28-.21-.38-.07.29.42-.14.22l0,0c.09.26.39.25.78.63l-1-.49.39.24s-.07,0-.23-.07c.24.21.18.09.42.27-.41-.14.05.31-.6,0,.29.2.28.06.44.26-.69-.36.07.16-.29,0s-.11-.18-.47-.28c.58.37-.2.06-.12.18.47.27.13.24.23.43-.16-.09-.37,0-.59,0l-.08,0c.47.28.33.33.39.45a2,2,0,0,1-.5-.34l0,.07c.15.1.22.16.25.23L70.15,3c0,.1.33.4,0,.39.33.18,1,.4,1.16.64a3,3,0,0,1-.57-.32s.14.11,0,.09l-.29-.21c-.16,0,.25.16.2.19-.26-.14-.2-.06-.41-.18,0,0,.13,0,0-.05a.93.93,0,0,1-.46-.08,1.18,1.18,0,0,1,.37.23c0,.1-.33-.13-.49-.14.17.11,0,.07.34.27,0,0-.2-.06-.31-.1.15.13-.06.24.39.4h0l0,0h0c.32.34-.38.2-.29.43l-.13-.06c.11.16,0,.24.25.44a.94.94,0,0,1-.43-.13c.06.11.21.19-.06.19-.2-.18-.22-.08-.14-.16-.16,0-.38,0-.06.23-.32-.19-.46-.13-.38,0l.28,0c0,.07,0,.1-.07.13L68.77,5c-.64-.05.79.77-.2.5.29.19.27,0,.62.2a4.29,4.29,0,0,1-.81-.11c-.31,0,.62.41.39.46a1.89,1.89,0,0,1,.73.38,1.68,1.68,0,0,1-.84-.3s0,0,.1,0A.43.43,0,0,0,68.47,6l.16.08c-.19,0-.22.1-.48,0a.42.42,0,0,0,.36.13c-.28,0-.08.17-.29.22.1,0,.3.08.29.1-.27.09.28.2.31.35-.28,0-.59-.27-.42-.07a1.14,1.14,0,0,1-.57-.24c.27.23-.29.12-.37.16l-.11-.11c.06.06.05.09,0,.12l.34.1a.3.3,0,0,1-.22,0,8,8,0,0,1,.83.38c-.18,0,.13.2-.32,0,.21-.08-.44-.15-.47-.3,0,0,0,.07,0,.08a.23.23,0,0,1-.11-.06c-.45,0,.47.26.41.39-.24-.11-.49-.15-.44-.1s.42.13.59.25c-.22,0,.11.15.07.19l.11,0c.24.11.19.15.25.24-.2-.07-.11-.11-.21-.12.41.23-.51,0-.25.19-.19,0-.47-.17-.6-.17.28.22-.39,0-.16.2a1.18,1.18,0,0,1,.57.25l-.17-.27.44.3c0-.06-.17-.2-.1-.21a1,1,0,0,0,.46.2c-.53-.11.24.25-.13.22l-.83-.3c-.42,0,.35.39.08.49h.16c.33.14,0,.13.13.23a3.34,3.34,0,0,0-.58-.14c.21.07-.06.12.49.33L67.3,9c-.2.09.74.43.6.53-.29-.14-.51-.14-.7-.31,0,.05-.08.07.11.14-.18,0,.34.24.06.2.11.06.41.16.37.2l-.14,0c.14,0,.16.14.49.19-.92-.14,0,.41-.85.3a.84.84,0,0,1,.12.37c-.09,0-.14-.05-.11-.05-.3,0,.79.31.46.37s-.23-.15-.42-.16c-.94-.25.08.21-.49.15l0,0c-.34,0,.3.28.2.38l-.14,0a1.36,1.36,0,0,1,.67.56,2.16,2.16,0,0,0-.56-.18c0,.06.61.14.68.27a3.59,3.59,0,0,1-.8-.09v-.1c-.53-.09,0,.13-.12.16l-.22-.07c0,.17.6.32.52.47l.18,0c.54.23-.34,0,.06.19l-.58-.12a3.8,3.8,0,0,1,.59.47,4.28,4.28,0,0,1-.84-.48c0,.06,0,.21.27.31,0,0-.18-.1-.09-.1.44.18.64.32.6.43-1.11-.28-.36.23-1.24.12.37.3-.26.37-.25.63.89.1,0,.08.91.25,0,.07,0,.08,0,.08l-.57.06c-.27,0-.19-.1-.39-.13s-.39,0-.65,0c.33,0,.45.13.31.18l.44,0c.44.27-.79,0-.35.27l-.27-.11c.15.12-.07.33.64.55a1.06,1.06,0,0,1-.42-.07c-.14.19.7.61.22.7l-.22,0c.06,0,.41.13.18.15a1,1,0,0,0-.24,0c.08,0,.37.17.24.2l-.25-.08c-.32.16.56.42.68.61a1.36,1.36,0,0,0-1,.11l-.09,0c-.11.24.49.5.72.75-.73.05-.36.44-.78.63a1.26,1.26,0,0,1,.57.11c-.14,0,.44.19-.16.12v0c-.6,0-.46.11-.48.19l.79.09c-1.17.12.37.62-.66.66.19.07.18.13.38.2l-.43,0c-.12.14-.18.21-.09.41l-.3-.06c0,.1,1.21.21,1.23.31H65c0,.18-.56.34,0,.55a1,1,0,0,1-.3-.06c0,.09-.44.32.43.33-.56,0-.06.18.19.29l-.42,0c.53.1.68.11.82.23-.06,0-.34,0-.23,0-.22.08.4.08.17.18l-.27,0c0,.09.11.09.42.14s-.11.18-.49.18c.23,0,.54.08.43.13a.81.81,0,0,1-.28,0c-.29.16.49.24.08.34a1.07,1.07,0,0,0-.25,0c0-.13,0-.23.06-.22a3.54,3.54,0,0,1-1,0c.3.09.93.23.75.33h-.18s0,.05.06.07-.11.05-.11.08c-.32,0-.17.11-.19.16.42,0,.35.07.7,0,0,0-.05,0-.07,0s0,0,0,0h0l0-.12c.21,0,.39.08.16.13l.68.07c-.59.07-.9.21-1.27.23.24.15.16.36,1,.44.11,0-.22.06-.35.07s-.06,0-.18-.06c.21.08.08.26.64.26-.25.12-.52-.05-.42.1h-.17c-.87.33,1.43.42.32.79l.19,0c-.48.4.5.73-.26,1.15-.15.12.2.1.48.14l-.45.06.53.07c.39.11-1.08.36-.35.49l.31-.05c-.06.07.2.2-.16.22.06,0,.32,0,.17,0l-.24,0,.42.13c-.16.15-.94.08-1,.28a2,2,0,0,0,.86.08s.14-.09.37-.11l.13.05a7.29,7.29,0,0,0,1.88-.31l-.43-.06.33-.07,0,.08c.31-.08,0-.08-.17-.1a1.79,1.79,0,0,0,.37-.08l-.67,0a2.73,2.73,0,0,0,.68-.09c-.31,0-.6.11-.81.05.31-.09.57-.1.29-.13a1.7,1.7,0,0,1,.38,0c-.22,0-.11-.13-.48-.12.39-.09-.12-.17.54-.23a1.45,1.45,0,0,1-.55-.09c.79,0,0-.18.87-.23-.71,0-.33-.21-.74-.3.06,0,.17,0,.14,0s.26-.1.39-.15a5.09,5.09,0,0,1-1.09-.09,8.72,8.72,0,0,1,1.24-.06c-.48,0-.48-.11-.88-.06a3.31,3.31,0,0,1,.65-.12c-.73,0-.12-.05-.58-.08.36-.11.69-.06.46-.14A1.12,1.12,0,0,1,69,24.27ZM67.68,22h0l0,.05Zm0-.2a.15.15,0,0,0,0,.09c-.14,0-.29,0-.28,0A.72.72,0,0,0,67.67,21.78Zm-2.92.42c-.06,0,0,0,.11-.05a.13.13,0,0,0,0,.06h-.16Z" transform="translate(0 -0.69)"/><path class="cls-1" d="M65.3,22.26h0l.09,0H65.3Z" transform="translate(0 -0.69)"/><path class="cls-1" d="M70.19,4.11h0l.06,0Z" transform="translate(0 -0.69)"/><polygon class="cls-1" points="68.61 18.42 68.5 18.41 68.59 18.43 68.61 18.42"/><path class="cls-1" d="M72,3.77l.1,0Z" transform="translate(0 -0.69)"/><path class="cls-1" d="M72.3,3.4l.16,0A.6.6,0,0,0,72.3,3.4Z" transform="translate(0 -0.69)"/><path class="cls-1" d="M72.66,3.19l-.16-.1h0Z" transform="translate(0 -0.69)"/><path class="cls-1" d="M70.68,8.59h0C70.76,8.66,70.73,8.63,70.68,8.59Z" transform="translate(0 -0.69)"/><path class="cls-1" d="M70.41,6.62l.16.13S70.63,6.72,70.41,6.62Z" transform="translate(0 -0.69)"/><polygon class="cls-1" points="70.53 9.84 70.52 9.83 70.52 9.85 70.53 9.84"/><path class="cls-1" d="M70.53,6.82c.09,0,.09,0,0-.07S70.48,6.78,70.53,6.82Z" transform="translate(0 -0.69)"/><path class="cls-1" d="M73.62,1.93h0l-.06,0Z" transform="translate(0 -0.69)"/><path class="cls-1" d="M73.59,1.89l0,0S73.55,1.86,73.59,1.89Z" transform="translate(0 -0.69)"/><path class="cls-1" d="M73.49,1.76l.07.09S73.59,1.83,73.49,1.76Z" transform="translate(0 -0.69)"/><path class="cls-1" d="M73.21,2.24l.13.08Z" transform="translate(0 -0.69)"/><path class="cls-1" d="M73.17,2.39s.32.09.27,0l-.1-.07C73.52,2.46,73,2.23,73.17,2.39Z" transform="translate(0 -0.69)"/><path class="cls-1" d="M71.22,2l.17-.05c-.15-.07-.36-.15-.36-.22C70.52,1.6,71.36,1.85,71.22,2Z" transform="translate(0 -0.69)"/><path class="cls-1" d="M70.82,2.2c0-.1-.21-.12-.29-.16A.39.39,0,0,0,70.82,2.2Z" transform="translate(0 -0.69)"/><path class="cls-1" d="M69.49,4.77l-.35-.17C69.17,4.67,69.28,4.66,69.49,4.77Z" transform="translate(0 -0.69)"/><polygon class="cls-1" points="71.07 5.4 71.3 5.45 70.99 5.29 71.07 5.4"/><polygon class="cls-1" points="68.44 4.57 68.4 4.53 68.49 4.67 68.44 4.57"/><path class="cls-1" d="M66.84,9.93l.45.13C67.22,10,66.72,9.83,66.84,9.93Z" transform="translate(0 -0.69)"/><path class="cls-1" d="M66.73,12.1c-.23,0-.4,0-.18.08C66.59,12.14,66.78,12.14,66.73,12.1Z" transform="translate(0 -0.69)"/><polygon class="cls-1" points="64.88 17.54 64.72 17.48 64.85 17.57 64.88 17.54"/><path class="cls-1" d="M34.85,6.41c.07-.12,0-.42-.17-.36l-.15.5Z" transform="translate(0 -0.69)"/><path class="cls-1" d="M33.48,5.49a1.15,1.15,0,0,0-.36,1.12c.24-.47.3-.27.55-.84.2-.06.35.16.32.34.07-.13.32.11.43-.2a.56.56,0,0,0-1-.08C33.39,5.72,33.46,5.59,33.48,5.49Z" transform="translate(0 -0.69)"/><path class="cls-1" d="M13.6,4.76l.13,0A.25.25,0,0,0,13.6,4.76Z" transform="translate(0 -0.69)"/><path class="cls-1" d="M2.9,11.37c0-.09,0-.15,0-.18S2.85,11.37,2.9,11.37Z" transform="translate(0 -0.69)"/><path class="cls-1" d="M1.47,13.25l.08-.12C1.49,13.17,1.44,13.21,1.47,13.25Z" transform="translate(0 -0.69)"/><path class="cls-1" d="M13.6,4.76l-.37-.14C13.22,4.79,13.42,4.73,13.6,4.76Z" transform="translate(0 -0.69)"/><path class="cls-1" d="M30.74,6.69a.38.38,0,0,0,.18-.13l-.16.05Z" transform="translate(0 -0.69)"/><path class="cls-1" d="M19.06,4.32h.1c0-.06.05-.13.08-.2Z" transform="translate(0 -0.69)"/><path class="cls-1" d="M23.22,4.24c-.1,0-.13.41-.17.59.06-.17.13-.26.21-.29A1.24,1.24,0,0,0,23.22,4.24Z" transform="translate(0 -0.69)"/><path class="cls-1" d="M29.81,5l.12-.05Z" transform="translate(0 -0.69)"/><path class="cls-1" d="M16.08,4.23a.39.39,0,0,0,0-.15A.42.42,0,0,0,16.08,4.23Z" transform="translate(0 -0.69)"/><path class="cls-1" d="M64.82,41.94l.07,0S64.83,41.91,64.82,41.94Z" transform="translate(0 -0.69)"/><path class="cls-1" d="M67.65,37.94l0,.06.24,0Z" transform="translate(0 -0.69)"/><path class="cls-1" d="M.12,17.42v0C.09,17.28.1,17.35.12,17.42Z" transform="translate(0 -0.69)"/><path class="cls-1" d="M9.11,51.29c-.27-.51.86-.19.4-.81C9.51,50.66,8.68,50.86,9.11,51.29Z" transform="translate(0 -0.69)"/><path class="cls-1" d="M30.64,6.64a1,1,0,0,1-.17,0A.48.48,0,0,0,30.64,6.64Z" transform="translate(0 -0.69)"/><path class="cls-1" d="M9.51,50.48h0l0-.06Z" transform="translate(0 -0.69)"/><path class="cls-1" d="M.35,26.36a.51.51,0,0,0,.18-.09A.29.29,0,0,0,.35,26.36Z" transform="translate(0 -0.69)"/><path class="cls-1" d="M1,19.77l-.06.16A.46.46,0,0,0,1,19.77Z" transform="translate(0 -0.69)"/><path class="cls-1" d="M.94,29.79c0,.08-.09.11,0,.24l0,0C.9,29.94.87,29.89.94,29.79Z" transform="translate(0 -0.69)"/><path class="cls-1" d="M.94,33.35A.31.31,0,0,0,1,33.28l0-.11Z" transform="translate(0 -0.69)"/><path class="cls-1" d="M58.58,48.29a1.48,1.48,0,0,1,.25.31C58.69,48.33,59.07,48.07,58.58,48.29Z" transform="translate(0 -0.69)"/><path class="cls-1" d="M30.74,6.46a.24.24,0,0,1-.1.18l.12,0A.18.18,0,0,0,30.74,6.46Z" transform="translate(0 -0.69)"/><path class="cls-1" d="M4.27,29.93l-.06.57A2.49,2.49,0,0,0,4.27,29.93Z" transform="translate(0 -0.69)"/><path class="cls-1" d="M33.66,48.9l.13,0A.11.11,0,0,0,33.66,48.9Z" transform="translate(0 -0.69)"/><path class="cls-1" d="M4.27,32.18A.78.78,0,0,0,4,32.5a.33.33,0,0,0,.1.06Z" transform="translate(0 -0.69)"/><path class="cls-1" d="M58.84,48.6h0Z" transform="translate(0 -0.69)"/><path class="cls-1" d="M61.11,46.23c-.35.26.16.56.27.88-.37.45-.45-.19-.76-.33-.19.29-.15.9-.4,1-.06-.07-.12-.08-.12-.21-.06.28-.3.4-.55.55s-.5.25-.61.6a.33.33,0,0,1-.1-.11,2.22,2.22,0,0,1,.32.69c-.21.08-.29.49-.48.16.14,0,.1-.18.12-.3a1.84,1.84,0,0,1-.17.22c-.36-.43.25-.26.12-.64-.35.31-.77.84-1.14.8-.18-.48.73-.38.19-.7l.55.05c-.6-.67.31,0-.28-.76-.64,0-.62.46-1.29.4-.1.3.11.41,0,.71-.94.63-.84-1.22-1.48-.49-.21.34-.29,1-.86.65l.19-.58c-.74-.06-.42.83-1.21.44.14-.23.59-.19.48-.26-.51-.45-.36.33-.75.33l-.08-.51c-.8.08-1.67.45-2.55.54,0-.15.2-.31,0-.47a7.21,7.21,0,0,1-3.44-.36l-.41.44a.18.18,0,0,1-.07-.29c-.42-.16,0,.28-.22.45a.22.22,0,0,1-.17-.38c-.73.37-2.09.8-2.87.33l.15-.13c-.6-.18-.68.9-1.24.49l.11-.07c-1.31-.2-2.76.21-3.76-.46-.19.64-1.3-.28-1.39.6-.75-.43-.53-.59-1.59-.89-.28,0-.42.56-.76.65V48.8l-.48.48-.25-.55-.32.12a.35.35,0,0,1,.25.34,1.11,1.11,0,0,1-1.25-.56L31.58,49c0-.19.23-.25.39-.37-.65.47-.12-.49-.71,0,.08.1,0,.27-.05.37a1.79,1.79,0,0,0-1.46-.17l.09-.32c-.89-.08-1.89.16-2.89.15a.41.41,0,0,1,0,.75l-.12-.49c-.19.31.31.19-.08.56-.37-.06-.25-.56,0-.72l-.45.17c0-.14.08-.22.11-.41-.19.31-.79-.49-1.06,0l0-.14c-1,0-1.46.16-2.28.18,0,.43-.33.33-.58.67a7.54,7.54,0,0,0-2-.43c-.51.21-.15.36-.38.61,0-.38-.76-.35-.38-.62a7.75,7.75,0,0,0-2.21.39c.12.15.25.22.18.35a.35.35,0,0,1-.42-.34l.05,0a2.64,2.64,0,0,1-2-.25,5.65,5.65,0,0,0-1-.29.8.8,0,0,0-.72.17l0,0a5.82,5.82,0,0,1-.92.3c-.39-.13.29-.24,0-.52-1.06.46-1.4-.42-2.25-.3-.07-.62-.51-.84-1-1a5.54,5.54,0,0,1-.73-.37.93.93,0,0,1-.4-.62l-.13.24c-.33.08-.11-.27-.18-.41-.12.18,0,.32-.18.36a4.54,4.54,0,0,1-1.74-2.07,12.28,12.28,0,0,1-.81-2.59c-.11-.62-1.47.1-1.06-.91l.53.1A3,3,0,0,1,4.27,40a8.7,8.7,0,0,1-.17-1,8.6,8.6,0,0,0,0-1,4.81,4.81,0,0,0-.21-1.16c.12.09.27.1.26.25.36-.33,0-1.2-.27-1.21,0-.24.26-.05.41-.2.22-.33-.46-.82-.1-1,.06,0,.12.09.15.15-.18-.21,0-1-.38-.78.2-.58-.18-1.1.07-1.56-.47-.3.22-1-.44-1.09.68.05.55-1,.23-1.37.21.12.21-.32.5-.17,0-.42-.14-.8-.49-.73.82-.76-.65-1.54.39-2a25,25,0,0,1-.77-3.48c.68,0,.07,1.22.78,1.18-.28-1.06-.86-1.66-.7-2.71.09-.27.3.15.41.25-.28-1.06.06-2-.31-3,.07,0,.14.11.19.2,0-.18.1-.43-.21-.4l.08.18c-.44.29-.93-.74-1.17-.77.89.31.23-.93,1.34-.43a.39.39,0,0,0-.4-.23c.06-.16.19-.21.41-.05-.13-.58-.47-.39-.44-.94.15,0,.2.13.37.2a.9.9,0,0,1-.33-1c.09,0,.21,0,.19.14a5.48,5.48,0,0,0-.15-1.14A1.3,1.3,0,0,1,3.68,14c.52.45.3-.22.83-.06a3.85,3.85,0,0,1,0-.48l-.33.06c.19-.35,0-.87.29-1.11,0,.12,0,.25.07.38a6.3,6.3,0,0,1,.28-.72l-.41.27c0-.51-.65-.3-.22-.72,0,.13.22-.39.63-.38h0c0-.27,0-.56.26-.74.19,0,.45.43.58.45-.28-.46.52-.81.32-1.35a.68.68,0,0,0,.3.37l-.16-.39c.22-.06.29,0,.43.15.47-.34-.64-.37.09-.64,0,.06,0,.09,0,.21.6-.37.88-1.08,1.53-1.29.46.36-.39.42.06.69C8.9,8.15,9.49,7.13,10.4,7h-.18c-.16-.77.75.1,1.07-.35-.09.09,0,.46,0,.37a1.93,1.93,0,0,0,.89-.32c.33-.14.68-.36,1.14-.53l-.1.21a8.35,8.35,0,0,0,1.35.13c.12-.2.36-.17.21-.47,1.29,1.17,2.46-.62,3.6.35-.14,0-.33.18-.22.18l1-.19C19,6,19,6.12,18.79,5.85a.81.81,0,0,1,.64-.36c-.44.23,0,.55.19.75,0-.11,0-.23,0-.34.5.62.08-.69.78-.28l0,.18c.26-.09.5-.33.78-.28.11.4-.28.19-.3.52.4,0,.78-.76,1.13-.36-.16.11-.4.11-.57.22.39.48.43.36.72.43h0l.67.21-.17-.12c.49-1,1-.2,1.66-.88-.64.65-.11.37-.16.83.17.13.43.27.36.39.31-.36.52.29,1-.24,0,.14.34,0,.27.38.4-.12-.1-.26-.07-.44.63-.5,1.48.61,2.38-.08.78-.28.92-.77,1.64-1,.25.23-.2.53-.2.53a1,1,0,0,0,1.06,0c-.07.13,0,.24.12.4.3,0,.2-.53.59-.32a1.94,1.94,0,0,1-.3.59c.35-.13.7-.41,1.06-.54.1.26-.22.39-.34.56.4-.12,1-.24,1.18-.64l-.26-.14c.14,0,.07.34,0,.42-.35.31-.5-.14-.52-.29l.26-.09C32,5,31.22,6,30.7,5.92l.22-.62-.54.52c-.11-.16-.19-.51.07-.61-.37-.3-.33.23-.65-.12a.07.07,0,0,1,0-.11l-.36.19c.07-.13-.06-.44.16-.35-.65-.36-1.05.47-1.3,0l.06,0c-.91.21-.09.45-.77,1l-.46-1.13-.09.46c-.09,0-.28,0-.24-.23-.35.31.06.19-.15.49-.45-.42-1.24.2-1.34-.53-.16.34.43.26-.05.51-.14-.79-.56.13-1-.23.13-.4.52-.19.11-.55-.25.68-.8-.15-1.15,0,0,.55-.76.23-1.34.41,0-.18-1.09-.3-1.63-.5V4.36c-.1.55-.66.45-1.07.56a.65.65,0,0,1,.31-.61h-.38a.62.62,0,0,1-.46.33l.1-.41c-.51,0-1,.48-1.68.21,0,.38.52,1.07-.18,1.32,0-.2-.05-.56.13-.64-.06,0-.21.17-.33.08L17,4.86c-.3-.15-.16.29-.39.26,0-.3-.18-.21-.15-.45.06,0,.21.13.3,0a1,1,0,0,1-.7-.45c0,.17,0,.4-.2.43-.51,0-.17-.35-.47-.5-.12.2-.45,0-.45.43-.15,0-.18-.21-.24-.33-.23.18-1.31.11-1,.56l.07,0,0,0h0a1.7,1.7,0,0,1-.68.19,4.07,4.07,0,0,1-.7,0A2.48,2.48,0,0,0,11,5.25l0-.14c-.48.27-1.11.48-1.35.9-.15,0-.45-.1-.46-.29-.33.29-.29.45-.94.51.26-.42-.24-.14.3-.36-.55.12-.79,0-1.07.66,0-.43-.63-.19-.78.07h.48a3.49,3.49,0,0,1-.66.47l-.19-.48c-.66.11-.92.65-1.11,1.15s-.39.89-1.06.89c.06.46.59-.3.72.18-.38.32-1.31.29-1.4.44-.65.46.16,1-.36,1.49a.57.57,0,0,1,.52.73c-.3.39-1,.18-.93-.17,0-.12.13-.14.18-.11,0-.17.08-.4-.2-.32L2.8,11c-.3.12-.61.79-.79.51,0,.44.19.28.4.06-.51.5-.49.94-.86,1.54.13-.07.36-.09.32,0-.54.89.15.53,0,1.19-.35.29-.59-.31-.53.42-.28.37-.49,0-.58-.23.15.7-.47,1.15-.59,1.53l-.09-.37a1.36,1.36,0,0,1,0,.57L.5,16.1c-.09.19-.11.36-.26.34.21.23.6-.09.88.34-.2.25.15.79-.32.86.2-.82-.48.08-.52-.64a.71.71,0,0,1,0,.51s-.09,0-.12-.09c-.45.81.51.42.5,1.16-.27-.09-.51.17-.45.29,0-.3.44-.14.65.13-.21.48.15.52.13.77L1,19.48c.27.1.23.34.32.67-.21,0-.14-.3-.24-.18.47.36-.48.83-.16,1.34-.18.24-.5,0-.63.23.35.57-.36.62-.08,1.23.36-.18.27-.21.62.22L.62,22l.52.64c0-.3-.22-.63-.16-.81.29.3.2.27.5.13-.54.41.31.81-.05,1.29l-.89,0c-.39.71.46,1.27.23,2.19l.16-.3c.35.13,0,.57.19.87-.3,0-.4.16-.59.29.22,0,0,.68.57.76l-.39.42c-.16.74.85.85.75,1.57-.33-.22-.54.11-.77-.38,0,.24,0,.46.15.46-.18.14.4.67.12.89.13.1.44.13.41.4a.2.2,0,0,1-.14,0c.14,0,.2.42.53.19-.93.74.06,2.06-.73,2.7a12.56,12.56,0,0,1,.21,1.63c-.08,0-.14,0-.11-.09-.28.66.85.4.54,1.15-.48.38-.26-.4-.44-.16-1,.1.13.9-.44,1.4l-.05-.12c-.33.38.36.93.33,1.62a.2.2,0,0,0-.14,0,4.93,4.93,0,0,1,1,1.85c-.4-.12-.24-.24-.6-.05.11.27.58-.19.81.33-.16.21-.24.65-.62.82l-.15-.53c-.45.4.18.7.17,1l-.23,0c.38.79.88.62,1.21,1.44l.12-.16c.73.19-.12.51.47.75l-.45.41c.3.21,1,.71,1.48,1.08-.56,0-1.1-.46-1.55-.71.17.29.61,1,1,.91-.12-.07-.35-.12-.34-.29a2.08,2.08,0,0,1,1.46.84c-.48.32-.26.69,0,1.09s.73.77.61,1.28c1.16.44,1.74,1.63,3.08,2.19-.05-1,.37.16.68-.71.3.09.41.12.41.19l.69.85c.14.34-.35.08-.39.29.66.32.16.47.56.85,0-.34.38-.39.76-.16l-.46-.56c1.07-.21.67,1,1.79.67l-.37.24c.53,0,2,.2,2.47-.53.08.1.18.35,0,.42,1.08.11,2.41-.78,3.25-.33l-.08.22c.2-.06.35-.42.6-.19,0,.09-.08.22,0,.23s.54-.39.81-.26l-.23.25c1.06.3,1.62-.61,2.51-.76,0,.66.83.87,1.24,1v.09c1.23.08,2.09-.55,3.23-.8.71.71,2.39.3,3.53.7-.17-.12,0-.52.23-.58.27.13.74-.46.7.14h-.1c.2.6.75.44,1.18.45l.07-.79c1.12,1.15,2.93-.42,3.55.61.27-.2.6-.19.87-.39l0,.42a6.54,6.54,0,0,0,2,.06l-.19.31c.53,0,.66-1.23,1.14-1.25l.15.63c.91,0,1.83.55,2.73,0,0,.1,0,.28-.19.3.43,0,1.66.43,1.51-.44,0,.57.94.06,1.43-.19l-.08.42c.42-.54.43-.68,1-.83.14,0,.12.33-.06.23.45.22.35-.4.91-.18l-.21.27c.47,0,.44-.11.69-.42a.77.77,0,0,1,1,.48c.06-.23.32-.54.6-.43a.3.3,0,0,1-.12.28c.79.28,1.17-.49,1.71-.08a.37.37,0,0,0,.1.25A5.54,5.54,0,0,1,49,51.84c0,.38.51.45.11,1,.4-.29,1.1-.92,1.59-.74a.52.52,0,0,1,.06.13l-.05,0A.37.37,0,0,0,51,52.2a1,1,0,0,0,.4.11c.06.32.58.17.83.19,0-.42.31-.35,0-.7,0,0,0,.05-.21.07a.21.21,0,0,0-.11,0l0,0-.63,0c.2-.21.41-.39.69-.16.13-.27.27-.55.35-.68.35.59,1,.91,1.1,1.27.78-.25,1.79-.14,2.32-1,.23-.12.28.21.38.33-.13.09-.3.08-.37.2a6.39,6.39,0,0,1,.89-.23c.3-.1.55-.26.56-.54.62.16-.25.56.55.34l-.08.18a1.37,1.37,0,0,0,1.15-.09,2.74,2.74,0,0,0,.87-.69,2.4,2.4,0,0,1,2.05-1c-.14,0-.21,0-.28-.07A5.65,5.65,0,0,0,64,48c.36-.37.69-.75,1-1.13a8.35,8.35,0,0,1,1.18-1c.48-.37.18-.65.13-1.07l.45.13c0-.26-.1-.51-.17-.76,0-.46.4-.65.78-.92A1.09,1.09,0,0,0,67.9,42l-.34,0c.18-.34.12-1.18.46-1,0,0-.28-.19-.09-.3l.23,0c-.07-.33-.17-.66-.25-1,.25-.69,1,.24,1.08-.84-.07-.43-.64-1.16-.8-1a.47.47,0,0,1-.41.4L67.67,38c-.69-.07-1.4-.27-1.92.43l.4.54-.35.13v-.42c-.33.21,0,.38.12.57a.59.59,0,0,0-.4.16l.58.59c-.27,0-.5-.3-.69,0,.27.29.63-.11.77.31-.37.18-.6.05-.41.39a.33.33,0,0,1-.33-.21c.15.29-.06.66.25.89-.46.12-.19.85-.8.59a1.13,1.13,0,0,1,.24.83c-.55-.71-.4.78-1.13.27.48.6-.27,1.09-.29,1.75,0-.06-.08-.18,0-.19-.23.21-.44.16-.68.21.43.4.21.85.29,1.31-.67-.11-.34-.65-.82-.93.37.32-.11.79.25,1-.45,0-.3.05-.74-.21.46.58-.09.29,0,.77-.56,0-.51-.47-.73,0C61,46.68,61.11,46.23,61.11,46.23ZM50.52,49.49h0l.26,0Zm-1.06,0a3.37,3.37,0,0,0,.46,0c0,.15,0,.3-.11.29C49.87,49.7,49.62,49.62,49.46,49.5Zm2.24,2.92c-.17.06-.23,0-.25-.11l.29-.05,0,0A.65.65,0,0,1,51.7,52.42Z" transform="translate(0 -0.69)"/><path class="cls-1" d="M52,51.87l.07,0-.1-.09-.06.13Z" transform="translate(0 -0.69)"/><path class="cls-1" d="M13.76,4.82h0l.06.06A.13.13,0,0,1,13.76,4.82Z" transform="translate(0 -0.69)"/><polygon class="cls-1" points="34.84 48 34.84 48.1 34.93 48.01 34.84 48"/><path class="cls-1" d="M19.62,6.24a.18.18,0,0,0,.08.1Z" transform="translate(0 -0.69)"/><path class="cls-1" d="M22.14,6.33l.36.15A1.74,1.74,0,0,0,22.14,6.33Z" transform="translate(0 -0.69)"/><path class="cls-1" d="M24.08,6.54a.67.67,0,0,0,0-.18h0Z" transform="translate(0 -0.69)"/><path class="cls-1" d="M3.77,19.63a.19.19,0,0,0,0,.08C3.87,19.88,3.84,19.76,3.77,19.63Z" transform="translate(0 -0.69)"/><path class="cls-1" d="M4.84,11.25c0,.11,0,.23,0,.34C5,11.47,5,11.39,4.84,11.25Z" transform="translate(0 -0.69)"/><polygon class="cls-1" points="4.28 29.18 4.27 29.18 4.27 29.24 4.28 29.18"/><path class="cls-1" d="M4.65,11.93a.4.4,0,0,0,.21-.34A.58.58,0,0,0,4.65,11.93Z" transform="translate(0 -0.69)"/><path class="cls-1" d="M32.47,6.73l.1,0a.08.08,0,0,1,0-.07Z" transform="translate(0 -0.69)"/><path class="cls-1" d="M32.58,6.68l.1,0S32.59,6.63,32.58,6.68Z" transform="translate(0 -0.69)"/><path class="cls-1" d="M32.9,6.52l-.22.11C32.76,6.63,32.85,6.65,32.9,6.52Z" transform="translate(0 -0.69)"/><path class="cls-1" d="M29.91,6.54l0,.15A1,1,0,0,0,29.91,6.54Z" transform="translate(0 -0.69)"/><path class="cls-1" d="M29.13,6.58c.18,0,.46.33.72.23l0-.12C29.76,6.92,29.31,6.32,29.13,6.58Z" transform="translate(0 -0.69)"/><path class="cls-1" d="M25.88,4.69l.65.12c-.12-.16-.27-.38,0-.42C25.74,3.91,26.73,4.76,25.88,4.69Z" transform="translate(0 -0.69)"/><path class="cls-1" d="M23.85,4.45c.35-.07,0-.23,0-.32C23.64,4.27,23.59,4.31,23.85,4.45Z" transform="translate(0 -0.69)"/><path class="cls-1" d="M9,5.66l-.13-.37C8.61,5.47,8.91,5.43,9,5.66Z" transform="translate(0 -0.69)"/><polygon class="cls-1" points="7.64 8.1 7.97 8.15 7.85 7.79 7.64 8.1"/><path class="cls-1" d="M4.55,7.89l0-.13c-.09.15-.17.31-.25.47C4.42,8.12,4.47,8,4.55,7.89Z" transform="translate(0 -0.69)"/><path class="cls-1" d="M.57,32.72,1,32.63C1,32.45.43,32.41.57,32.72Z" transform="translate(0 -0.69)"/><path class="cls-1" d="M2.24,43.61c-.16.21-.16.58.14.66C2.3,44,2.36,43.7,2.24,43.61Z" transform="translate(0 -0.69)"/><polygon class="cls-1" points="32.02 51.79 31.81 51.95 32.21 51.81 32.02 51.79"/></g></g></svg>