<svg xmlns="http://www.w3.org/2000/svg" viewBox="0 0 404.73 226.52"><defs><style>.cls-1{fill:#292929;}.cls-2{fill:none;}</style></defs><title>NBB_Logo Mark</title><g data-name="Layer 2"><g data-name="Layer 1"><path class="cls-1" d="M387.12,167.23c0-27.85-14.77-56.65-44.28-56.65-13.33,0-27.85,7.86-35.94,20.47v67.84c8.57,9.28,22.61,22.38,39.75,22.38,25.7,0,40.47-19,40.47-54ZM289,62c0-20.47-3.33-18.33-15.23-16.18-1.9.24-1.9-1.91,0-2.15,11.9-2.14,20.71-8.57,28.8-13.09.72-.47,4.29.48,4.29,1.67v96.16c11.19-15.94,29.28-25.7,47.61-25.7,27.13,0,50.22,23.09,50.22,55.93,0,39.28-33.8,67.84-68.08,67.84a53.07,53.07,0,0,1-36.18-14.28c-7.62,10.48-9,12.14-10.24,12.14-.71,0-1.19-.71-1.19-2.14Z"/><path class="cls-1" d="M124,224.14c-1.9,0-17.36-.48-21.17-.48-3.59,0-13.35.48-20.25.48-1.9,0-1.9-2.15,0-2.15C92.35,222,95,220.33,95,199.38l-.24-50.7c-.24-29.52-14.27-38.8-28.8-38.8-15,0-24.76,6.66-35.94,21.66V222H42.36c1.92,0,1.92,2.15,0,2.15s-14.27-.48-18.08-.48c-3.57,0-15.94.48-22.86.48-1.89,0-1.89-2.15,0-2.15,10.24,0,10.71-2.85,10.71-26.18V134.4c0-6.91-5.47-13.1-10.94-18.09-.72-.72-.47-1.19,0-1.43,4.28-1.67,13.32-5.95,17.37-10,.48-.48.72-.48,1.43.24,4.29,4.28,9.29,13.8,9.76,23.56,9.09-12.12,19-20.64,31.09-24.15a46,46,0,0,1,12.94-1.79c1.34,0,2.68,0,4,.13,19.56,1.35,34.83,13.16,34.83,48.19v49.75c0,20.94,3.33,21.42,11.42,21.18C125.91,222,125.91,224.14,124,224.14Z"/><path class="cls-1" d="M266,153.16c-4.55-3.25-8.2-8.93-10.84-15.87h-11.3c4.84,10.84,12.8,18,22.36,20.21C266.19,156,266.11,154.58,266,153.16Z"/><path class="cls-1" d="M266.21,157.5c-9.56-2.19-17.52-9.37-22.36-20.21h11.3c2.64,6.94,6.29,12.62,10.84,15.87-2.4-29.88-24.4-50.42-50-50.42-18.32,0-36.4,9.75-47.61,25.7v-.18l-.13-54.64c0-.12.07-4.71.05-5.3s0-1,0-1.52V65.56c0-.53,0-1.07,0-1.6v-.15c0-3.56,0-7.05,0-10.28,0-2.09,0-4.08-.1-5.92a67.2,67.2,0,0,0-2.57-17c-.37-1.3-.81-2.55-1.28-3.74a35.13,35.13,0,0,0-9.65-14.12A33.2,33.2,0,0,0,151,10,68.39,68.39,0,0,0,114.31,0C95.43.5,76.54,9.86,66.19,23.88a46.83,46.83,0,0,0-3.72,5.91c-.6,1.06-1.13,2.14-1.62,3.24l-.19.45c-.07.15-.13.31-.19.48s-.13.31-.19.47a65,65,0,0,0-3,10.23c-2.07,9.53-3.3,23.64-.19,42.39.14,1.14.3,2.23.46,3.29.34,2.19.71,4.2,1.08,6,.06.29.1.58.17.87s.12.53.21.8c.12.46.2.92.32,1.35s.25.87.37,1.28c0,0,0,0,0,.07.12.46.24.87.36,1.3s.34,1.09.49,1.57c.1.33.2.65.31,1,.19.51.37,1,.56,1.47s.26.6.38.89.31.6.46.89A27.82,27.82,0,0,1,72,105.25a44.49,44.49,0,0,1,5.24-.1,19.76,19.76,0,0,0,.51-2.28s0-.05,0-.07a18.34,18.34,0,0,0,.1-5.74,10.49,10.49,0,0,0-1.14-3.75.55.55,0,0,0,0-.12,11.17,11.17,0,0,0-1.35-2.39c-1.71-2.42-4.49-5.14-7.29-8.36-3.83-4.37-7.7-9.65-9-16.27a24,24,0,0,1-.46-3.46c0-.47,0-1,0-1.43A65.12,65.12,0,0,1,61,45.3c.54-2,1.1-3.78,1.58-5.29l.15-.42a2.06,2.06,0,0,1,.12-.35c.37-1.18.77-2.34,1.25-3.49,0-.09.06-.16.09-.23a.54.54,0,0,0,.06-.16.19.19,0,0,0,0-.09,47.17,47.17,0,0,1,5.5-9.72C79.43,12.49,97,3.77,114.46,3.33c1.47,0,3,0,4.45.06H119A35.56,35.56,0,0,1,129.85,6l.22.1c.25.1.52.22.77.34l.81.39c.63.31,1.23.63,1.78.94l0,0a25.84,25.84,0,0,1,6,4.49l.19.21.07.08c.12.14.23.26.31.37l.19.24.18.24a.24.24,0,0,1,.06.08,26.12,26.12,0,0,1,2.63,4.4c2.51,5.2,4.18,12.28,5.13,21.59.17,1.42.3,2.89.42,4.44v0c.07.85.21,2.25.33,3.55l0,.19s1.52,15.13,1.52,28.26V222.23c0,1.42.48,2.15,1.2,2.15,1.18,0,2.61-1.67,10.24-12.14a53.06,53.06,0,0,0,36.16,14.28c34.29,0,68.09-28.57,68.09-67.85C266.22,158.28,266.22,157.89,266.21,157.5Zm-58.06,63.79c-17.16,0-31.19-13.11-39.77-22.39V131.07c8.11-12.62,22.61-20.49,36-20.49,29.5,0,44.27,28.81,44.27,56.66C248.61,202.25,233.84,221.29,208.15,221.29Z"/><path class="cls-1" d="M62.57,40a.13.13,0,0,0,0,0c0-.12.07-.25.12-.37Z"/><path class="cls-1" d="M300.91,137.29A45.81,45.81,0,0,1,289,152.12a26.58,26.58,0,0,1-16.51,6.09,28,28,0,0,1-6.32-.71c-9.56-2.19-17.52-9.37-22.36-20.21h11.3c2.64,6.94,6.29,12.62,10.84,15.87a15,15,0,0,0,8.87,3c5.82,0,10.58-2.84,14.18-8.06A38,38,0,0,0,294,137.29Z"/><line class="cls-2" x1="167.18" y1="128.73" x2="167.18" y2="128.38"/><line class="cls-2" x1="168.33" y1="62.28" x2="168.27" y2="81.27"/><path class="cls-1" d="M60.28,34.43a65,65,0,0,0-3,10.23A47.79,47.79,0,0,1,60.28,34.43Z"/><path class="cls-1" d="M62.47,29.76v0c-.6,1.06-1.13,2.14-1.62,3.24A25.26,25.26,0,0,1,62.47,29.76Z"/><path class="cls-2" d="M64.09,35.75c-.25.63-.7,1.85-1.26,3.49"/><path class="cls-2" d="M115.51,3.31a27.42,27.42,0,0,1,3.4.08"/></g></g></svg>