<svg xmlns="http://www.w3.org/2000/svg" viewBox="0 0 897.03 74.34"><defs><style>.cls-1{fill:#292929;}</style></defs><title>Refined Work Mark</title><g id="Layer_2" data-name="Layer 2"><g id="Layer_1-2" data-name="Layer 1"><path class="cls-1" d="M507.86,14.33l-.31.28-1.29,1.07c-1.9,1.62-3.5,2.93-4.86,4-2.54,1.94-4.31,2.93-5.76,3.28a5.21,5.21,0,0,1-3-.26l-6.91-2.43c-.64-.24-.33-.87.24-.67,2.86,1,7.37-.53,16.55-7.94l1.79-1.42a.29.29,0,0,1,.39,0l1.78,2,1.16,1.29.3.35a.3.3,0,0,1,0,.41"/><path class="cls-1" d="M504.09,73.35c-2.24,0-6.27-.16-7.42-.16s-5.57.16-7.82.16c-.61,0-.61-.7,0-.7,4.43,0,4.72-1.17,4.72-7.83V44.1c0-.25,0-.49,0-.73a10.75,10.75,0,0,0-.41-3.48.36.36,0,0,1-.06-.1,1.51,1.51,0,0,0-1.42-.79H470.92V63.31c0,5.63,1.79,8.61,5.05,8.61s6.16-2.9,7.95-8.13c.24-.61,1.31-.15,1,.47-2.48,5.07-7,10.08-12.37,10.08-5.21,0-7.46-3.29-7.46-10.78V38.83h-4.28c-.07,0-.16-.24,0-.39l10-11.47c.15-.17.3-.25.3.07V34.6c1.61,0,4.75,0,7.41,0h7.95l.84,0h.15c1.33,0,3.33-.08,6.11-.33h0l2.91-.32a.3.3,0,0,1,.13,0h.12l1.38-.15h.07l.75-.09a.52.52,0,0,1,.52.51V64.82c0,6.66.31,7.83,4.64,7.83C504.7,72.65,504.7,73.35,504.09,73.35Z"/><path class="cls-1" d="M522.11,70.36c4.35,0,11.28-7.81,12-10.38.07-1,.47-4.84.47-11.24V47.1l-6.38,2.73C516.74,54.67,514,57,514,62.78c0,4.22,4.27,7.58,8.09,7.58m-13.54-5.31c0-5.23,5.06-10.38,19.45-16l6.46-2.5c-.32-9.75-2.8-12.72-8.33-12.72-6.84,0-8.32,6.17-10,8.67-.7,1-1.4,1.4-3.5,1.4-1.87,0-3.12-.7-3.12-1.79,0-.94.78-2.42,2.73-3.67,3.11-2,9.64-5.31,15.17-5.31,7.62,0,13.15,4,13.15,14.21,0,5.22-.63,14-.63,17.08,0,4.45.55,6.64,2.18,6.64,1.4,0,3.35-2.74,4.2-4.29.39-.63,1.33,0,.94.62-1.25,1.79-6.15,6.32-9.18,6.32s-4.44-2-4.44-5.54c0-2,.16-4.76.31-6.4-2.1,3.59-10.27,12-15.71,12-6.23,0-9.65-4-9.65-8.74"/><path class="cls-1" d="M569,33.13c1.87,0,3.5.39,3.5,1.41,0,1.25-1.17,4.05-3.89,4.05h-2.88c-5.6,0-6.15.79-6.15,7.5V72.23h4.75c.62,0,.62.7,0,.7s-5.68-.16-6.92-.16-5.68.16-7.94.16c-.62,0-.62-.7,0-.7,3.81,0,4.36-.47,4.36-8.59V43.51c0-2.26-1.79-4.29-3.58-5.93-.24-.23-.16-.39,0-.47a18.85,18.85,0,0,0,5.37-3.27c.15-.16.23-.16.46.07a12.61,12.61,0,0,1,3.35,7.18,11.18,11.18,0,0,1,5.13-6.63A8.21,8.21,0,0,1,569,33.13"/><path class="cls-1" d="M307.13,72.23c10.34,0,14.78-4.61,14.78-14.05,0-8.66-4.36-13-15.56-13h-9.88v7.57c0,19.19.23,19.51,4,19.51ZM296.47,44.29h8.87c9.65,0,14.78-3.43,14.78-12.8s-5.06-11.7-15-11.7h-5.6c-3.81,0-3,.08-3,19.27ZM284.72,72.23h1.4c3.81,0,4.2-.32,4.2-19.51V39.06c0-19.19-.39-19.5-4.2-19.5h-1.4c-.62,0-.62-.71,0-.71,2.18,0,7.47.24,8.63.24s11.52-.24,12.92-.24c13.07,0,20.46,3.12,20.46,12.72,0,7.81-6.61,11.79-15.87,13,10,.86,17.66,5.23,17.66,13.66,0,9.29-6,14.75-20.23,14.75-1.4,0-13.84-.23-14.94-.23s-6.45.23-8.63.23c-.62,0-.62-.7,0-.7"/><path class="cls-1" d="M418.62,72.93c-.62,0-.62-.7,0-.7,3.34,0,3.5-.94,3.5-8.59V19.79c0-6.71-1.09-6.79-5-6.09-.62.08-.62-.62,0-.7a29,29,0,0,0,9.42-3.51c.23-.16,1.39.16,1.39.55V41.48c3.89-5.23,8.33-8.35,14.24-8.35,7,0,12.68,3.59,12.68,15.84V69c0,3,1.09,3.27,3.74,3.2.62,0,.62.7,0,.7s-5.68-.16-6.93-.16-4.59.16-6.84.16c-.63,0-.63-.7,0-.7,3.5,0,4.12-.16,4.12-8.43V48.19c0-9.67-4.59-12.72-9.34-12.72s-8.09,2.11-11.67,7V72.23h4.75c.62,0,.62.7,0,.7s-5.37-.16-6.61-.16-5.21.16-7.47.16"/><path class="cls-1" d="M417.11,72.36c-3,0-6.76-3-13-13l-7.53-12,1-1c7.37-7.72,12.72-11.45,17.62-11.45a.36.36,0,1,0,0-.71c-.55,0-7.38.16-8.46.16s-5.67-.16-7.77-.16a.36.36,0,1,0,0,.71c4.51,0,4.82,4-1.93,11L384.9,58.51V35l0-8.27V24.22s0-.69,0-1.2V20.49c0-.5,0-1,0-1.47v0c0-.47,0-.93,0-1.38,0-.68,0-1.34,0-1.94a21.72,21.72,0,0,0-.84-5.6c-.12-.43-.27-.84-.42-1.23a11.46,11.46,0,0,0-3.18-4.64,10.73,10.73,0,0,0-1.23-.93A22.48,22.48,0,0,0,367.14,0c-6.22.16-12.43,3.24-15.84,7.85a16.21,16.21,0,0,0-1.22,1.94h0c-.1.17-.19.34-.28.52a.67.67,0,0,1-.06.12l-.08.17c0,.08-.07.16-.11.25s0,.09-.06.15,0,.1-.07.15l-.06.16c0,.1-.08.2-.12.32l-.18.5-.17.5c0,.16-.09.31-.14.48v0c-.06.17-.11.36-.16.55l-.06.25-.06.25a4,4,0,0,0-.11.5,37.15,37.15,0,0,0-.06,13.94c0,.38.1.73.15,1.09.12.72.23,1.38.36,2l.05.29a2,2,0,0,0,.07.26c0,.15.07.31.1.44s.09.29.13.43v0l.12.43s0,.1.05.14c-.48.09-1,.2-1.43.32a37.71,37.71,0,0,0-10.41,4.63c-1.94,1.25-2.71,2.72-2.71,3.66s1.24,1.79,3.09,1.79c2.1,0,2.8-.39,3.5-1.4,1.39-2,2.63-6.5,6.75-8.08a9.13,9.13,0,0,1,1.37-.39,10.14,10.14,0,0,1,1.89-.17,11.52,11.52,0,0,1,1.71.11,8.23,8.23,0,0,1,1.66.42c3.18,1.21,4.7,4.7,4.94,12.16l-6.45,2.49c-14.35,5.6-19.4,10.74-19.4,16,0,4.74,3.42,8.72,9.63,8.72,5.43,0,13.57-8.41,15.67-12-.14,1.65-.31,4.37-.31,6.39,0,3.51,1.47,5.53,4.43,5.53s7.91-4.52,9.16-6.31c.39-.62-.55-1.24-.93-.62-.86,1.56-2.8,4.29-4.2,4.29-1.63,0-2.17-2.19-2.17-6.62,0-3,.63-11.84.63-17.06,0-9-4.32-13.17-10.59-14a.77.77,0,0,0,0-.15,5.59,5.59,0,0,0,0-1.44,3.6,3.6,0,0,0-.37-1.23l0,0a3.13,3.13,0,0,0-.45-.78c-.56-.8-1.48-1.7-2.39-2.75a15.84,15.84,0,0,1-2.09-2.92,8.91,8.91,0,0,1-.88-2.43,7.26,7.26,0,0,1-.15-1.14c0-.16,0-.32,0-.48a21.11,21.11,0,0,1,.8-5.25c.19-.65.37-1.25.52-1.74h0a.84.84,0,0,0,0-.12l0-.12a1.59,1.59,0,0,1,.07-.2,1.13,1.13,0,0,1,.08-.22,2.43,2.43,0,0,1,.13-.38.64.64,0,0,0,.06-.16,1.6,1.6,0,0,0,.07-.19.16.16,0,0,1,0-.07s0,0,0,0v0a15.81,15.81,0,0,1,1.82-3.19,19.36,19.36,0,0,1,14.69-7.32c.49,0,1,0,1.47,0h0a11.45,11.45,0,0,1,3.56.86l.07,0,.26.11.26.13.59.31a0,0,0,0,1,0,0,8.65,8.65,0,0,1,1.85,1.35l.13.13.06.07,0,0,.09.12a.27.27,0,0,1,.07.08.5.5,0,0,1,.05.07l0,0a9.1,9.1,0,0,1,.86,1.45,18.71,18.71,0,0,1,1.47,5.38,0,0,0,0,1,0,0c.08.54.15,1.11.21,1.7s.09.95.13,1.46h0c0,.28.07.75.12,1.17v.06s.32,3.23.45,6.75v.09c0,.16,0,.33,0,.49,0,.66,0,1.32,0,2V67.76c0,.48-.05.91-.08,1.3-.27,2.85-1.05,3.29-3.36,3.29-.62,0-.62.71,0,.71.94,0,2.21,0,3.44-.06l1.41,0h4.43l4.74.1c.61,0,.61-.7,0-.7H384.9V59.43l8-8.16,6.37,10.66c3.57,6.15,5.67,9.1,7.6,10.36a5.14,5.14,0,0,0,3,.77h7.29C417.81,73.06,417.73,72.36,417.11,72.36ZM359.77,48.92c0,6.39-.39,10.2-.47,11.22-.7,2.56-7.61,10.35-11.95,10.35-3.81,0-8.08-3.35-8.08-7.55,0-5.76,2.72-8.1,14.14-12.92l6.36-2.73Z"/><path class="cls-1" d="M812.1,14.33l-.32.28-1.29,1.07c-1.89,1.62-3.49,2.93-4.86,4-2.54,1.94-4.3,2.93-5.76,3.28a5.22,5.22,0,0,1-3-.26l-6.9-2.43c-.64-.24-.33-.87.24-.67,2.85,1,7.36-.53,16.55-7.94l1.79-1.42a.28.28,0,0,1,.38,0l1.79,2,1.16,1.29.29.35a.31.31,0,0,1,0,.41"/><path class="cls-1" d="M808.32,73.35c-2.23,0-6.26-.16-7.41-.16s-5.57.16-7.82.16c-.62,0-.62-.7,0-.7,4.42,0,4.71-1.17,4.71-7.83V44.1c0-.25,0-.49,0-.73a11,11,0,0,0-.41-3.48s0,0-.07-.1A1.5,1.5,0,0,0,795.9,39H775.16V63.31c0,5.63,1.79,8.61,5.05,8.61s6.16-2.9,7.95-8.13c.23-.61,1.31-.15,1,.47-2.48,5.07-7,10.08-12.38,10.08-5.2,0-7.45-3.29-7.45-10.78V38.83h-4.28c-.08,0-.17-.24,0-.39L775,27c.15-.17.3-.25.3.07V34.6c1.61,0,4.75,0,7.4,0h8l.84,0h.15c1.33,0,3.33-.08,6.1-.33h0l2.92-.32a.27.27,0,0,1,.12,0H801l1.37-.15h.08l.75-.09a.51.51,0,0,1,.51.51V64.82c0,6.66.32,7.83,4.64,7.83C808.94,72.65,808.94,73.35,808.32,73.35Z"/><path class="cls-1" d="M826.34,70.36c4.36,0,11.29-7.81,12-10.38.08-1,.47-4.84.47-11.24V47.1l-6.38,2.73c-11.43,4.84-14.16,7.18-14.16,13,0,4.22,4.28,7.58,8.09,7.58m-13.53-5.31c0-5.23,5.05-10.38,19.45-16l6.45-2.5c-.31-9.75-2.8-12.72-8.32-12.72-6.85,0-8.33,6.17-10,8.67-.7,1-1.4,1.4-3.5,1.4-1.87,0-3.11-.7-3.11-1.79,0-.94.78-2.42,2.72-3.67,3.11-2,9.65-5.31,15.17-5.31,7.63,0,13.15,4,13.15,14.21,0,5.22-.62,14-.62,17.08,0,4.45.54,6.64,2.18,6.64,1.4,0,3.34-2.74,4.2-4.29.39-.63,1.32,0,.93.62-1.24,1.79-6.14,6.32-9.18,6.32s-4.43-2-4.43-5.54c0-2,.15-4.76.31-6.4-2.1,3.59-10.27,12-15.72,12-6.22,0-9.64-4-9.64-8.74"/><path class="cls-1" d="M873.19,33.13c1.87,0,3.51.39,3.51,1.41,0,1.25-1.17,4.05-3.9,4.05h-2.87c-5.61,0-6.15.79-6.15,7.5V72.23h4.75c.62,0,.62.7,0,.7s-5.68-.16-6.93-.16-5.68.16-7.93.16c-.63,0-.63-.7,0-.7,3.81,0,4.35-.47,4.35-8.59V43.51c0-2.26-1.79-4.29-3.58-5.93-.23-.23-.15-.39,0-.47a18.72,18.72,0,0,0,5.37-3.27c.16-.16.24-.16.47.07a12.67,12.67,0,0,1,3.34,7.18,11.23,11.23,0,0,1,5.14-6.63,8.18,8.18,0,0,1,4.43-1.33"/><path class="cls-1" d="M611.36,72.23c10.35,0,14.79-4.61,14.79-14.05,0-8.66-4.36-13-15.57-13H600.7v7.57c0,19.19.24,19.51,4,19.51ZM600.7,44.29h8.87c9.65,0,14.79-3.43,14.79-12.8s-5.06-11.7-15-11.7h-5.6c-3.81,0-3,.08-3,19.27ZM589,72.23h1.4c3.81,0,4.2-.32,4.2-19.51V39.06c0-19.19-.39-19.5-4.2-19.5H589c-.63,0-.63-.71,0-.71,2.17,0,7.47.24,8.63.24s11.52-.24,12.92-.24C623.58,18.85,631,22,631,31.57c0,7.81-6.61,11.79-15.87,13,9.95.86,17.66,5.23,17.66,13.66,0,9.29-6,14.75-20.23,14.75-1.4,0-13.85-.23-14.94-.23s-6.46.23-8.63.23c-.63,0-.63-.7,0-.7"/><path class="cls-1" d="M722.86,72.93c-.63,0-.63-.7,0-.7,3.34,0,3.5-.94,3.5-8.59V19.79c0-6.71-1.09-6.79-5-6.09-.63.08-.63-.62,0-.7a28.89,28.89,0,0,0,9.41-3.51c.23-.16,1.4.16,1.4.55V41.48c3.89-5.23,8.33-8.35,14.24-8.35,7,0,12.68,3.59,12.68,15.84V69c0,3,1.09,3.27,3.74,3.2.62,0,.62.7,0,.7s-5.68-.16-6.93-.16-4.59.16-6.84.16c-.63,0-.63-.7,0-.7,3.5,0,4.12-.16,4.12-8.43V48.19c0-9.67-4.59-12.72-9.34-12.72s-8.09,2.11-11.67,7V72.23h4.75c.62,0,.62.7,0,.7s-5.37-.16-6.62-.16-5.21.16-7.46.16"/><path class="cls-1" d="M721.35,72.36c-3,0-6.76-3-13-13l-7.52-12,1-1c7.37-7.72,12.72-11.45,17.61-11.45a.36.36,0,1,0,0-.71c-.54,0-7.37.16-8.45.16s-5.67-.16-7.77-.16a.36.36,0,1,0,0,.71c4.5,0,4.81,4-1.94,11L689.14,58.51V24.22s0-.69,0-1.2V20.49c0-.5,0-1,0-1.47v0c0-.47,0-.93,0-1.38,0-.68,0-1.34,0-1.94a21.7,21.7,0,0,0-.85-5.6c-.12-.43-.26-.84-.41-1.23a11.46,11.46,0,0,0-3.18-4.64,10.73,10.73,0,0,0-1.23-.93A22.51,22.51,0,0,0,671.37,0C665.16.17,659,3.25,655.54,7.86a16.28,16.28,0,0,0-1.23,1.94h0c-.09.17-.19.34-.27.52l-.06.12a1.3,1.3,0,0,0-.08.17,1.89,1.89,0,0,0-.11.25.67.67,0,0,0-.06.15,1,1,0,0,0-.07.15,1,1,0,0,0-.06.16,2.38,2.38,0,0,0-.12.32c-.06.16-.13.33-.19.5s-.1.33-.16.5-.1.31-.15.48v0c-.05.17-.1.36-.15.55a1.83,1.83,0,0,0-.06.25,1.83,1.83,0,0,0-.06.25,4.05,4.05,0,0,0-.12.5,37.37,37.37,0,0,0-.06,13.94c.05.38.11.73.16,1.09.11.72.22,1.38.35,2l.06.29.06.26c0,.15.07.31.11.44s.08.29.13.43v0l.12.43s0,.1,0,.14c-.47.09-.95.2-1.42.32a37.92,37.92,0,0,0-10.42,4.63c-1.93,1.25-2.7,2.72-2.7,3.66s1.23,1.79,3.09,1.79c2.1,0,2.79-.39,3.5-1.4,1.38-2,2.63-6.5,6.75-8.08a8.5,8.5,0,0,1,1.37-.39,10.14,10.14,0,0,1,1.89-.17,11.7,11.7,0,0,1,1.71.11,8.23,8.23,0,0,1,1.66.42c3.18,1.21,4.69,4.7,4.93,12.16l-6.44,2.49c-14.36,5.6-19.41,10.74-19.41,16,0,4.74,3.43,8.72,9.63,8.72,5.44,0,13.58-8.41,15.68-12-.15,1.65-.31,4.37-.31,6.39,0,3.51,1.47,5.53,4.42,5.53s7.92-4.52,9.17-6.31c.38-.62-.55-1.24-.94-.62-.85,1.56-2.79,4.29-4.19,4.29-1.63,0-2.18-2.19-2.18-6.62,0-3,.63-11.84.63-17.06,0-9-4.32-13.17-10.58-14,0-.05,0-.1,0-.15a5.64,5.64,0,0,0,0-1.44A4.15,4.15,0,0,0,659,30.7l0,0a3.48,3.48,0,0,0-.45-.78c-.56-.8-1.48-1.7-2.4-2.75a15.84,15.84,0,0,1-2.09-2.92,8.91,8.91,0,0,1-.88-2.43,8.67,8.67,0,0,1-.15-1.14v-.48a21.11,21.11,0,0,1,.8-5.25c.18-.65.36-1.25.52-1.74h0a.42.42,0,0,1,0-.12.53.53,0,0,0,0-.12,1.59,1.59,0,0,0,.07-.2l.08-.22c0-.13.09-.26.14-.38a1.66,1.66,0,0,0,.06-.16l.07-.19,0-.07s0,0,0,0v0a15.81,15.81,0,0,1,1.82-3.19,19.35,19.35,0,0,1,14.69-7.32c.49,0,1,0,1.47,0h0a11.4,11.4,0,0,1,3.55.86.19.19,0,0,1,.08,0l.25.11.27.13.59.31a0,0,0,0,1,0,0,9.21,9.21,0,0,1,1.85,1.35l.12.13a.46.46,0,0,1,.07.07l0,0,.1.12.07.08.05.07,0,0a9.12,9.12,0,0,1,.87,1.45,19,19,0,0,1,1.47,5.38,0,0,0,0,1,0,0c.07.54.14,1.11.2,1.7s.1.95.14,1.46h0c0,.28.07.75.11,1.17v.06s.33,3.23.46,6.75a.14.14,0,0,0,0,.09c0,.16,0,.33,0,.49,0,.66,0,1.32,0,2V67.76c0,.48,0,.91-.07,1.3-.27,2.85-1.05,3.29-3.37,3.29-.62,0-.62.71,0,.71.95,0,2.22,0,3.44-.06l1.41,0h4.44l4.73.1c.62,0,.62-.7,0-.7h-4.73V59.43l8-8.16,6.36,10.66c3.57,6.15,5.67,9.1,7.61,10.36a5.11,5.11,0,0,0,2.95.77h7.3C722.05,73.06,722,72.36,721.35,72.36ZM664,48.92c0,6.39-.39,10.2-.46,11.22-.7,2.56-7.61,10.35-12,10.35-3.8,0-8.07-3.35-8.07-7.55,0-5.76,2.71-8.1,14.13-12.92L664,47.29Z"/><path class="cls-1" d="M886,43.72c0-5.93-1.09-6.16-5-5.31-.62.16-.85-.47-.23-.62a25.88,25.88,0,0,0,9.73-4.45c.23-.15,1.39.16,1.39.55V64.56c0,6.7.32,7.88,4.67,7.88.63,0,.63.7,0,.7-2.25,0-6.3-.16-7.46-.16s-5.61.16-7.86.16c-.63,0-.63-.7,0-.7,4.43,0,4.74-1.18,4.74-7.88Z"/><polygon class="cls-1" points="892.2 19.24 888.06 22.5 885.24 18.02 889.3 14.67 892.2 19.24"/><path class="cls-1" d="M.41,20c-.55,0-.55-.62,0-.62,8.09,0,11.05-.32,11.59-.32a.79.79,0,0,1,.78.47,29.59,29.59,0,0,0,3,4.14L48.18,64V39.58c0-19.2-5.14-19.51-8.87-19.51H38.22c-.62,0-.62-.7,0-.7,2.26,0,9.26.23,10.42.23s3.82-.23,6.07-.23c.63,0,.63.7,0,.7h-.54c-3.81,0-5,.31-5,19.51V72.9c0,.46-.08.78-.62.78s-1.33-.86-2-1.72L9.12,25.06,9,53.23c0,19.2,4.36,19.51,8.17,19.51H18.3a.35.35,0,1,1,0,.7c-2.25.08-9.1-.23-10.27-.23s-4.12.23-6.3.23c-.54,0-.62-.7.08-.7h.46C5.78,72.66,8,71.73,8,53.23l.08-28A3.73,3.73,0,0,0,6.86,22.8,8,8,0,0,0,.72,20Z"/><path class="cls-1" d="M76.75,73.44c-.62,0-.62-.7,0-.7,3.34,0,3.5-.94,3.5-8.58V20.3c0-6.71-1.09-6.79-5-6.08-.62.07-.62-.63,0-.71A28.89,28.89,0,0,0,84.68,10c.24-.15,1.4.16,1.4.55V64.16c0,8.11.32,8.58,4.6,8.58.62,0,.62.7,0,.7-2.26,0-5.3-.15-6.46-.15s-5.21.15-7.47.15"/><path class="cls-1" d="M128.29,41.24a14.12,14.12,0,0,1,.82,1.29,12.25,12.25,0,0,0-.82-1.29"/><path class="cls-1" d="M200.82,34.43c2.26,0,2.73,0,2.73.15,0,.47-2,2.42-3.66,4.22-2.18,0-4.9-.08-7.55-.08,0,7.18.08,26.14.08,26.14.08,7.65.39,7.88,5,7.88.62,0,.62.7,0,.7-2.26,0-6.61-.15-7.78-.15s-5.29.15-7.54.15c-.63,0-.63-.7,0-.7,4.43,0,4.51-.94,4.51-7.88,0,0-.08-25-.08-25.36v-.78h-3.19c-.7,0-1.09-.08-1.09-.47L185,34.5h2c2.41-12,12.83-22,21.31-22,4,0,7.94.94,7.94,2a4.63,4.63,0,0,1-4.2,4c-2.57,0-6.54-1.48-11.21-1.48-5.29,0-8.4,5.3-8.48,17.47,2.42,0,4.91-.07,7.71-.07Z"/><path class="cls-1" d="M217.87,70.87c4.36,0,11.28-7.81,12-10.38.08-1,.47-4.84.47-11.24V47.61l-6.38,2.74c-11.44,4.83-14.16,7.17-14.16,12.95,0,4.21,4.28,7.57,8.09,7.57m-13.54-5.31c0-5.23,5.06-10.38,19.45-16l6.46-2.49c-.31-9.76-2.8-12.72-8.32-12.72-6.85,0-8.33,6.16-10,8.66-.7,1-1.4,1.4-3.5,1.4-1.87,0-3.11-.7-3.11-1.79,0-.94.77-2.42,2.72-3.67,3.11-2,9.65-5.3,15.17-5.3,7.62,0,13.15,4,13.15,14.2,0,5.23-.62,14-.62,17.09,0,4.44.54,6.63,2.18,6.63,1.4,0,3.34-2.73,4.2-4.29.38-.63,1.32,0,.93.62-1.24,1.8-6.15,6.32-9.18,6.32s-4.44-2-4.44-5.54c0-2,.16-4.76.32-6.4-2.11,3.59-10.27,12-15.72,12-6.22,0-9.65-4-9.65-8.74"/><path class="cls-1" d="M264.72,33.65c1.87,0,3.5.39,3.5,1.4,0,1.25-1.16,4.06-3.89,4.06h-2.87c-5.61,0-6.15.78-6.15,7.49V72.74h4.74c.63,0,.63.7,0,.7s-5.68-.15-6.92-.15-5.68.15-7.94.15c-.62,0-.62-.7,0-.7,3.82,0,4.36-.47,4.36-8.58V44c0-2.26-1.79-4.29-3.58-5.93-.23-.23-.15-.39,0-.46a18.76,18.76,0,0,0,5.37-3.28c.16-.16.23-.16.47.08a12.64,12.64,0,0,1,3.34,7.17A11.23,11.23,0,0,1,260.29,35a8.15,8.15,0,0,1,4.43-1.32"/><path class="cls-1" d="M129.11,42.53a14.12,14.12,0,0,0-.82-1.29,12.25,12.25,0,0,1,.82,1.29"/><path class="cls-1" d="M178.41,72.74c-3.8,0-4.12-.71-4.12-8.59V34.51c0-.4-1.17-.7-1.4-.55a28.66,28.66,0,0,1-9.41,3.5c-.63.08-.63.79,0,.71,3.89-.71,5-.85,5,5.86V64.79c-3.73,5-6.93,7.09-11.82,7.09s-9.19-3-9.19-12.71V34.51c0-.4-1.16-.7-1.4-.55a34.55,34.55,0,0,1-9.48,3.5.8.8,0,0,0-.2.06,40.16,40.16,0,0,0-7.27,2.53,18.69,18.69,0,0,0-14.63-6.4c-12,0-20.54,9.83-20.54,21.07,0,11.78,8.33,19.5,19.29,19.5,11.76,0,20.4-10.77,20.4-20.83a21.07,21.07,0,0,0-2.77-10.86,14.12,14.12,0,0,0-.82-1.29,12.25,12.25,0,0,1,.82,1.29,9.45,9.45,0,0,1,3-3.36,7.19,7.19,0,0,1,2.71-1h0c3.88-.71,5-.85,5,5.86V58.39c0,12.25,5.52,15.83,12.53,15.83,5.92,0,10.43-3.2,14.39-8.5a58.43,58.43,0,0,1-.77,7.8c0,.47,0,.78.61.7a76.58,76.58,0,0,1,10.12-.78.35.35,0,1,0,0-.7m-63.87.62c-9,0-14.16-10.38-14.16-20,0-11.4,4-19,13.15-19,4.89,0,8.68,3.4,11,8.13a25.23,25.23,0,0,1,1.91,5.25,28.57,28.57,0,0,1,.84,6.83c0,11.55-4.52,18.72-12.77,18.72"/><path class="cls-1" d="M61.84,44c0-5.93-1.09-6.16-5-5.3-.62.15-.85-.47-.23-.63a25.74,25.74,0,0,0,9.72-4.44c.24-.16,1.4.15,1.4.54V64.86c0,6.71.31,7.88,4.67,7.88.62,0,.62.7,0,.7-2.26,0-6.3-.15-7.47-.15s-5.6.15-7.86.15c-.62,0-.62-.7,0-.7,4.44,0,4.75-1.17,4.75-7.88Z"/><polygon class="cls-1" points="68.05 19.55 63.92 22.81 61.09 18.33 65.16 14.97 68.05 19.55"/><path class="cls-1" d="M78.46,48.29h.06"/><path class="cls-1" d="M76.8,48.49l-.19,0h.19Z"/><path class="cls-1" d="M76.86,48.49h0Z"/><line class="cls-1" x1="65.6" y1="54.18" x2="65.6" y2="53.58"/><line class="cls-1" x1="65.6" y1="49.08" x2="65.6" y2="47.64"/></g></g></svg>