<svg xmlns="http://www.w3.org/2000/svg" xmlns:xlink="http://www.w3.org/1999/xlink" x="0px" y="0px"
	viewBox="-0.01 415.178 1190.544 11.54"
	 enable-background="new -0.01 415.178 1190.544 11.54" xml:space="preserve" fill="currentColor">
<title>Black Line</title>
<g>
	<path d="M1188.793,416.89l-1.229,0.613l2.684-0.174C1190.871,417.164,1190.514,416.808,1188.793,416.89z"/>
	<path d="M1178.531,416.688c-0.659-0.129-0.036-0.293,0.102-0.402c-2.022,0.303-4.357,0.833-3.039,1.383
		c2.005-0.596,2.489-0.357,4.649-1.062c1.73-0.081,3.013,0.175,2.747,0.395c0.604-0.155,2.683,0.119,3.606-0.265
		C1183.928,416.28,1181.203,416.265,1178.531,416.688z"/>
	<path d="M905.284,416.898c0.396,0.033,0.794-0.014,1.173-0.138C905.716,416.808,905.112,416.844,905.284,416.898z"/>
	<path d="M887.425,416.35h1.053C888.128,416.301,887.775,416.301,887.425,416.35z"/>
	<path d="M1007.156,416.331c-0.293,0.201,1.336,0.138,2.746,0.174L1007.156,416.331z"/>
	<path d="M1155.369,417.924c0.51-0.026,1.018-0.085,1.521-0.174c-0.486,0-0.916,0.055-1.429,0.073
		C1155.436,417.861,1155.406,417.896,1155.369,417.924z"/>
	<path d="M1030.63,415.764c-0.087-0.093-0.197-0.156-0.32-0.184C1030.31,415.645,1030.438,415.699,1030.63,415.764z"/>
	<path d="M41.178,426.475c0,0,0-0.055,0-0.092C40.968,426.438,40.912,426.475,41.178,426.475z"/>
	<path d="M854.899,415.919c0.86-0.055,0.366-0.046-0.146,0H854.899z"/>
	<path d="M554.803,418.373c3.396,0.438-5.492,0.631-0.411,1.107C553.914,419.279,559.042,418.647,554.803,418.373z"/>
	<path d="M779.465,416.752c0.246,0.107,0.504,0.181,0.77,0.22C780.216,416.917,780.042,416.853,779.465,416.752z"/>
	<path d="M834.136,417.009c0.586,0.073,1.035,0.082,1.419,0.082L834.136,417.009z"/>
	<path d="M133.291,425.596c-0.483-0.097-0.953-0.25-1.4-0.458C132.358,425.504,127.908,425.66,133.291,425.596z"/>
	<path d="M1155.351,417.613c-0.272,0.168-0.594,0.248-0.915,0.229h-1.428c0.621,0.027,1.106,0.027,1.445,0h0.988
		C1155.553,417.731,1155.572,417.658,1155.351,417.613z"/>
	<path d="M744.329,421.751h2.442C745.889,421.748,745.049,421.746,744.329,421.751z"/>
	<path d="M350.776,424.012l-1.106,0.073C350.039,424.103,350.41,424.078,350.776,424.012z"/>
	<path d="M726.735,421.678l3.307,0.201c-0.907-0.174-1.825-0.287-2.747-0.339C727.105,421.573,726.918,421.619,726.735,421.678z"/>
	<path d="M1171.246,416.756c-0.111-0.018-0.25-0.032-0.451-0.032L1171.246,416.756z"/>
	<path d="M192.796,421.54c-0.023-0.004-0.039-0.007-0.062-0.011C192.693,421.536,192.711,421.54,192.796,421.54z"/>
	<path d="M366.014,424.161c-0.28,0.024-0.596,0.058-0.958,0.098C365.365,424.224,365.691,424.191,366.014,424.161z"/>
	<path d="M1162.948,417.731c3.462-0.164,8.981-0.349,10.07-0.852l-1.772-0.125c0.593,0.097,0.051,0.404-0.727,0.481
		c-2.977,0.412-4.285-0.138-4.459-0.32l2.197-0.128c-2.262-1.034-8.825,0.229-13.246,0.201l1.83-0.778l-4.577,0.669
		c-0.97-0.192-1.629-0.613,0.55-0.742c-3.168-0.355-2.802,0.284-5.493-0.108c-0.302-0.064-0.165-0.102,0.119-0.139l-3.104,0.247
		c0.613-0.164-0.513-0.529,1.393-0.438c-5.566-0.395-8.962,0.641-11.059,0.072l0.457-0.046c-7.707,0.312-0.74,0.56-6.519,1.255
		l-3.918-1.363l-0.75,0.559c-0.797,0-2.371-0.046-2.078-0.266c-2.967,0.401,0.503,0.238-1.209,0.613
		c-3.836-0.485-10.563,0.312-11.434-0.577c-1.373,0.431,3.661,0.303-0.422,0.623c-1.173-0.916-4.725,0.2-8.238-0.211
		c1.069-0.504,4.385-0.267,0.915-0.688c-2.105,0.852-6.82-0.137-9.768,0c-0.002,0.01-0.019,0.017-0.022,0.026
		c-0.005-0.097-0.104-0.201-0.362-0.338c-0.766,0-1.048,0.451-1.337,0.69c-2.233,0.129-6.248,0.022-9.647,0.198
		c0.311-0.22-9.319-0.303-13.935-0.504l0.138-0.119c-0.914,0.678-5.64,0.586-9.1,0.751c0.139-0.402,0.76-0.567,2.627-0.76h-3.043
		c0.162-0.055,0.324-0.105,0.479-0.174l-1.557,0.256h0.414c-1.131,0.237-2.278,0.383-3.436,0.394l0.814-0.503
		c-4.33,0.055-8.716,0.649-14.291,0.348c-0.311,0.478,4.44,1.281-1.446,1.631c-0.22-0.247-0.438-0.679,1.1-0.798
		c-0.936,0.12-1.878,0.16-2.819,0.119l2.354-0.438c-2.536-0.174-1.327,0.366-3.352,0.339c0-0.357-1.511-0.247-1.218-0.531
		c0.848,0.055,1.697,0.055,2.545,0c-2,0.004-3.997-0.164-5.969-0.503c0.201,0.201,0,0.484-1.675,0.54
		c-4.33,0.055-1.483-0.422-4.011-0.596c-1.044,0.266-3.809,0-3.882,0.559c-0.694,0.042-1.39-0.087-2.022-0.375
		c-2.242,0.256-10.474,0.137-7.938,0.695h-0.174c0.03,0.002,0.059,0.013,0.089,0.017c-7.244,0.544-15.067-0.214-22.252,0.066v-0.185
		c-4.349,0.238-9.686,0.192-12.815,0.596c-1.291,0-3.039-0.303-2.49-0.521c-2.828,0.257-5.672,0.29-8.505,0.102
		c3.342-0.34-1.153-0.274,3.424-0.257c-4.321-0.128-5.3-0.411-9.933,0.119c1.573-0.477-3.26-0.567-5.311-0.412l3.03,0.312
		c-2.316,0.082-4.33,0.055-6.408,0l1.099-0.614c-8.715-0.622-15.854,1.465-22.594,0.293c-2.334,0.449,4.807,0.267,2.747,0.788
		c-4.065-0.056-8.312-0.916-9.585-0.916c-5.575-0.302-5.19,0.916-10.985,0.732c0.741,0.22,1.455,0.787-2.901,1.024
		c-4.074-0.055-5.008-0.915-2.444-1.07c0.979,0,1.446,0,1.41,0.118c1.309-0.092,3.039-0.191,1.428-0.421l-0.531,0.221
		c-2.021-0.201-7.616-0.146-6.308-0.514c-2.827,0.21-1.561,0.344,0.434,0.441c-4.894-0.227-7.809,0.064-13.002-0.104
		c0.86,0.119,1.647,0.366,0.797,0.366c-7.883-0.211-3.471,0.439-8.808,0.567c-3.039-0.312,1.08-0.797-4.293-0.485
		c-3.287-0.201-0.696-0.566,0.604-0.751c-4.897,0.449-9.154-0.21-11.946-0.273l2.572-0.192c-1.538,0.119-2.802,0.119-4.093,0.129
		l1.482,0.43c-1.52-0.072-2.801-0.062-2.746-0.247c-1.557,0.303,1.199,0.715-1.895,1.127c-2.023-0.201-6.152,0.283-6.849-0.294
		c6.354,0.155-0.705-0.566,4.668-0.704c-1.272,0.074-2.552,0.074-3.825,0c-0.229-0.063,0.22-0.119,0.632-0.155
		c-6.079-0.478-2.746,0.668-9.091,0.705c0.797-0.33-1.466-0.613-2.489-0.531c2.535,0,1.217,0.531-1.108,0.797
		c-4.046-0.22-4.394,0.22-6.509,0.201l2.417,0.109c-0.814,0.329-2.838,0.303-5.648,0.422c-0.246-0.257,2.555-0.192,1.548-0.304
		c-3.121,0.597-7.067-0.54-11.426-0.118c-2.014-0.21-0.191-0.613-1.968-0.75c-4.889,0.457-5.292-0.412-10.428,0
		c1.482,0.43,1.74,0.319-1.876,0.769l8.439-0.366l-5.456,0.659c2.546,0,5.373-0.312,6.902-0.247
		c-2.582,0.375-2.315,0.267-1.099,0.613c-3.488-0.632-6.902,0.431-10.939,0l0.119-1.08c-6.061-0.439-10.757,0.622-18.63,0.412
		l2.526,0.164c-1.054,0.438-4.853,0.092-7.396,0.284c0.229-0.357-1.364-0.477-2.453-0.695c0.138,0.265-5.759,0-6.464,0.741
		l-3.515-0.448c-6.354-0.156-7.242,1.08-13.349,0.997c1.831-0.412-0.916-0.642,3.149-0.915c-2.042,0-3.873-0.046-3.909,0.201
		c-1.187-0.209-5.618,0.525-7.506,0.204c0.551-0.094,1.11-0.115,1.665-0.058c-0.68-0.057-1.362-0.057-2.041,0l0.311,0.064
		c0.007-0.001,0.015-0.001,0.021-0.002c-1.092,0.382-2.244,0.56-3.399,0.523c-0.156-0.046-0.112-0.104-0.062-0.143
		c-0.45,0.158-3.368,0.264-1.522,0.62c-6.232-1.082-17.378,0.18-22.896-0.715h0.751l-1.475-0.102
		c0.158,0.038,0.32,0.064,0.482,0.087c-4.428,0.154-9.727,0.308-13.729,0.362c0.258-0.11,0-0.185,0.771-0.156
		c-5.604-0.293-3.424,1.044-9.832,0.714c-3.241-0.558,3.369-0.338,1.346-0.54c-0.916-1.188-7.652,0.211-11.9-0.457l1.024-0.072
		c-3.259-0.386-7.945,0.503-13.273,0.457c0,0,0.257-0.109,0-0.184c-3.661,0.632-10.536,0.915-15.663,1.089
		c1.593-0.476,2.325-0.265,1.354-0.731c-2.297,0.083,0.679,0.761-3.908,0.916c-1.491-0.247-4.807-0.448-5.245-0.916l4.32-0.056
		c-2.216-0.641-5.594,0.064-7.873,0l0.284-0.282c-6.628,0.137-6.72,0.851-13.842,0.851l0.741,0.211
		c-3.892,0.741-3.27-0.375-7.149,0.184l-1.182-0.715c-2.572,0.192-8.998,0.761-13.604,0.916c2.609-0.55,7.992-0.87,11.334-1.209
		c-2.555,0-8.659,0.119-9.979,0.485c1.104-0.146,2.219-0.201,3.332-0.165c-4.069,0.665-8.189,0.972-12.312,0.916
		c0.915-1.41-13.229-0.266-16.918-1.327c-8.972,0.576-17.813-0.102-28.27,0.055c3.717,1.071-3.059,0.056-2.407,1.173
		c-1.191,0.104-2.389,0.104-3.58,0l-7.351-0.688c-1.749-0.312,2.315-0.266,2.097-0.513c-5.338-0.046-2.243-0.458-5.777-0.732
		c0.725,0.395-1.83,0.586-4.888,0.458l4.284,0.484c-7.452,0.649-6.408-0.915-13.961-0.256l2.353-0.357
		c-3.854,0.238-14.226,0.092-17.998,1.017c-0.687-0.128-1.583-0.421,0.11-0.513c-9.219-0.073-20.507,1.1-27.675,0.595l0.696-0.282
		c-1.713,0.091-2.984,0.54-5.137,0.273c0.109-0.109,0.688-0.273-0.108-0.284c-2.271,0.281-4.561,0.403-6.849,0.366l1.969-0.256
		c-8.99-0.303-13.787,0.842-21.33,1.08c0-0.806-7.06-1.018-10.593-1.126l0.128-0.11c-10.473,0-17.777,0.787-27.462,1.172
		c-6.016-0.833-20.38-0.229-30.056-0.648c1.482,0.137-0.237,0.631-1.95,0.723c-2.271-0.146-6.271,0.604-5.914-0.137h0.807
		c-1.712-0.715-6.408-0.485-10.016-0.485l-0.595,0.971c-9.539-1.337-24.956,0.687-30.165-0.53c-2.298,0.256-5.145,0.273-7.415,0.53
		l0.119-0.521c-6.408-0.082-9.548-0.128-17.394,0l1.602-0.375c-4.438,0-5.593,1.528-9.694,1.593l-1.234-0.77
		c-7.745,0.063-15.563-0.559-23.244,0.191c0.129-0.108,0.357-0.339,1.611-0.375c-3.661,0-14.116-0.431-12.816,0.622
		c-0.091-0.687-7.991,0-12.176,0.32l0.649-0.512c-2.808,0.676-5.682,1.035-8.567,1.069c-1.172-0.055-1.025-0.401,0.521-0.282
		c-3.891-0.238-3.029,0.503-7.754,0.266l1.758-0.339c-1.979-0.113-3.964,0.074-5.887,0.559c-2.518,0.221-7.598-0.072-8.239-0.53
		c-1.646,0.504-3.373,0.692-5.09,0.559c-0.32-0.174,0.531-0.284,0.971-0.339c-6.7-0.303-9.96,0.659-14.573,0.191
		c-0.093-0.174-0.395-0.257-0.778-0.303c4.909,0,8.922,0,9.21,0c0-0.476-4.303-0.53-0.916-1.199
		c-3.451,0.376-9.347,1.19-13.539,0.998c-0.188-0.035-0.372-0.091-0.549-0.165l0.43-0.055c-0.883-0.033-1.768,0-2.646,0.101
		c-1.337-0.072-2.188-0.118-3.47-0.118c-0.504-0.385-4.936-0.175-7.076-0.184c0.181,0.508-2.57,0.45-0.062,0.851
		c0.125-0.021,0.815-0.062,1.894-0.091c0.329,0,0.704,0,0.915-0.055l-0.092,0.029l-0.75,0.053c-0.201,0-0.312,0-0.586,0l0.852,0.11
		l0.448-0.146l5.311-0.073c-1.898,0.354-3.838,0.432-5.759,0.229c-1.099,0.339-2.308,0.687-2.984,0.852
		c-2.938-0.695-8.596-1.044-9.383-1.482c-6.546,0.33-15.416,0.293-19.527,1.291c-0.965,0.105-1.941-0.035-2.838-0.412
		c1.071-0.102,2.354-0.092,2.931-0.238c-3.718,0.275-10.985,0.174-11.9,0.853c-4.696-0.267,2.627-0.642-3.817-0.485l0.915-0.21
		c-12.424-0.969-20.28,1.705-33.803,0.64c0.27,0.038,0.538,0.094,0.801,0.166c-16.065-0.467-33.058,0.86-48.876-0.056
		c-4.495-0.164-4.979,0.266-7.718,0.613l-0.934-0.514l-4.688,0.679c-6.646,0.513-11.525-1.281-19.938-0.339l1.09,0.365
		c-3.021-0.055-9.576,0.284-9.072-0.146c-0.692,0.271-1.442,0.357-2.179,0.257l-0.102-0.293l-7.425,0.549
		c-5.795-0.256,0.86-1.172-7.543-1.172c-3.122,0.11-8.89,0.916-7.718,1.062c1.264,0,3.223,0.155,3.323,0.448l-2.842,0.164
		c0.053-0.074,0.095-0.156,0.104-0.246l-0.688,0.283h0.542c-0.549,0.849-2.576,1.72,4.338,2.262l4.889-0.559l1.575,0.402
		l-4.11,0.056c1.829,0.255,3.69,0.177,5.492-0.229c0.647,0.279,1.346,0.43,2.051,0.439l4.788-0.842
		c0.586,0.329-2.144,0.678,1.071,0.833c2.252-0.395-2.161-0.732,1.564-1.007c2.334,0.375,1.656,0.694,4.395,0.348
		c0.394,0.211-0.192,0.356-1.272,0.458c2.437-0.275,6.464-0.156,7.718-0.613c2.436,0.457,8.239-0.184,8.011,0.622
		c2.166-0.39,4.355-0.629,6.555-0.714c-4.092,0.998,8.404,0,7.324,1.044c3.029-0.916,10.984-0.458,16.321-0.979
		c-0.442,0.128-0.902,0.187-1.363,0.175c3.029,0.055,3.908,0.311,5.85,0.457c0.385-0.724,5.09-0.915,7.626-1.373
		c3.717,0.669-2.243,0.852-1.071,1.511c-0.19-0.577,6.408-0.623,5.174-1.099c2.838,0.412,2.443,0.191,3.898,0.777
		c0.494-0.916,2.646-0.174,4.989-0.74c4.102,0.41,1.062,0.833,5.565,0.529c2.097,0.257-1.903,0.604-1.903,0.604
		c4.577,0,2.15-0.678,3.122-1.071c5.491-0.229,2.534,0.478,4.402,0.814c3.414-0.201,6.032-0.843,8.587-0.833
		c0.191,0.109,0.688,0.146,0.109,0.293c3.607-0.567,10.729-0.102,14.94-0.807c0.19,0.021,0.378,0.076,0.549,0.165
		c-0.688-0.339-0.796-0.678-0.659-0.915c2.061,0,3.818-0.458,4.578,0c-0.665-0.028-1.328,0.076-1.95,0.312l2.151-0.201
		c1.939,0.623-2.938,0.238-2.938,0.705c4.201-0.229,9.101-0.787,12.321-0.632c0.678,0.612-7.534,0.257-3.231,0.777l-4.988-0.2
		c3.816,0.915-3.021,0,0.484,0.979c6.556,0.137,7.324-0.366,13.869-0.229c1.474-0.356-0.485-0.513,0.979-0.869
		c9.301-0.679,7.323,1.52,14.161,0.641c1.768-0.43,2.444-1.218,7.324-0.833l-1.647,0.714c6.345,0,3.615-1.034,10.271-0.612
		c-1.181,0.283-4.989,0.266-4.026,0.348c4.312,0.521,3.038-0.421,6.353-0.439l0.687,0.614c6.767-0.146,14.208-0.65,21.688-0.815
		c-0.412,0.192-1.693,0.395,0.064,0.577c9.438-0.376,20.14-0.063,29.294,0.238l3.47-0.559c0.813,0,1.511,0.229,0.632,0.339
		c3.552,0.183,0.183-0.339,1.886-0.56c2.023-0.056,2.673,0.283,1.393,0.457c6.262-0.503,17.833-1.106,24.441-0.575l-1.291,0.164
		c5.146,0.184,5.795-1.136,10.564-0.669l-0.915,0.102c11.159,0.156,23.48-0.421,31.995,0.33c1.61-0.787,11.04,0.266,11.755-0.814
		c6.407,0.494,4.577,0.695,13.521,0.997c2.391,0,3.562-0.704,6.52-0.833l0.082,0.56l4.019-0.613l2.144,0.659l2.746-0.165
		c-1.107,0-2.354-0.237-2.188-0.402c4.35-0.293,10.592,0.293,10.665,0.622l10.262-0.549c-0.177,0.177-1.244,0.271-2.347,0.378
		c3.983-0.365,0.371,0.646,5.057,0.098c-0.668-0.128,0.366-0.339,0.478-0.457c4.134,0.303,8.283,0.342,12.422,0.118l-0.805,0.396
		c7.606,0,16.048-0.304,24.589-0.35c-3.067-0.164-2.362-0.842,0.137-0.915l1.008,0.586c1.62-0.376-2.618-0.201,0.704-0.678
		c3.195,0,2.151,0.659,0.32,0.87l3.873-0.229c0.229,0.175-0.678,0.275-0.916,0.504c1.593-0.385,6.711,0.55,8.999-0.109l0.22,0.175
		c8.541-0.056,12.414-0.284,19.371-0.366c0.138-0.513,2.855-0.412,4.925-0.843c5.118,0.128,10.794,0.494,16.964,0.403
		c4.32-0.284,1.254-0.449,3.204-0.762c0.32,0.469,6.472,0.376,3.286,0.732c7.388-0.128,9.438-0.155,18.795-0.604
		c-1.017-0.185-2.161-0.258-1.575-0.422c1.703-0.092,3.863,0.164,3.662,0.395l-0.448,0.055c10.316-0.766,23.772,1.128,32.156,0.208
		l8.682-0.593c3.982,0.055-2.389,0.375,0.56,0.641c9.347-0.851,14.775,0,22.475-0.566c5.969,1.346,21.156-0.238,29.203,0.586
		l-0.467-0.32c2.078-0.329,2.518,0.165,4.055,0.229c-0.22-0.247-2.261-0.274-0.97-0.457c17.613-0.514,36.361,0.22,54.424,0.394
		c6.609,0,3.735-1.712,12.074-0.989l-2.407,0.613c13.32-0.813,27.253-0.155,40.28-0.915c-0.667,0.224-1.366,0.337-2.069,0.339
		c2.746,0.421,10.198-0.055,10.235-0.412c2.032,0,0.476,0.32,1.729,0.494c2.747,0.238,6.939-0.604,8.404-0.183
		c0.168,0.048-0.216,0.1-0.644,0.14c2.358-0.14,7.596,0.006,6.035-0.451c4.896,0.211,9.364-0.293,13.273,0
		c2.545-0.586,8.386,0.221,9.154-0.586c-0.349,0.824,8.587,0.604,11.682,0.192c-1.035,0.256,2.691,0.238,1.482,0.595
		c3.533,0,6.773-0.21,6.151-0.632c6.519,0.916,13.082-0.915,16.763,0.357c10.49-0.521,20.203-0.915,29.643-1.146
		c-0.329,0.824-10.437,0.156-10.023,1.018c8.952-0.403,14.115-1.146,23.006-1.008c2.298,0.092-1.301,0.366-2.078,0.513
		c8.937-0.402,17.289-0.046,25.249-0.548c-1.401-0.493,5.785-1.066,6.684-1.36c-2.29,1.022,7.897,0.188,3.752,1.561
		c1.034-0.072,2.325-0.266,2.087-0.513c1.528,0.064,2.023,0.202,0.467,0.504c5.621-0.247,3.662-0.632,8.716-0.659
		c0,0.184-1.043,0.267-1.565,0.477c3.15-0.506,6.342-0.702,9.53-0.586c-0.257,0.109,0.247,0.248-1.044,0.257
		c7.396-0.11,12.597-1.034,20.708-0.751c-2.39,0.806,2.746,0.247,3.194,0.916l4.357-0.238l-1.749-0.32
		c3.817,0,7.195-0.53,10.473-0.329l-2.827,0.303l7.148-0.185l-4.046-0.229c3.863-0.385-0.422-0.86,4.659-0.705
		c-1.025,0.073,3.827,0,5.822,0.366c2.202-0.318,4.432-0.426,6.654-0.32c0.742,0.211-0.586,0.76-0.101,0.915
		c1.831-0.586,8.944-0.22,11.297-0.851c-0.787,0.146-0.824,0.513-0.567,0.586l1.565-0.478c1.767,0.128,2.032,0.201,1.748,0.494
		c5.319,0.046-1.702-0.86,4.577-0.53c-0.426,0.086-0.857,0.149-1.29,0.191c6.344,0.146,12.248-0.384,18.089-0.191
		c1.721,0.678-5.1,0.201-3.121,0.77c8.403-0.184,17.395-0.915,25.531-0.842l-1.51-0.064c1.115-0.979,6.06,0.439,10.17-0.046
		c-1.008,0.073-1.318,0.55-1.043,0.438c5.564,0.11,11.388-0.319,19.818-0.687l-1.044,0.256c3.287,0.202,8.651,0.073,12.194,0.156
		c1.053-0.257,3.085-0.229,1.831-0.577c10.985,1.337,20.854-0.915,30.558,0.211c-1.152,0-2.746,0.229-1.831,0.229l8.239-0.283
		c-0.659-0.422-1.089-0.257-2.829-0.568c1.79-0.336,3.608-0.498,5.429-0.483c-3.717,0.302,0,0.677,1.64,0.915
		c-0.266-0.128,0.284-0.274,0.146-0.412c4.321,0.724,0.714-0.853,6.619-0.386l-0.312,0.221c2.197-0.128,4.229-0.431,6.609-0.385
		c0.989,0.477-2.344,0.237-2.488,0.649c3.34-0.055,6.582-0.979,9.611-0.513c-1.42,0.146-3.461,0.165-4.88,0.312
		c2.021,0.364,4.072,0.523,6.124,0.477h-0.237l1.681,0.064l1.671,0.091c-0.319-0.022-0.611-0.043-0.888-0.061l3.193,0.124
		l-1.445-0.146c4.175-1.301,8.514-0.293,14.144-1.162c-5.492,0.823-0.915,0.458-1.318,1.017c1.438,0.146,3.662,0.302,3.003,0.467
		c2.664-0.467,4.449,0.32,8.239-0.366c0.165,0.184,2.849,0,2.252,0.457c3.461-0.164-0.823-0.311-0.53-0.529
		c5.327-0.65,12.541,0.648,20.213-0.238c6.609-0.395,7.828-1.007,13.971-1.346c2.068,0.273-1.693,0.658-1.693,0.658
		c2.999,0.22,6.012,0.203,9.008-0.046c-0.632,0.155,0,0.284,0.988,0.477c2.527-0.063,1.686-0.659,5.018-0.421
		c-0.812,0.334-1.654,0.579-2.518,0.731c2.975-0.183,5.913-0.531,8.998-0.714C1166.712,417.338,1164.058,417.521,1162.948,417.731z"
		/>
	<path d="M708.002,421.964c-0.244,0.015-0.468,0.031-0.64,0.053C707.539,422.004,707.777,421.985,708.002,421.964z"/>
	<path d="M840.132,420.222l-1.528,0.119c-0.11-0.022-0.191-0.047-0.26-0.071c-0.551,0.14-1.113,0.219-1.682,0.236
		C838.238,420.506,840.323,420.598,840.132,420.222z"/>
	<path d="M838.357,420.268c-0.006,0-0.012,0-0.018,0.001c0.002,0,0.003,0.001,0.005,0.001
		C838.348,420.269,838.353,420.269,838.357,420.268z"/>
	<polygon points="339.909,424.323 340.715,424.342 340.697,424.204 	"/>
	<path d="M836.718,420.533c-0.22,0-0.439,0-0.632,0C834.594,420.671,835.601,420.671,836.718,420.533z"/>
	<path d="M914.697,418.784c-0.823,0.102-1.639,0.202-2.499,0.266C913.543,419.077,914.623,419.077,914.697,418.784z"/>
	<path d="M908.534,419.068c1.22,0.085,2.442,0.085,3.662,0C911.033,419.022,909.68,418.977,908.534,419.068z"/>
	<path d="M1170.996,417.769l-0.889,0.082h0.796c0,0,0.013-0.038,0.062-0.064l0.899-0.072c-0.302-0.02-0.603,0.005-0.896,0.07
		C1170.981,417.779,1170.982,417.771,1170.996,417.769z"/>
	<path d="M1173.688,417.576l-1.831,0.138C1172.471,417.747,1173.086,417.701,1173.688,417.576z"/>
	<path d="M1148.246,417.769l-0.246,0.184C1148.138,417.924,1148.229,417.851,1148.246,417.769z"/>
	<path d="M1141.619,417.86c1.584,0,3.974,0.375,6.18,0.236l0.201-0.146C1146.966,418.235,1143.119,417.54,1141.619,417.86z"/>
	<path d="M1119.777,415.343c-7.003-0.54,1.446,0.439-5.831,0.402l5.557,0.11C1118.531,415.663,1117.25,415.406,1119.777,415.343z"/>
	<path d="M1096.845,415.178c-1.896,0.192-2.354,0.247-0.119,0.402C1099.709,415.471,1096.726,415.287,1096.845,415.178z"/>
	<path d="M972.279,416.441l0.302-0.478C970.274,416.093,972.553,416.148,972.279,416.441z"/>
	<polygon points="950.756,419.297 951.818,418.867 948.513,419.022 	"/>
	<polygon points="935.441,415.709 931.605,415.91 934.434,415.782 	"/>
	<path d="M725.435,417.402l0.696,0.566C727.687,417.86,728.007,417.21,725.435,417.402z"/>
	<path d="M635.207,418.61c-1.672-0.352-3.392-0.402-5.08-0.155C632.151,418.482,634.173,418.693,635.207,418.61z"/>
	<polygon points="366.421,419.343 363.006,419.526 364.609,419.545 	"/>
</g>
</svg>
